<svg width="164" height="14" viewBox="0 0 164 14" fill="none" xmlns="http://www.w3.org/2000/svg">
<g clip-path="url(#clip0_11_19401)">
<path d="M83.2899 9.64643C83.2899 9.64643 83.3572 9.69587 83.4886 9.79165C83.6201 9.89053 83.8188 10.0327 84.0786 10.215C84.6013 10.5796 85.3778 11.1172 86.4324 11.7073C86.9612 12.0009 87.5604 12.3068 88.2359 12.5879C88.5752 12.7301 88.9298 12.866 89.3058 12.9927C89.6818 13.1163 90.0762 13.2337 90.4919 13.3295C90.9076 13.4253 91.3386 13.5087 91.788 13.5674C92.2373 13.6261 92.705 13.6601 93.185 13.6725C93.3042 13.6725 93.4265 13.6787 93.5487 13.6756C93.671 13.6725 93.7933 13.6694 93.9156 13.6694C94.0378 13.6632 94.1632 13.657 94.2885 13.6508C94.4138 13.6447 94.5392 13.6292 94.6645 13.6199C95.1689 13.5736 95.6855 13.4994 96.2112 13.3944C96.734 13.2893 97.2598 13.1472 97.7825 12.9587C98.3052 12.7733 98.8187 12.5323 99.3109 12.2357C99.5554 12.0843 99.7969 11.9236 100.023 11.7413C100.252 11.559 100.469 11.3644 100.677 11.1512C101.081 10.7217 101.438 10.2273 101.689 9.67115C101.94 9.11498 102.102 8.50937 102.145 7.87905C102.154 7.8018 102.151 7.72147 102.157 7.64113C102.163 7.5608 102.16 7.48355 102.16 7.40322V7.28271C102.16 7.24254 102.154 7.20238 102.154 7.16221C102.148 7.08187 102.145 7.00463 102.138 6.92429C102.105 6.60604 102.041 6.29397 101.952 5.98499C101.854 5.67909 101.729 5.37938 101.573 5.09512C101.42 4.80776 101.228 4.53895 101.017 4.28558C100.803 4.03222 100.567 3.7943 100.31 3.57492C100.054 3.35554 99.7755 3.1547 99.4851 2.9724C98.9043 2.60472 98.2624 2.31118 97.5929 2.08254C96.9235 1.85698 96.2174 1.69631 95.5051 1.63142C94.7837 1.56653 94.0501 1.5758 93.3164 1.65923C92.5828 1.74883 91.8491 1.91259 91.1277 2.13815C89.6818 2.59854 88.2818 3.30611 86.9031 4.10637C85.5214 4.90664 84.155 5.80269 82.7214 6.6493C82.3637 6.85941 82.0091 7.06642 81.6545 7.27344C81.303 7.48046 80.9515 7.69057 80.603 7.90068C79.903 8.32089 79.209 8.74111 78.5121 9.15206C77.1182 9.97086 75.7181 10.7464 74.2845 11.4015C73.5661 11.729 72.8416 12.0256 72.1049 12.279C71.3682 12.5323 70.6224 12.7393 69.8673 12.8784C69.1123 13.0205 68.3481 13.0947 67.59 13.0792C67.4952 13.0761 67.4004 13.0761 67.3057 13.073C67.2109 13.0669 67.1162 13.0576 67.0214 13.0514L66.8808 13.0391L66.8105 13.0329L66.7402 13.0236C66.6454 13.0112 66.5537 12.9989 66.4589 12.9834L66.3183 12.9649C66.2725 12.9587 66.2266 12.9464 66.1808 12.9402C66.0891 12.9216 65.9973 12.9031 65.9056 12.8846C65.7222 12.8537 65.5419 12.7981 65.3646 12.7486C65.1842 12.7054 65.01 12.6374 64.8327 12.5756L64.7012 12.5292C64.6584 12.5138 64.6157 12.4922 64.5729 12.4736C64.4873 12.4365 64.4017 12.3995 64.3161 12.3624C64.2305 12.3284 64.148 12.2821 64.0654 12.2388C63.9829 12.1955 63.9003 12.1523 63.8209 12.109C63.7414 12.0627 63.665 12.0101 63.5855 11.9607L63.4693 11.8866L63.4113 11.8495C63.3929 11.8371 63.3746 11.8217 63.3562 11.8093C63.2829 11.7537 63.2095 11.6981 63.1361 11.6425C63.0994 11.6146 63.0628 11.5899 63.0261 11.5559L62.9222 11.4632C62.8549 11.4014 62.7846 11.3397 62.7173 11.2779C62.6532 11.2099 62.592 11.145 62.5278 11.077L62.4331 10.9781C62.4025 10.9442 62.375 10.9071 62.3475 10.87C62.2894 10.7989 62.2344 10.7279 62.1763 10.6568C62.1243 10.5826 62.0723 10.5054 62.0234 10.4312L61.947 10.3169C61.9226 10.2798 61.9012 10.2397 61.8798 10.1995C61.837 10.1192 61.7911 10.0419 61.7483 9.96159C61.7086 9.88126 61.6719 9.79783 61.6352 9.7175L61.5802 9.5939C61.5619 9.55373 61.5496 9.51048 61.5313 9.46722C61.5007 9.38379 61.4702 9.30037 61.4396 9.21694C61.4121 9.13352 61.3907 9.047 61.3662 8.96049L61.3295 8.83381C61.3173 8.79055 61.3112 8.74729 61.302 8.70403C61.2837 8.61752 61.2653 8.531 61.247 8.44449C61.2317 8.35797 61.2225 8.27146 61.2103 8.18494L61.192 8.05517C61.1859 8.01191 61.1859 7.96865 61.1828 7.9254C61.1767 7.83888 61.1706 7.75237 61.1645 7.66585C61.1614 7.57934 61.1614 7.49282 61.1614 7.4094C61.1614 7.32288 61.1584 7.23945 61.1645 7.15294C61.1706 7.06642 61.1736 6.983 61.1797 6.89957C61.1828 6.81615 61.1981 6.73272 61.2073 6.64621L61.2225 6.51953L61.2287 6.45773L61.2409 6.39593C61.2562 6.31251 61.2684 6.23217 61.2837 6.14875C61.5405 4.83866 62.1488 3.65217 63.02 2.76848C63.454 2.34208 63.9126 1.96512 64.3894 1.63451C64.5117 1.55417 64.6279 1.47075 64.7502 1.39659C64.8724 1.32244 64.9978 1.25137 65.117 1.18031C65.3676 1.04744 65.6152 0.914581 65.869 0.806437C66.3733 0.583969 66.8838 0.40167 67.3913 0.278076C67.5166 0.240999 67.645 0.21937 67.7703 0.191561C67.8956 0.166843 68.021 0.135944 68.1494 0.120495C68.2747 0.101956 68.4 0.0834174 68.5254 0.0617887C68.6507 0.0494294 68.773 0.03707 68.8983 0.0247107C69.0206 0.00926161 69.1428 0.00617179 69.2651 -7.86595e-06C69.3263 -0.00309769 69.3874 -0.00618752 69.4455 -0.00927734C69.5005 -7.86595e-06 69.5616 -7.86595e-06 69.6228 -7.86595e-06C69.742 -7.86595e-06 69.8612 0.00308196 69.9804 0.00308196H70.0691L70.1577 0.00926161C70.2158 0.0123514 70.2739 0.0154413 70.332 0.0185311C70.39 0.0216209 70.4481 0.0247107 70.5062 0.0278006L70.5918 0.0339802L70.6774 0.0432497C70.7905 0.055609 70.9036 0.0679683 71.0167 0.0803276C71.1298 0.0895971 71.2368 0.114316 71.3468 0.129765C71.4569 0.148304 71.5639 0.163753 71.6709 0.185382C72.5237 0.352232 73.294 0.611778 73.9727 0.905311C74.6543 1.20193 75.2474 1.53255 75.7609 1.86007C76.7789 2.53056 77.485 3.16706 77.9435 3.612C78.1758 3.83138 78.3409 4.01368 78.454 4.13418C78.5671 4.25468 78.6252 4.31339 78.6252 4.31339C78.6252 4.31339 78.5641 4.25468 78.4479 4.14036C78.3317 4.02604 78.1606 3.84992 77.9221 3.63672C77.4514 3.20723 76.7299 2.59545 75.6998 1.96203C75.1801 1.65305 74.5871 1.34098 73.9085 1.06907C73.2299 0.797167 72.4687 0.56543 71.6311 0.423298C71.5272 0.404759 71.4202 0.3924 71.3132 0.376951C71.2062 0.364592 71.0992 0.342963 70.9892 0.336783C70.8791 0.327514 70.7691 0.318244 70.659 0.308975L70.5765 0.302795L70.494 0.299705C70.4389 0.296615 70.3809 0.296615 70.3258 0.293526C70.2708 0.290436 70.2127 0.290436 70.1547 0.287346L70.0691 0.284256H69.9835C69.8673 0.287346 69.7542 0.287346 69.6381 0.290436C69.58 0.290436 69.5219 0.293526 69.4638 0.299705C69.4057 0.302795 69.3477 0.308975 69.2865 0.312065C69.1673 0.321334 69.0511 0.327514 68.9319 0.342963C68.8127 0.358412 68.6935 0.373861 68.5743 0.38622C68.4551 0.407849 68.3358 0.429478 68.2136 0.451107C68.0913 0.469646 67.9721 0.500544 67.8498 0.528352C67.7275 0.556161 67.6052 0.580879 67.486 0.621047C66.9969 0.75082 66.514 0.936209 66.034 1.16177C65.0711 1.6067 64.1541 2.26792 63.3471 3.09291C63.2523 3.19796 63.1514 3.29993 63.0658 3.41425C63.02 3.46987 62.9741 3.52548 62.9313 3.58419C62.8885 3.6429 62.8488 3.7016 62.806 3.7634L62.7418 3.85301C62.7235 3.8839 62.7021 3.9148 62.6837 3.9457C62.644 4.0075 62.6073 4.06929 62.5676 4.13418C62.5309 4.19598 62.4973 4.26395 62.4606 4.32884C62.4269 4.39372 62.3872 4.45861 62.3597 4.52659C62.2986 4.66254 62.2313 4.7954 62.1763 4.93753C62.1488 5.0086 62.1182 5.07658 62.0937 5.14764C62.0693 5.21871 62.0448 5.28977 62.0204 5.36393L61.9837 5.47207L61.9531 5.58331C61.9317 5.65746 61.9134 5.73162 61.892 5.80269C61.8737 5.87684 61.8584 5.951 61.8431 6.02824C61.8278 6.1024 61.8095 6.17655 61.7972 6.2538C61.785 6.33105 61.7728 6.4052 61.7605 6.48245L61.7514 6.54115L61.7453 6.59986L61.733 6.71418C61.7269 6.79143 61.7147 6.86868 61.7116 6.94592C61.7086 7.02317 61.7055 7.10041 61.7025 7.18075C61.6964 7.25799 61.7025 7.33833 61.7025 7.41558C61.7055 7.49282 61.7055 7.57316 61.7086 7.6504C61.7147 7.72765 61.7208 7.80798 61.73 7.88523C61.733 7.9254 61.7361 7.96247 61.7422 8.00264L61.7605 8.12006C61.7728 8.1973 61.782 8.27764 61.7972 8.35488C61.8156 8.43213 61.8309 8.50937 61.8492 8.58662C61.8584 8.6237 61.8645 8.66387 61.8767 8.70094L61.9103 8.81527C61.9348 8.88942 61.9562 8.96667 61.9806 9.04391C62.0082 9.11807 62.0387 9.19222 62.0662 9.26638C62.0815 9.30346 62.0937 9.34054 62.109 9.37761L62.161 9.48576C62.1946 9.55682 62.2283 9.63098 62.2649 9.70205C62.3047 9.77002 62.3444 9.84109 62.3841 9.90906C62.4055 9.94305 62.4239 9.98013 62.4453 10.011L62.5125 10.1099C62.5584 10.1748 62.6012 10.2428 62.6501 10.3077C62.7021 10.3694 62.751 10.4312 62.8029 10.493C62.8274 10.5239 62.8518 10.5548 62.8794 10.5857L62.9649 10.6723C63.02 10.731 63.0781 10.7897 63.1331 10.8453C63.1942 10.8978 63.2554 10.9534 63.3165 11.006L63.4082 11.0863C63.4388 11.1141 63.4724 11.1357 63.506 11.1604C63.5733 11.2099 63.6375 11.2562 63.7047 11.3057C63.72 11.318 63.7383 11.3304 63.7536 11.3427L63.8056 11.3736L63.9126 11.4385C63.9829 11.4818 64.0532 11.5281 64.1235 11.5683C64.1969 11.6054 64.2733 11.6425 64.3466 11.6826C64.42 11.7197 64.4934 11.7599 64.5729 11.7908C64.6493 11.8217 64.7288 11.8557 64.8052 11.8866C64.8449 11.902 64.8816 11.9205 64.9213 11.936L65.0406 11.9762C65.2026 12.0287 65.3615 12.0905 65.5296 12.1276C65.6947 12.1677 65.8598 12.2172 66.031 12.245C66.1166 12.2604 66.2022 12.2759 66.2877 12.2944C66.3305 12.3006 66.3733 12.3129 66.4161 12.316L66.5445 12.3315C66.6301 12.3438 66.7157 12.3531 66.8044 12.3655L66.8685 12.3747L66.9327 12.3778L67.0642 12.3871C67.1528 12.3933 67.2384 12.3995 67.3271 12.4056C67.4157 12.4087 67.5044 12.4087 67.59 12.4087C68.2961 12.4149 69.0114 12.3377 69.7267 12.1986C70.442 12.0565 71.1543 11.8526 71.8634 11.6023C72.5726 11.352 73.2726 11.0585 73.9727 10.734C75.3696 10.0852 76.7452 9.31582 78.1239 8.5001C78.8147 8.09225 79.5056 7.67203 80.2056 7.24872C80.5571 7.03862 80.9087 6.82542 81.2633 6.61531C81.6178 6.40829 81.9724 6.20127 82.3301 5.99117C83.7454 5.15382 85.1149 4.26086 86.5241 3.45133C87.9302 2.64179 89.3823 1.91259 90.9076 1.43985C91.6718 1.20502 92.4513 1.03817 93.2339 0.948569C94.0164 0.865143 94.802 0.862054 95.5693 0.939299C96.3458 1.01654 97.0916 1.19575 97.8069 1.44603C98.5192 1.69631 99.2039 2.01765 99.8275 2.42551C100.139 2.62943 100.439 2.8519 100.717 3.09291C100.995 3.337 101.255 3.60273 101.487 3.89008C101.72 4.17744 101.931 4.48024 102.099 4.80776C102.27 5.13219 102.407 5.47207 102.511 5.81813C102.609 6.16729 102.673 6.52262 102.707 6.87486C102.71 6.96446 102.716 7.05098 102.719 7.14058C102.722 7.18384 102.725 7.23019 102.725 7.27344V7.40631C102.725 7.49282 102.725 7.58243 102.719 7.66894C102.713 7.75546 102.713 7.84197 102.701 7.92849C102.643 8.62061 102.453 9.29419 102.166 9.89979C101.879 10.5085 101.478 11.043 101.032 11.5003C100.806 11.7259 100.564 11.9329 100.317 12.1245C100.069 12.3129 99.8092 12.4798 99.5463 12.6343C99.0174 12.9371 98.4733 13.1781 97.9261 13.3604C97.379 13.5458 96.8287 13.6787 96.2907 13.7744C95.7527 13.8671 95.2208 13.932 94.7012 13.9691C94.5697 13.9753 94.4413 13.9876 94.3129 13.9907C94.1846 13.9938 94.0562 13.9969 93.9308 14.0031C93.8055 14.0031 93.6771 14.0031 93.5548 14C93.4295 14 93.3072 13.9907 93.1819 13.9876C92.6898 13.966 92.2129 13.9166 91.7544 13.8455C91.2958 13.7713 90.8587 13.6787 90.4369 13.5674C90.0181 13.4562 89.6207 13.3264 89.2416 13.1935C88.8626 13.0545 88.5049 12.9093 88.1687 12.7548C87.4931 12.4489 86.9001 12.1245 86.3774 11.8124C85.335 11.1883 84.5738 10.6259 84.0633 10.2428C83.8096 10.0481 83.617 9.89979 83.4886 9.79783C83.3541 9.69587 83.2899 9.64643 83.2899 9.64643Z" fill="url(#paint0_linear_11_19401)"/>
<path d="M91.2194 4.56371C91.2194 4.56371 91.1552 4.57298 91.036 4.59152C90.9748 4.60079 90.9015 4.61006 90.8159 4.62551C90.7303 4.64096 90.6294 4.6595 90.5163 4.68113C90.0669 4.77073 89.4281 4.93449 88.67 5.21876C87.9119 5.50302 87.0437 5.92015 86.1114 6.44851C85.179 6.97687 84.1795 7.61646 83.1157 8.28077C82.5838 8.61138 82.058 8.93273 81.5414 9.22935C81.2816 9.37766 81.0278 9.51979 80.7711 9.65575C80.5235 9.78861 80.2789 9.92147 80.0435 10.0482C79.099 10.5672 78.2522 11.0647 77.5186 11.4478C77.4269 11.4973 77.3382 11.5436 77.2526 11.59C77.164 11.6332 77.0784 11.6765 76.9959 11.7198C76.8277 11.8032 76.6718 11.8804 76.5251 11.9515C76.2255 12.0874 75.9688 12.2049 75.7548 12.2914C75.3238 12.4582 75.0853 12.5478 75.0853 12.5478C75.0853 12.5478 75.3054 12.415 75.7028 12.1832C75.8984 12.0627 76.1338 11.9082 76.4089 11.7383C76.5434 11.6487 76.6902 11.5498 76.843 11.4478C76.9194 11.3953 76.9989 11.3428 77.0784 11.2903C77.1579 11.2346 77.2404 11.1759 77.326 11.1203C77.6653 10.8855 78.0352 10.629 78.4295 10.354C78.6282 10.215 78.8361 10.0729 79.0501 9.93074C79.2671 9.78861 79.4872 9.6403 79.7195 9.49199C79.9518 9.34676 80.1933 9.19536 80.4379 9.05014C80.6794 8.90492 80.9239 8.75661 81.1746 8.59903C81.6759 8.28695 82.1925 7.96252 82.7213 7.62882C83.7851 6.96451 84.8275 6.35272 85.821 5.8738C86.8145 5.39488 87.7529 5.05191 88.563 4.85107C89.373 4.65023 90.0455 4.57916 90.5071 4.56062C90.6233 4.55753 90.7242 4.55444 90.8128 4.55444C90.9015 4.55444 90.9779 4.55753 91.039 4.55753C91.1552 4.56062 91.2194 4.56371 91.2194 4.56371Z" fill="url(#paint1_linear_11_19401)"/>
<path d="M89.3364 1.89098C89.3364 1.89098 89.2722 1.90025 89.153 1.91879C89.0919 1.92806 89.0185 1.93733 88.9329 1.95278C88.8473 1.96823 88.7465 1.98677 88.6334 2.0084C88.184 2.098 87.5451 2.26176 86.787 2.54603C86.0289 2.83029 85.1608 3.24742 84.2285 3.77578C83.2961 4.30414 82.2965 4.94373 81.2327 5.60804C80.7008 5.93866 80.1751 6.26 79.6585 6.55662C79.3986 6.70493 79.1449 6.84706 78.8881 6.98302C78.6405 7.11588 78.396 7.24874 78.1606 7.37542C77.216 7.89452 76.3693 8.39198 75.6356 8.77512C75.5439 8.82455 75.4553 8.8709 75.3697 8.91725C75.281 8.96051 75.1955 9.00376 75.1129 9.04702C74.9448 9.13045 74.7889 9.20769 74.6422 9.27876C74.3426 9.41471 74.0858 9.53212 73.8718 9.61864C73.4408 9.78549 73.2024 9.87509 73.2024 9.87509C73.2024 9.87509 73.4225 9.74223 73.8199 9.51049C74.0155 9.38999 74.2509 9.2355 74.526 9.06556C74.6605 8.97595 74.8072 8.87708 74.9601 8.77512C75.0365 8.72259 75.116 8.67006 75.1955 8.61753C75.2749 8.56192 75.3575 8.50321 75.4431 8.44759C75.7824 8.21277 76.1523 7.95631 76.5466 7.68132C76.7453 7.54228 76.9531 7.40014 77.1671 7.25801C77.3842 7.11588 77.6043 6.96757 77.8366 6.81926C78.0689 6.67403 78.3104 6.52263 78.5549 6.37741C78.7964 6.23219 79.041 6.08388 79.2916 5.9263C79.793 5.61422 80.3096 5.28979 80.8384 4.95609C81.9022 4.29178 82.9446 3.67999 83.938 3.20107C84.9315 2.72215 85.87 2.37918 86.68 2.17834C87.4901 1.9775 88.1626 1.90643 88.6242 1.88789C88.7404 1.8848 88.8412 1.88171 88.9299 1.88171C89.0185 1.88171 89.095 1.8848 89.1561 1.8848C89.2723 1.88789 89.3364 1.89098 89.3364 1.89098Z" fill="url(#paint2_linear_11_19401)"/>
<path d="M164 7.86359C164 7.86359 163.123 3.04037 157.122 7.89139C157.122 7.89139 162.778 12.7949 164 7.86359ZM162.622 7.89139C162.622 8.01808 162.521 8.12313 162.392 8.12313C162.267 8.12313 162.163 8.02117 162.163 7.89139C162.163 7.76471 162.264 7.65966 162.392 7.65966C162.518 7.66275 162.619 7.76471 162.622 7.89139ZM158.608 7.90066C158.608 7.90066 158.993 6.44845 161.747 7.8883C161.747 7.8883 159.183 9.3776 158.608 7.90066Z" fill="url(#paint3_linear_11_19401)"/>
<path d="M156.679 8.55568C156.33 8.55568 156.046 8.27141 156.043 7.91917C156.043 7.56693 156.324 7.27958 156.673 7.27649C157.021 7.27649 157.306 7.56075 157.309 7.91299C157.309 8.26523 157.027 8.55259 156.679 8.55568Z" fill="url(#paint4_linear_11_19401)"/>
<path d="M151.822 8.57423C151.473 8.57423 151.189 8.28997 151.186 7.93773C151.186 7.58549 151.467 7.29813 151.815 7.29504C152.164 7.29504 152.448 7.57931 152.451 7.93155C152.451 8.28688 152.17 8.57423 151.822 8.57423Z" fill="url(#paint5_linear_11_19401)"/>
<path d="M154.246 9.61863C154.246 9.61863 156.407 7.9254 156.389 7.91613C156.407 7.90686 154.23 6.23218 154.23 6.23218C153.98 6.78526 152.075 7.93158 152.078 7.93467C152.051 7.95321 153.992 9.06864 154.246 9.61863Z" fill="url(#paint6_linear_11_19401)"/>
<path d="M97.85 7.90686C93.9431 4.74596 93.3715 7.88832 93.3715 7.88832C94.1663 11.0986 97.85 7.90686 97.85 7.90686ZM94.42 7.75854C94.5026 7.75854 94.5698 7.82652 94.5698 7.90995C94.5698 7.99337 94.5026 8.06135 94.42 8.06135C94.3375 8.06135 94.2702 7.99337 94.2702 7.90995C94.2702 7.82343 94.3375 7.75545 94.42 7.75854ZM94.8358 7.90686C96.6272 6.97064 96.8809 7.91613 96.8809 7.91613C96.508 8.87706 94.8358 7.90686 94.8358 7.90686Z" fill="url(#paint7_linear_11_19401)"/>
<path d="M98.1404 8.33946C98.3668 8.33946 98.5534 8.15407 98.5534 7.92543C98.5534 7.69678 98.3699 7.5083 98.1435 7.5083C97.9171 7.5083 97.7305 7.69369 97.7305 7.92234C97.7274 8.15098 97.911 8.33946 98.1404 8.33946Z" fill="url(#paint8_linear_11_19401)"/>
<path d="M151.822 7.70911H98.5529V8.16022H151.822V7.70911Z" fill="url(#paint9_linear_11_19401)"/>
<path d="M6.87829 7.89139C0.877364 3.04037 0 7.86359 0 7.86359C1.22281 12.7949 6.87829 7.89139 6.87829 7.89139ZM1.60799 7.66275C1.73333 7.66275 1.83727 7.7678 1.83727 7.89448C1.83727 8.02117 1.73333 8.12622 1.60799 8.12622C1.48265 8.12622 1.37872 8.02117 1.37872 7.89448C1.37872 7.76471 1.48265 7.66275 1.60799 7.66275ZM2.24996 7.8883C5.00128 6.44845 5.38952 7.90066 5.38952 7.90066C4.81786 9.3776 2.24996 7.8883 2.24996 7.8883Z" fill="url(#paint10_linear_11_19401)"/>
<path d="M7.32115 8.55568C7.66965 8.55568 7.95396 8.27141 7.95701 7.91917C7.95701 7.56693 7.67577 7.27958 7.32727 7.27649C6.97877 7.27649 6.69446 7.56075 6.69141 7.91299C6.69141 8.26523 6.97265 8.55259 7.32115 8.55568Z" fill="url(#paint11_linear_11_19401)"/>
<path d="M12.1785 8.57423C12.527 8.57423 12.8113 8.28997 12.8143 7.93773C12.8143 7.58549 12.5331 7.29813 12.1846 7.29504C11.8361 7.29504 11.5518 7.57931 11.5487 7.93155C11.5457 8.28688 11.8269 8.57423 12.1785 8.57423Z" fill="url(#paint12_linear_11_19401)"/>
<path d="M9.75136 9.61863C9.75136 9.61863 7.59005 7.9254 7.60839 7.91613C7.59005 7.90686 9.76665 6.23218 9.76665 6.23218C10.0173 6.78526 11.9218 7.93158 11.9188 7.93467C11.9494 7.95321 10.0082 9.06864 9.75136 9.61863Z" fill="url(#paint13_linear_11_19401)"/>
<path d="M70.6287 7.88832C70.6287 7.88832 70.057 4.74596 66.1501 7.90686C66.1501 7.90686 69.8308 11.0986 70.6287 7.88832ZM69.7299 7.90686C69.7299 7.99028 69.6627 8.05826 69.5801 8.05826C69.4976 8.05826 69.4303 7.99028 69.4303 7.90686C69.4303 7.82343 69.4976 7.75545 69.5801 7.75545C69.6627 7.75545 69.7299 7.82343 69.7299 7.90686ZM67.1162 7.91304C67.1162 7.91304 67.3668 6.96755 69.1613 7.90377C69.1613 7.90686 67.4891 8.87706 67.1162 7.91304Z" fill="url(#paint14_linear_11_19401)"/>
<path d="M65.8601 8.33946C65.6338 8.33946 65.4471 8.15407 65.4471 7.92543C65.4471 7.69678 65.6307 7.5083 65.8571 7.5083C66.0835 7.5083 66.2701 7.69369 66.2701 7.92234C66.2701 8.15098 66.0865 8.33946 65.8601 8.33946Z" fill="url(#paint15_linear_11_19401)"/>
<path d="M65.4471 7.70911H12.1785V8.16022H65.4471V7.70911Z" fill="url(#paint16_linear_11_19401)"/>
</g>
<defs>
<linearGradient id="paint0_linear_11_19401" x1="81.943" y1="-0.00927734" x2="82.6158" y2="14.246" gradientUnits="userSpaceOnUse">
<stop stop-color="#AE8625"/>
<stop offset="0.38" stop-color="#F7EF8A"/>
<stop offset="0.8" stop-color="#D2AC47"/>
<stop offset="1" stop-color="#EDC967"/>
</linearGradient>
<linearGradient id="paint1_linear_11_19401" x1="83.1524" y1="4.55444" x2="83.7149" y2="12.6655" gradientUnits="userSpaceOnUse">
<stop stop-color="#AE8625"/>
<stop offset="0.38" stop-color="#F7EF8A"/>
<stop offset="0.8" stop-color="#D2AC47"/>
<stop offset="1" stop-color="#EDC967"/>
</linearGradient>
<linearGradient id="paint2_linear_11_19401" x1="81.2694" y1="1.88171" x2="81.832" y2="9.99274" gradientUnits="userSpaceOnUse">
<stop stop-color="#AE8625"/>
<stop offset="0.38" stop-color="#F7EF8A"/>
<stop offset="0.8" stop-color="#D2AC47"/>
<stop offset="1" stop-color="#EDC967"/>
</linearGradient>
<linearGradient id="paint3_linear_11_19401" x1="160.561" y1="5.72815" x2="160.948" y2="10.1134" gradientUnits="userSpaceOnUse">
<stop stop-color="#AE8625"/>
<stop offset="0.38" stop-color="#F7EF8A"/>
<stop offset="0.8" stop-color="#D2AC47"/>
<stop offset="1" stop-color="#EDC967"/>
</linearGradient>
<linearGradient id="paint4_linear_11_19401" x1="156.676" y1="7.27649" x2="156.857" y2="8.55515" gradientUnits="userSpaceOnUse">
<stop stop-color="#AE8625"/>
<stop offset="0.38" stop-color="#F7EF8A"/>
<stop offset="0.8" stop-color="#D2AC47"/>
<stop offset="1" stop-color="#EDC967"/>
</linearGradient>
<linearGradient id="paint5_linear_11_19401" x1="151.818" y1="7.29504" x2="151.999" y2="8.5737" gradientUnits="userSpaceOnUse">
<stop stop-color="#AE8625"/>
<stop offset="0.38" stop-color="#F7EF8A"/>
<stop offset="0.8" stop-color="#D2AC47"/>
<stop offset="1" stop-color="#EDC967"/>
</linearGradient>
<linearGradient id="paint6_linear_11_19401" x1="154.233" y1="6.23218" x2="154.609" y2="9.64374" gradientUnits="userSpaceOnUse">
<stop stop-color="#AE8625"/>
<stop offset="0.38" stop-color="#F7EF8A"/>
<stop offset="0.8" stop-color="#D2AC47"/>
<stop offset="1" stop-color="#EDC967"/>
</linearGradient>
<linearGradient id="paint7_linear_11_19401" x1="95.6107" y1="6.49719" x2="95.8627" y2="9.35304" gradientUnits="userSpaceOnUse">
<stop stop-color="#AE8625"/>
<stop offset="0.38" stop-color="#F7EF8A"/>
<stop offset="0.8" stop-color="#D2AC47"/>
<stop offset="1" stop-color="#EDC967"/>
</linearGradient>
<linearGradient id="paint8_linear_11_19401" x1="98.142" y1="7.5083" x2="98.2594" y2="8.33914" gradientUnits="userSpaceOnUse">
<stop stop-color="#AE8625"/>
<stop offset="0.38" stop-color="#F7EF8A"/>
<stop offset="0.8" stop-color="#D2AC47"/>
<stop offset="1" stop-color="#EDC967"/>
</linearGradient>
<linearGradient id="paint9_linear_11_19401" x1="125.187" y1="7.70911" x2="125.188" y2="8.16906" gradientUnits="userSpaceOnUse">
<stop stop-color="#AE8625"/>
<stop offset="0.38" stop-color="#F7EF8A"/>
<stop offset="0.8" stop-color="#D2AC47"/>
<stop offset="1" stop-color="#EDC967"/>
</linearGradient>
<linearGradient id="paint10_linear_11_19401" x1="3.43914" y1="5.72815" x2="3.82602" y2="10.1134" gradientUnits="userSpaceOnUse">
<stop stop-color="#AE8625"/>
<stop offset="0.38" stop-color="#F7EF8A"/>
<stop offset="0.8" stop-color="#D2AC47"/>
<stop offset="1" stop-color="#EDC967"/>
</linearGradient>
<linearGradient id="paint11_linear_11_19401" x1="7.32421" y1="7.27649" x2="7.50514" y2="8.55515" gradientUnits="userSpaceOnUse">
<stop stop-color="#AE8625"/>
<stop offset="0.38" stop-color="#F7EF8A"/>
<stop offset="0.8" stop-color="#D2AC47"/>
<stop offset="1" stop-color="#EDC967"/>
</linearGradient>
<linearGradient id="paint12_linear_11_19401" x1="12.1815" y1="7.29504" x2="12.3625" y2="8.5737" gradientUnits="userSpaceOnUse">
<stop stop-color="#AE8625"/>
<stop offset="0.38" stop-color="#F7EF8A"/>
<stop offset="0.8" stop-color="#D2AC47"/>
<stop offset="1" stop-color="#EDC967"/>
</linearGradient>
<linearGradient id="paint13_linear_11_19401" x1="9.76371" y1="6.23218" x2="10.1389" y2="9.64374" gradientUnits="userSpaceOnUse">
<stop stop-color="#AE8625"/>
<stop offset="0.38" stop-color="#F7EF8A"/>
<stop offset="0.8" stop-color="#D2AC47"/>
<stop offset="1" stop-color="#EDC967"/>
</linearGradient>
<linearGradient id="paint14_linear_11_19401" x1="68.3894" y1="6.49719" x2="68.6414" y2="9.35304" gradientUnits="userSpaceOnUse">
<stop stop-color="#AE8625"/>
<stop offset="0.38" stop-color="#F7EF8A"/>
<stop offset="0.8" stop-color="#D2AC47"/>
<stop offset="1" stop-color="#EDC967"/>
</linearGradient>
<linearGradient id="paint15_linear_11_19401" x1="65.8586" y1="7.5083" x2="65.9761" y2="8.33914" gradientUnits="userSpaceOnUse">
<stop stop-color="#AE8625"/>
<stop offset="0.38" stop-color="#F7EF8A"/>
<stop offset="0.8" stop-color="#D2AC47"/>
<stop offset="1" stop-color="#EDC967"/>
</linearGradient>
<linearGradient id="paint16_linear_11_19401" x1="38.8128" y1="7.70911" x2="38.8133" y2="8.16906" gradientUnits="userSpaceOnUse">
<stop stop-color="#AE8625"/>
<stop offset="0.38" stop-color="#F7EF8A"/>
<stop offset="0.8" stop-color="#D2AC47"/>
<stop offset="1" stop-color="#EDC967"/>
</linearGradient>
<clipPath id="clip0_11_19401">
<rect width="164" height="14" fill="white"/>
</clipPath>
</defs>
</svg>
