<svg width="29" height="14" viewBox="0 0 29 14" fill="none" xmlns="http://www.w3.org/2000/svg">
<path d="M13.7138 6.87705C24.5448 15.5396 26.1283 6.92671 26.1283 6.92671C23.9213 -1.87929 13.7138 6.87705 13.7138 6.87705ZM23.2261 7.28535C22.9998 7.28535 22.8123 7.09776 22.8123 6.87154C22.8123 6.64532 22.9998 6.45772 23.2261 6.45772C23.4523 6.45772 23.6399 6.64532 23.6399 6.87154C23.6399 7.10327 23.4523 7.28535 23.2261 7.28535ZM22.0674 6.88257C17.1016 9.45375 16.4009 6.8605 16.4009 6.8605C17.4326 4.22311 22.0674 6.88257 22.0674 6.88257Z" fill="white"/>
<path d="M12.9145 5.69083C12.2855 5.69083 11.7724 6.19845 11.7669 6.82745C11.7669 7.45645 12.2745 7.96958 12.9035 7.9751C13.5325 7.9751 14.0456 7.46748 14.0511 6.83848C14.0511 6.20948 13.5435 5.69635 12.9145 5.69083Z" fill="white"/>
<path d="M4.14764 5.65763C3.51864 5.65763 3.00551 6.16524 2.99999 6.79425C2.99999 7.42325 3.50761 7.93638 4.13661 7.94189C4.76561 7.94189 5.27874 7.43428 5.28426 6.80528C5.28977 6.17076 4.78216 5.65763 4.14764 5.65763Z" fill="white"/>
<path d="M8.52811 3.79286C8.52811 3.79286 12.429 6.81647 12.3959 6.83303C12.429 6.84958 8.50052 9.84009 8.50052 9.84009C8.04808 8.85245 4.61065 6.80544 4.61617 6.79992C4.56099 6.76681 8.06464 4.77498 8.52811 3.79286Z" fill="white"/>
</svg>
