<svg width="29" height="14" viewBox="0 0 29 14" fill="none" xmlns="http://www.w3.org/2000/svg">
<path d="M15.4145 6.86294C4.58354 -1.79961 3 6.81328 3 6.81328C5.20702 15.6193 15.4145 6.86294 15.4145 6.86294ZM5.90223 6.45464C6.12845 6.45464 6.31604 6.64223 6.31604 6.86845C6.31604 7.09467 6.12845 7.28227 5.90223 7.28227C5.67601 7.28227 5.48841 7.09467 5.48841 6.86845C5.48841 6.63672 5.67601 6.45464 5.90223 6.45464ZM7.06091 6.85742C12.0267 4.28624 12.7274 6.87949 12.7274 6.87949C11.6957 9.51688 7.06091 6.85742 7.06091 6.85742Z" fill="white"/>
<path d="M16.2138 8.04916C16.8428 8.04916 17.3559 7.54154 17.3614 6.91254C17.3614 6.28354 16.8538 5.77041 16.2248 5.76489C15.5958 5.76489 15.0827 6.27251 15.0771 6.90151C15.0771 7.53051 15.5848 8.04364 16.2138 8.04916Z" fill="white"/>
<path d="M24.9807 8.08236C25.6097 8.08236 26.1228 7.57475 26.1283 6.94575C26.1283 6.31674 25.6207 5.80361 24.9917 5.7981C24.3627 5.7981 23.8496 6.30571 23.844 6.93471C23.8385 7.56923 24.3461 8.08236 24.9807 8.08236Z" fill="white"/>
<path d="M20.6002 9.94713C20.6002 9.94713 16.6993 6.92352 16.7324 6.90697C16.6993 6.89041 20.6278 3.8999 20.6278 3.8999C21.0802 4.88754 24.5176 6.93455 24.5121 6.94007C24.5673 6.97318 21.0637 8.96501 20.6002 9.94713Z" fill="white"/>
</svg>
