<svg width="224" height="18" viewBox="0 0 224 18" fill="none" xmlns="http://www.w3.org/2000/svg">
<g clip-path="url(#clip0_11_19858)">
<path d="M113.762 12.4024C113.762 12.4024 113.853 12.466 114.033 12.5891C114.213 12.7162 114.484 12.899 114.839 13.1334C115.553 13.6021 116.613 14.2934 118.054 15.0521C118.776 15.4295 119.594 15.8228 120.517 16.1843C120.981 16.3671 121.465 16.5419 121.978 16.7048C122.492 16.8637 123.031 17.0146 123.598 17.1378C124.166 17.2609 124.755 17.3682 125.369 17.4437C125.982 17.5192 126.621 17.5629 127.277 17.5787C127.44 17.5787 127.607 17.5867 127.774 17.5827C127.941 17.5787 128.108 17.5748 128.275 17.5748C128.442 17.5668 128.613 17.5589 128.784 17.5509C128.955 17.543 129.126 17.5231 129.298 17.5112C129.986 17.4516 130.692 17.3563 131.41 17.2212C132.124 17.0861 132.842 16.9034 133.556 16.6611C134.27 16.4227 134.972 16.1128 135.644 15.7315C135.978 15.5368 136.308 15.3302 136.617 15.0958C136.93 14.8615 137.226 14.6112 137.51 14.3371C138.061 13.7849 138.55 13.1493 138.892 12.4342C139.235 11.7191 139.456 10.9405 139.514 10.1301C139.527 10.0307 139.523 9.92745 139.531 9.82416C139.539 9.72087 139.535 9.62155 139.535 9.51827V9.36333C139.535 9.31169 139.527 9.26005 139.527 9.2084C139.518 9.10511 139.514 9.0058 139.506 8.90251C139.46 8.49333 139.372 8.09209 139.251 7.69483C139.118 7.30154 138.946 6.91619 138.734 6.55071C138.525 6.18125 138.262 5.83563 137.974 5.50988C137.681 5.18412 137.36 4.87823 137.009 4.59617C136.658 4.31411 136.278 4.05589 135.882 3.82151C135.089 3.34876 134.212 2.97136 133.297 2.67739C132.383 2.38739 131.419 2.18081 130.446 2.09738C129.46 2.01396 128.458 2.02588 127.456 2.13314C126.454 2.24834 125.452 2.45889 124.467 2.7489C122.492 3.34082 120.58 4.25055 118.697 5.27946C116.809 6.30838 114.943 7.46044 112.985 8.54894C112.496 8.81908 112.012 9.08525 111.528 9.35142C111.048 9.61758 110.568 9.88772 110.092 10.1579C109.135 10.6981 108.188 11.2384 107.236 11.7668C105.332 12.8195 103.42 13.8167 101.461 14.6589C100.48 15.08 99.4907 15.4613 98.4845 15.7871C97.4783 16.1128 96.4595 16.379 95.4282 16.5578C94.397 16.7405 93.3532 16.8359 92.3177 16.816C92.1883 16.812 92.0588 16.812 91.9294 16.8081C91.8 16.8001 91.6705 16.7882 91.5411 16.7802L91.3491 16.7644L91.253 16.7564L91.157 16.7445C91.0276 16.7286 90.9023 16.7127 90.7729 16.6928L90.5808 16.669C90.5182 16.6611 90.4556 16.6452 90.3929 16.6372C90.2677 16.6134 90.1424 16.5896 90.0172 16.5657C89.7667 16.526 89.5203 16.4545 89.2782 16.3909C89.0318 16.3353 88.7938 16.2479 88.5517 16.1685L88.3721 16.1089C88.3137 16.089 88.2552 16.0612 88.1968 16.0374C88.0799 15.9897 87.963 15.942 87.8461 15.8943C87.7291 15.8506 87.6164 15.7911 87.5037 15.7354C87.391 15.6798 87.2782 15.6242 87.1697 15.5686C87.0611 15.509 86.9567 15.4415 86.8482 15.3779L86.6895 15.2826L86.6102 15.2349C86.5851 15.219 86.5601 15.1991 86.535 15.1832C86.4348 15.1117 86.3346 15.0402 86.2344 14.9687C86.1843 14.933 86.1342 14.9012 86.0841 14.8575L85.9422 14.7383C85.8503 14.6589 85.7543 14.5794 85.6624 14.4999C85.5747 14.4126 85.4912 14.3291 85.4036 14.2417L85.2741 14.1146C85.2324 14.0709 85.1948 14.0232 85.1572 13.9756C85.0779 13.8842 85.0027 13.7928 84.9234 13.7015C84.8524 13.6061 84.7814 13.5068 84.7146 13.4114L84.6103 13.2645C84.5769 13.2168 84.5476 13.1651 84.5184 13.1135C84.46 13.0102 84.3973 12.9109 84.3389 12.8076C84.2846 12.7043 84.2345 12.5971 84.1844 12.4938L84.1092 12.3349C84.0842 12.2832 84.0675 12.2276 84.0424 12.172C84.0007 12.0647 83.9589 11.9575 83.9172 11.8502C83.8796 11.7429 83.8504 11.6317 83.817 11.5205L83.7669 11.3576C83.7502 11.302 83.7418 11.2464 83.7293 11.1907C83.7042 11.0795 83.6792 10.9683 83.6541 10.857C83.6333 10.7458 83.6207 10.6346 83.604 10.5233L83.579 10.3565C83.5706 10.3009 83.5706 10.2453 83.5665 10.1896C83.5581 10.0784 83.5498 9.96717 83.5414 9.85594C83.5372 9.74471 83.5372 9.63347 83.5372 9.52621C83.5372 9.41498 83.5331 9.30772 83.5414 9.19648C83.5498 9.08525 83.5539 8.97799 83.5623 8.87073C83.5665 8.76346 83.5873 8.6562 83.5999 8.54497L83.6207 8.38209L83.6291 8.30264L83.6458 8.22319C83.6667 8.11593 83.6834 8.01264 83.7042 7.90538C84.055 6.22098 84.8858 4.69549 86.0758 3.55931C86.6686 3.01109 87.2949 2.52643 87.9463 2.10136C88.1133 1.99807 88.2719 1.89081 88.4389 1.79546C88.6059 1.70012 88.7771 1.60875 88.94 1.51738C89.2823 1.34656 89.6205 1.17573 89.9671 1.03669C90.656 0.750661 91.3532 0.516275 92.0463 0.35737C92.2175 0.309698 92.3929 0.28189 92.564 0.246136C92.7352 0.214355 92.9064 0.174629 93.0818 0.154766C93.253 0.13093 93.4241 0.107094 93.5953 0.0792856C93.7665 0.0633951 93.9335 0.0475046 94.1047 0.031614C94.2717 0.0117508 94.4387 0.00777821 94.6057 -0.000167057C94.6892 -0.00413969 94.7727 -0.00811233 94.8521 -0.012085C94.9272 -0.000167057 95.0107 -0.000167057 95.0942 -0.000167057C95.257 -0.000167057 95.4199 0.00380558 95.5827 0.00380558H95.7038L95.8249 0.0117508C95.9042 0.0157235 95.9835 0.0196961 96.0629 0.0236688C96.1422 0.0276414 96.2215 0.031614 96.3009 0.0355867L96.4178 0.0435319L96.5347 0.0554498C96.6892 0.0713404 96.8436 0.0872309 96.9981 0.103121C97.1526 0.115039 97.2987 0.14682 97.449 0.166684C97.5993 0.190519 97.7455 0.210383 97.8916 0.238191C99.0565 0.452713 100.109 0.786415 101.036 1.16381C101.967 1.54519 102.777 1.97026 103.478 2.39136C104.868 3.25342 105.833 4.07178 106.459 4.64384C106.776 4.9259 107.002 5.16029 107.156 5.31522C107.311 5.47015 107.39 5.54563 107.39 5.54563C107.39 5.54563 107.307 5.47015 107.148 5.32316C106.989 5.17618 106.756 4.94974 106.43 4.67562C105.787 4.12343 104.802 3.33685 103.395 2.52246C102.685 2.12519 101.875 1.72396 100.948 1.37436C100.021 1.02477 98.9813 0.726825 97.8373 0.544084C97.6954 0.520248 97.5492 0.504358 97.4031 0.484494C97.257 0.468604 97.1108 0.440795 96.9605 0.43285C96.8102 0.420932 96.6599 0.409014 96.5096 0.397096L96.3969 0.389151L96.2842 0.385179C96.209 0.381206 96.1297 0.381206 96.0545 0.377233C95.9794 0.373261 95.9 0.373261 95.8207 0.369288L95.7038 0.365315H95.5869C95.4282 0.369288 95.2738 0.369288 95.1151 0.373261C95.0358 0.373261 94.9564 0.377233 94.8771 0.385179C94.7978 0.389151 94.7185 0.397096 94.6349 0.401069C94.4721 0.412987 94.3135 0.420932 94.1506 0.440795C93.9878 0.460659 93.825 0.480522 93.6621 0.496412C93.4993 0.524221 93.3365 0.552029 93.1694 0.579838C93.0024 0.603673 92.8396 0.6434 92.6726 0.679154C92.5056 0.714907 92.3386 0.746688 92.1757 0.798333C91.5077 0.965183 90.848 1.20354 90.1925 1.49354C88.8773 2.0656 87.6248 2.91575 86.5225 3.97644C86.3931 4.11151 86.2553 4.24261 86.1384 4.38959C86.0758 4.4611 86.0131 4.53261 85.9547 4.60809C85.8962 4.68357 85.842 4.75905 85.7835 4.8385L85.6958 4.95371C85.6708 4.99343 85.6415 5.03316 85.6165 5.07289C85.5622 5.15234 85.5121 5.23179 85.4578 5.31522C85.4077 5.39467 85.3618 5.48207 85.3117 5.56549C85.2658 5.64892 85.2115 5.73234 85.1739 5.81974C85.0904 5.99454 84.9986 6.16536 84.9234 6.3481C84.8858 6.43947 84.8441 6.52687 84.8107 6.61824C84.7773 6.70961 84.7439 6.80098 84.7105 6.89633L84.6604 7.03537L84.6186 7.17838C84.5894 7.27373 84.5643 7.36907 84.5351 7.46044C84.5101 7.55578 84.4892 7.65113 84.4683 7.75044C84.4474 7.84579 84.4224 7.94113 84.4057 8.04045C84.389 8.13976 84.3723 8.2351 84.3556 8.33442L84.3431 8.4099L84.3347 8.48538L84.318 8.63237C84.3097 8.73168 84.293 8.831 84.2888 8.93032C84.2846 9.02963 84.2804 9.12895 84.2763 9.23224C84.2679 9.33155 84.2763 9.43484 84.2763 9.53416C84.2804 9.63347 84.2804 9.73676 84.2846 9.83608C84.2929 9.93539 84.3013 10.0387 84.3138 10.138C84.318 10.1896 84.3222 10.2373 84.3305 10.289L84.3556 10.4399C84.3723 10.5392 84.3848 10.6425 84.4057 10.7418C84.4307 10.8412 84.4516 10.9405 84.4767 11.0398C84.4892 11.0875 84.4975 11.1391 84.5142 11.1868L84.5602 11.3338C84.5936 11.4291 84.6228 11.5284 84.6562 11.6277C84.6938 11.7231 84.7355 11.8184 84.7731 11.9138C84.794 11.9614 84.8107 12.0091 84.8316 12.0568L84.9025 12.1958C84.9485 12.2872 84.9944 12.3825 85.0445 12.4739C85.0988 12.5613 85.153 12.6527 85.2073 12.7401C85.2365 12.7838 85.2616 12.8314 85.2908 12.8712L85.3827 12.9983C85.4453 13.0817 85.5038 13.1691 85.5706 13.2525C85.6415 13.332 85.7083 13.4114 85.7793 13.4909C85.8127 13.5306 85.8461 13.5704 85.8837 13.6101L86.0006 13.7213C86.0758 13.7968 86.1551 13.8723 86.2302 13.9438C86.3138 14.0113 86.3973 14.0828 86.4808 14.1504L86.606 14.2536C86.6478 14.2894 86.6937 14.3172 86.7396 14.349C86.8315 14.4126 86.9192 14.4721 87.011 14.5357C87.0319 14.5516 87.0569 14.5675 87.0778 14.5834L87.1488 14.6231L87.2949 14.7065C87.391 14.7621 87.487 14.8217 87.583 14.8734C87.6832 14.921 87.7876 14.9687 87.8878 15.0204C87.988 15.068 88.0882 15.1197 88.1968 15.1594C88.3012 15.1991 88.4097 15.2428 88.5141 15.2826C88.5684 15.3024 88.6185 15.3263 88.6727 15.3461L88.8356 15.3978C89.0569 15.4653 89.274 15.5448 89.5036 15.5924C89.7291 15.6441 89.9545 15.7076 90.1883 15.7434C90.3053 15.7632 90.4222 15.7831 90.5391 15.8069C90.5975 15.8149 90.656 15.8308 90.7144 15.8348L90.8898 15.8546C91.0067 15.8705 91.1236 15.8824 91.2447 15.8983L91.3324 15.9102L91.42 15.9142L91.5996 15.9261C91.7206 15.9341 91.8376 15.942 91.9586 15.95C92.0797 15.9539 92.2008 15.9539 92.3177 15.9539C93.2822 15.9619 94.2592 15.8626 95.2362 15.6838C96.2132 15.5011 97.186 15.2389 98.1546 14.9171C99.1233 14.5953 100.079 14.2179 101.036 13.8008C102.944 12.9665 104.822 11.9773 106.705 10.9286C107.649 10.4042 108.593 9.86388 109.549 9.31963C110.029 9.04949 110.509 8.77538 110.993 8.50524C111.478 8.23908 111.962 7.97291 112.451 7.70277C114.384 6.62619 116.254 5.4781 118.179 4.43727C120.1 3.39644 122.083 2.45889 124.166 1.85108C125.21 1.54916 126.275 1.33464 127.344 1.21943C128.412 1.11217 129.485 1.1082 130.533 1.20751C131.594 1.30683 132.613 1.53724 133.59 1.85903C134.562 2.18081 135.498 2.59396 136.349 3.11835C136.775 3.38055 137.185 3.66657 137.564 3.97644C137.944 4.29028 138.299 4.63193 138.617 5.00138C138.934 5.37083 139.222 5.76015 139.452 6.18125C139.685 6.59838 139.873 7.03537 140.015 7.4803C140.149 7.92921 140.237 8.38607 140.283 8.83895C140.287 8.95415 140.295 9.06539 140.299 9.18059C140.303 9.23621 140.308 9.2958 140.308 9.35142V9.52224C140.308 9.63347 140.308 9.74868 140.299 9.85991C140.291 9.97115 140.291 10.0824 140.274 10.1936C140.195 11.0835 139.936 11.9495 139.544 12.7282C139.151 13.5108 138.604 14.198 137.995 14.786C137.686 15.076 137.356 15.3421 137.018 15.5885C136.679 15.8308 136.324 16.0453 135.965 16.2439C135.243 16.6333 134.5 16.9431 133.752 17.1775C133.005 17.4159 132.254 17.5867 131.519 17.7098C130.784 17.829 130.057 17.9124 129.348 17.9601C129.168 17.9681 128.993 17.9839 128.817 17.9879C128.642 17.9919 128.467 17.9959 128.295 18.0038C128.124 18.0038 127.949 18.0038 127.782 17.9998C127.611 17.9998 127.444 17.9879 127.273 17.9839C126.6 17.9561 125.949 17.8926 125.323 17.8012C124.696 17.7059 124.099 17.5867 123.523 17.4437C122.951 17.3007 122.408 17.1338 121.891 16.963C121.373 16.7842 120.884 16.5975 120.425 16.3989C119.502 16.0056 118.693 15.5885 117.979 15.1872C116.555 14.3847 115.515 13.6617 114.818 13.1691C114.471 12.9188 114.208 12.7282 114.033 12.5971C113.849 12.466 113.762 12.4024 113.762 12.4024Z" fill="url(#paint0_linear_11_19858)"/>
<path d="M124.592 5.86739C124.592 5.86739 124.504 5.8793 124.342 5.90314C124.258 5.91506 124.158 5.92698 124.041 5.94684C123.924 5.9667 123.786 5.99054 123.632 6.01835C123.018 6.13355 122.146 6.3441 121.11 6.70958C120.075 7.07507 118.889 7.61137 117.615 8.29069C116.342 8.97001 114.977 9.79235 113.524 10.6465C112.797 11.0715 112.079 11.4847 111.373 11.8661C111.019 12.0568 110.672 12.2395 110.321 12.4143C109.983 12.5851 109.649 12.7559 109.328 12.9188C108.037 13.5862 106.881 14.2258 105.879 14.7184C105.754 14.782 105.633 14.8416 105.516 14.9012C105.395 14.9568 105.278 15.0124 105.165 15.068C104.935 15.1753 104.722 15.2746 104.522 15.366C104.113 15.5408 103.762 15.6917 103.47 15.8029C102.881 16.0175 102.555 16.1327 102.555 16.1327C102.555 16.1327 102.856 15.9619 103.399 15.6639C103.666 15.509 103.988 15.3103 104.363 15.0918C104.547 14.9766 104.747 14.8495 104.956 14.7184C105.061 14.6509 105.169 14.5833 105.278 14.5158C105.386 14.4443 105.499 14.3688 105.616 14.2973C106.079 13.9954 106.584 13.6657 107.123 13.3121C107.394 13.1333 107.678 12.9506 107.971 12.7679C108.267 12.5851 108.568 12.3944 108.885 12.2037C109.202 12.017 109.532 11.8224 109.866 11.6357C110.196 11.4489 110.53 11.2583 110.872 11.0556C111.557 10.6544 112.263 10.2373 112.985 9.80824C114.438 8.95412 115.862 8.16754 117.219 7.55178C118.576 6.93603 119.857 6.49506 120.964 6.23684C122.07 5.97862 122.989 5.88725 123.619 5.86341C123.778 5.85944 123.916 5.85547 124.037 5.85547C124.158 5.85547 124.262 5.85944 124.346 5.85944C124.504 5.86341 124.592 5.86739 124.592 5.86739Z" fill="url(#paint1_linear_11_19858)"/>
<path d="M122.02 2.43099C122.02 2.43099 121.933 2.4429 121.77 2.46674C121.686 2.47866 121.586 2.49057 121.469 2.51044C121.352 2.5303 121.214 2.55414 121.06 2.58195C120.446 2.69715 119.574 2.9077 118.538 3.27318C117.503 3.63867 116.317 4.17497 115.044 4.85429C113.77 5.53361 112.405 6.35595 110.952 7.21006C110.225 7.63514 109.507 8.04829 108.802 8.42966C108.447 8.62035 108.1 8.80309 107.749 8.97789C107.411 9.14871 107.077 9.31953 106.756 9.48241C105.466 10.1498 104.309 10.7894 103.307 11.282C103.182 11.3456 103.061 11.4052 102.944 11.4648C102.823 11.5204 102.706 11.576 102.593 11.6316C102.363 11.7389 102.15 11.8382 101.95 11.9296C101.541 12.1044 101.19 12.2553 100.898 12.3665C100.309 12.5811 99.9835 12.6963 99.9835 12.6963C99.9835 12.6963 100.284 12.5254 100.827 12.2275C101.094 12.0726 101.416 11.8739 101.791 11.6554C101.975 11.5402 102.176 11.4131 102.384 11.282C102.489 11.2145 102.597 11.1469 102.706 11.0794C102.814 11.0079 102.927 10.9324 103.044 10.8609C103.507 10.559 104.013 10.2293 104.551 9.8757C104.823 9.69693 105.107 9.51419 105.399 9.33145C105.695 9.14871 105.996 8.95802 106.313 8.76734C106.63 8.58062 106.96 8.38596 107.294 8.19925C107.624 8.01254 107.958 7.82185 108.301 7.61925C108.985 7.21801 109.691 6.80088 110.413 6.37184C111.866 5.51772 113.29 4.73114 114.647 4.11538C116.004 3.49962 117.286 3.05866 118.392 2.80044C119.498 2.54222 120.417 2.45085 121.047 2.42701C121.206 2.42304 121.344 2.41907 121.465 2.41907C121.586 2.41907 121.69 2.42304 121.774 2.42304C121.933 2.42701 122.02 2.43099 122.02 2.43099Z" fill="url(#paint2_linear_11_19858)"/>
<path d="M224.001 10.1103C224.001 10.1103 222.802 3.90903 214.606 10.1461C214.606 10.1461 222.33 16.4506 224.001 10.1103ZM222.117 10.1461C222.117 10.3089 221.98 10.444 221.804 10.444C221.633 10.444 221.491 10.3129 221.491 10.1461C221.491 9.98318 221.629 9.84811 221.804 9.84811C221.975 9.85209 222.113 9.98318 222.117 10.1461ZM216.635 10.158C216.635 10.158 217.161 8.29084 220.923 10.1421C220.923 10.1421 217.42 12.0569 216.635 10.158Z" fill="url(#paint3_linear_11_19858)"/>
<path d="M214 11.0001C213.524 11.0001 213.136 10.6346 213.132 10.1817C213.132 9.72884 213.516 9.35938 213.992 9.35541C214.468 9.35541 214.856 9.72089 214.86 10.1738C214.86 10.6267 214.476 10.9961 214 11.0001Z" fill="url(#paint4_linear_11_19858)"/>
<path d="M207.366 11.0239C206.89 11.0239 206.501 10.6585 206.497 10.2056C206.497 9.7527 206.881 9.38325 207.357 9.37927C207.833 9.37927 208.222 9.74475 208.226 10.1976C208.226 10.6545 207.842 11.0239 207.366 11.0239Z" fill="url(#paint5_linear_11_19858)"/>
<path d="M210.677 12.3666C210.677 12.3666 213.629 10.1896 213.604 10.1777C213.629 10.1658 210.656 8.0126 210.656 8.0126C210.314 8.72371 207.712 10.1976 207.716 10.2015C207.679 10.2254 210.33 11.6595 210.677 12.3666Z" fill="url(#paint6_linear_11_19858)"/>
<path d="M133.649 10.1659C128.312 6.10188 127.532 10.142 127.532 10.142C128.617 14.2696 133.649 10.1659 133.649 10.1659ZM128.964 9.97519C129.077 9.97519 129.168 10.0626 129.168 10.1699C129.168 10.2771 129.077 10.3645 128.964 10.3645C128.851 10.3645 128.759 10.2771 128.759 10.1699C128.759 10.0586 128.851 9.97122 128.964 9.97519ZM129.532 10.1659C131.978 8.96217 132.325 10.1778 132.325 10.1778C131.816 11.4133 129.532 10.1659 129.532 10.1659Z" fill="url(#paint7_linear_11_19858)"/>
<path d="M134.045 10.722C134.354 10.722 134.609 10.4837 134.609 10.1897C134.609 9.89571 134.358 9.65338 134.049 9.65338C133.74 9.65338 133.485 9.89174 133.485 10.1857C133.481 10.4797 133.732 10.722 134.045 10.722Z" fill="url(#paint8_linear_11_19858)"/>
<path d="M207.366 9.91171H134.609V10.4917H207.366V9.91171Z" fill="url(#paint9_linear_11_19858)"/>
<path d="M9.39455 10.146C1.19817 3.90897 -0.000183105 10.1102 -0.000183105 10.1102C1.66999 16.4506 9.39455 10.146 9.39455 10.146ZM2.1961 9.85203C2.36729 9.85203 2.50926 9.98709 2.50926 10.15C2.50926 10.3129 2.36729 10.4479 2.1961 10.4479C2.0249 10.4479 1.88294 10.3129 1.88294 10.15C1.88294 9.98312 2.0249 9.85203 2.1961 9.85203ZM3.07294 10.142C6.83083 8.29078 7.36112 10.1579 7.36112 10.1579C6.58031 12.0568 3.07294 10.142 3.07294 10.142Z" fill="url(#paint10_linear_11_19858)"/>
<path d="M9.99924 11C10.4752 11 10.8636 10.6345 10.8677 10.1817C10.8677 9.72877 10.4836 9.35932 10.0076 9.35535C9.53159 9.35535 9.14327 9.72083 9.1391 10.1737C9.1391 10.6266 9.52324 10.996 9.99924 11Z" fill="url(#paint11_linear_11_19858)"/>
<path d="M16.6339 11.0239C17.1099 11.0239 17.4982 10.6584 17.5023 10.2055C17.5023 9.75261 17.1182 9.38315 16.6422 9.37918C16.1662 9.37918 15.7779 9.74466 15.7737 10.1975C15.7695 10.6544 16.1537 11.0239 16.6339 11.0239Z" fill="url(#paint12_linear_11_19858)"/>
<path d="M13.3188 12.3665C13.3188 12.3665 10.3668 10.1895 10.3918 10.1776C10.3668 10.1657 13.3397 8.01251 13.3397 8.01251C13.6821 8.72361 16.2834 10.1975 16.2792 10.2014C16.3209 10.2253 13.6695 11.6594 13.3188 12.3665Z" fill="url(#paint13_linear_11_19858)"/>
<path d="M96.4683 10.142C96.4683 10.142 95.6875 6.10178 90.3513 10.1658C90.3513 10.1658 95.3785 14.2695 96.4683 10.142ZM95.2407 10.1658C95.2407 10.273 95.1488 10.3604 95.0361 10.3604C94.9234 10.3604 94.8315 10.273 94.8315 10.1658C94.8315 10.0585 94.9234 9.97113 95.0361 9.97113C95.1488 9.97113 95.2407 10.0585 95.2407 10.1658ZM91.6707 10.1737C91.6707 10.1737 92.0131 8.95811 94.4641 10.1618C94.4641 10.1658 92.1801 11.4132 91.6707 10.1737Z" fill="url(#paint14_linear_11_19858)"/>
<path d="M89.9547 10.7219C89.6457 10.7219 89.391 10.4836 89.391 10.1896C89.391 9.89562 89.6415 9.65329 89.9505 9.65329C90.2595 9.65329 90.5142 9.89165 90.5142 10.1856C90.5142 10.4796 90.2637 10.7219 89.9547 10.7219Z" fill="url(#paint15_linear_11_19858)"/>
<path d="M89.3909 9.91162H16.6337V10.4916H89.3909V9.91162Z" fill="url(#paint16_linear_11_19858)"/>
</g>
<defs>
<linearGradient id="paint0_linear_11_19858" x1="111.922" y1="-0.012085" x2="112.736" y2="18.3207" gradientUnits="userSpaceOnUse">
<stop stop-color="#AE8625"/>
<stop offset="0.38" stop-color="#F7EF8A"/>
<stop offset="0.8" stop-color="#D2AC47"/>
<stop offset="1" stop-color="#EDC967"/>
</linearGradient>
<linearGradient id="paint1_linear_11_19858" x1="113.574" y1="5.85547" x2="114.255" y2="16.2896" gradientUnits="userSpaceOnUse">
<stop stop-color="#AE8625"/>
<stop offset="0.38" stop-color="#F7EF8A"/>
<stop offset="0.8" stop-color="#D2AC47"/>
<stop offset="1" stop-color="#EDC967"/>
</linearGradient>
<linearGradient id="paint2_linear_11_19858" x1="111.002" y1="2.41907" x2="111.683" y2="12.8532" gradientUnits="userSpaceOnUse">
<stop stop-color="#AE8625"/>
<stop offset="0.38" stop-color="#F7EF8A"/>
<stop offset="0.8" stop-color="#D2AC47"/>
<stop offset="1" stop-color="#EDC967"/>
</linearGradient>
<linearGradient id="paint3_linear_11_19858" x1="219.303" y1="7.36475" x2="219.772" y2="13.0078" gradientUnits="userSpaceOnUse">
<stop stop-color="#AE8625"/>
<stop offset="0.38" stop-color="#F7EF8A"/>
<stop offset="0.8" stop-color="#D2AC47"/>
<stop offset="1" stop-color="#EDC967"/>
</linearGradient>
<linearGradient id="paint4_linear_11_19858" x1="213.996" y1="9.35541" x2="214.215" y2="11.0031" gradientUnits="userSpaceOnUse">
<stop stop-color="#AE8625"/>
<stop offset="0.38" stop-color="#F7EF8A"/>
<stop offset="0.8" stop-color="#D2AC47"/>
<stop offset="1" stop-color="#EDC967"/>
</linearGradient>
<linearGradient id="paint5_linear_11_19858" x1="207.362" y1="9.37927" x2="207.581" y2="11.0269" gradientUnits="userSpaceOnUse">
<stop stop-color="#AE8625"/>
<stop offset="0.38" stop-color="#F7EF8A"/>
<stop offset="0.8" stop-color="#D2AC47"/>
<stop offset="1" stop-color="#EDC967"/>
</linearGradient>
<linearGradient id="paint6_linear_11_19858" x1="210.66" y1="8.0126" x2="211.115" y2="12.4049" gradientUnits="userSpaceOnUse">
<stop stop-color="#AE8625"/>
<stop offset="0.38" stop-color="#F7EF8A"/>
<stop offset="0.8" stop-color="#D2AC47"/>
<stop offset="1" stop-color="#EDC967"/>
</linearGradient>
<linearGradient id="paint7_linear_11_19858" x1="130.59" y1="8.35345" x2="130.895" y2="12.0285" gradientUnits="userSpaceOnUse">
<stop stop-color="#AE8625"/>
<stop offset="0.38" stop-color="#F7EF8A"/>
<stop offset="0.8" stop-color="#D2AC47"/>
<stop offset="1" stop-color="#EDC967"/>
</linearGradient>
<linearGradient id="paint8_linear_11_19858" x1="134.047" y1="9.65338" x2="134.19" y2="10.724" gradientUnits="userSpaceOnUse">
<stop stop-color="#AE8625"/>
<stop offset="0.38" stop-color="#F7EF8A"/>
<stop offset="0.8" stop-color="#D2AC47"/>
<stop offset="1" stop-color="#EDC967"/>
</linearGradient>
<linearGradient id="paint9_linear_11_19858" x1="170.987" y1="9.91171" x2="170.988" y2="10.5031" gradientUnits="userSpaceOnUse">
<stop stop-color="#AE8625"/>
<stop offset="0.38" stop-color="#F7EF8A"/>
<stop offset="0.8" stop-color="#D2AC47"/>
<stop offset="1" stop-color="#EDC967"/>
</linearGradient>
<linearGradient id="paint10_linear_11_19858" x1="4.69719" y1="7.36469" x2="5.16582" y2="13.0078" gradientUnits="userSpaceOnUse">
<stop stop-color="#AE8625"/>
<stop offset="0.38" stop-color="#F7EF8A"/>
<stop offset="0.8" stop-color="#D2AC47"/>
<stop offset="1" stop-color="#EDC967"/>
</linearGradient>
<linearGradient id="paint11_linear_11_19858" x1="10.0034" y1="9.35535" x2="10.2229" y2="11.003" gradientUnits="userSpaceOnUse">
<stop stop-color="#AE8625"/>
<stop offset="0.38" stop-color="#F7EF8A"/>
<stop offset="0.8" stop-color="#D2AC47"/>
<stop offset="1" stop-color="#EDC967"/>
</linearGradient>
<linearGradient id="paint12_linear_11_19858" x1="16.638" y1="9.37918" x2="16.8575" y2="11.0269" gradientUnits="userSpaceOnUse">
<stop stop-color="#AE8625"/>
<stop offset="0.38" stop-color="#F7EF8A"/>
<stop offset="0.8" stop-color="#D2AC47"/>
<stop offset="1" stop-color="#EDC967"/>
</linearGradient>
<linearGradient id="paint13_linear_11_19858" x1="13.3357" y1="8.01251" x2="13.7904" y2="12.4048" gradientUnits="userSpaceOnUse">
<stop stop-color="#AE8625"/>
<stop offset="0.38" stop-color="#F7EF8A"/>
<stop offset="0.8" stop-color="#D2AC47"/>
<stop offset="1" stop-color="#EDC967"/>
</linearGradient>
<linearGradient id="paint14_linear_11_19858" x1="93.4098" y1="8.35336" x2="93.715" y2="12.0284" gradientUnits="userSpaceOnUse">
<stop stop-color="#AE8625"/>
<stop offset="0.38" stop-color="#F7EF8A"/>
<stop offset="0.8" stop-color="#D2AC47"/>
<stop offset="1" stop-color="#EDC967"/>
</linearGradient>
<linearGradient id="paint15_linear_11_19858" x1="89.9526" y1="9.65329" x2="90.0952" y2="10.7239" gradientUnits="userSpaceOnUse">
<stop stop-color="#AE8625"/>
<stop offset="0.38" stop-color="#F7EF8A"/>
<stop offset="0.8" stop-color="#D2AC47"/>
<stop offset="1" stop-color="#EDC967"/>
</linearGradient>
<linearGradient id="paint16_linear_11_19858" x1="53.0123" y1="9.91162" x2="53.013" y2="10.503" gradientUnits="userSpaceOnUse">
<stop stop-color="#AE8625"/>
<stop offset="0.38" stop-color="#F7EF8A"/>
<stop offset="0.8" stop-color="#D2AC47"/>
<stop offset="1" stop-color="#EDC967"/>
</linearGradient>
<clipPath id="clip0_11_19858">
<rect width="224" height="18" fill="white"/>
</clipPath>
</defs>
</svg>
