<svg width="648" height="66" viewBox="0 0 648 66" fill="none" xmlns="http://www.w3.org/2000/svg">
<g clip-path="url(#clip0_11_19630)">
<path d="M287.113 66C287.113 66 287.773 65.8794 289.074 65.6481C289.725 65.5275 290.525 65.3968 291.486 65.2058C292.437 65.0047 293.547 64.8036 294.808 64.5222C295.429 64.3814 296.099 64.2306 296.79 64.0698C297.49 63.919 298.221 63.7179 298.981 63.5168C299.742 63.3158 300.553 63.1147 301.373 62.8533C301.783 62.7327 302.214 62.602 302.644 62.4713C302.864 62.4009 303.074 62.3406 303.295 62.2702C303.515 62.1998 303.735 62.1194 303.955 62.049C307.508 60.8627 311.511 59.1838 315.774 56.8314C320.057 54.5191 324.69 51.6841 329.844 48.7385C330.485 48.3564 331.155 48.0146 331.826 47.6527C332.166 47.4717 332.496 47.2908 332.836 47.1098C333.177 46.9188 333.527 46.768 333.877 46.5971C334.578 46.2653 335.288 45.9235 336.009 45.5918C336.739 45.2801 337.48 44.9785 338.22 44.6568C338.961 44.325 339.732 44.0737 340.502 43.7721C341.273 43.4906 342.053 43.189 342.854 42.9377C343.655 42.6763 344.455 42.4149 345.276 42.1535C346.096 41.9223 346.927 41.6911 347.768 41.4498C348.598 41.1985 349.459 41.0175 350.319 40.8064C350.75 40.7059 351.18 40.5953 351.62 40.4947C352.051 40.3841 352.501 40.3138 352.931 40.2233C353.812 40.0524 354.703 39.8614 355.603 39.7005C356.504 39.5598 357.415 39.409 358.335 39.2682C362.018 38.7555 365.851 38.4338 369.804 38.4036C373.757 38.3735 377.84 38.6751 381.963 39.4592C382.994 39.6301 384.044 39.8815 385.075 40.1931C386.106 40.5148 387.137 40.8969 388.117 41.4196C389.098 41.9424 390.059 42.5959 390.859 43.4705C391.24 43.9229 391.61 44.4155 391.86 44.9886C392.11 45.5516 392.271 46.1749 392.301 46.8082C392.321 47.4416 392.22 48.0649 392.05 48.658C391.85 49.2411 391.6 49.7941 391.28 50.3068C390.649 51.3322 389.829 52.1867 388.958 52.9608C388.077 53.7249 387.127 54.3985 386.146 55.0117L385.395 55.4541C385.145 55.6049 384.885 55.7255 384.635 55.8662C384.124 56.1377 383.614 56.4091 383.104 56.6806C381.012 57.696 378.831 58.5706 376.559 59.2643C374.287 59.9479 371.925 60.4204 369.524 60.722C367.122 61.0236 364.68 61.1342 362.218 61.104C359.756 61.0638 357.295 60.8829 354.813 60.6416C354.192 60.5813 353.572 60.5109 352.951 60.4405C352.331 60.3802 351.71 60.2897 351.09 60.2093C350.47 60.1289 349.839 60.0384 349.219 59.9479L348.278 59.8172L347.337 59.6563C346.717 59.5458 346.086 59.4352 345.456 59.3246L344.515 59.1537C344.195 59.1034 343.885 59.023 343.574 58.9627C342.944 58.832 342.324 58.6912 341.693 58.5605C341.063 58.4198 340.432 58.2992 339.812 58.1282C329.754 55.7255 319.737 51.7846 309.98 46.7177C305.096 44.1843 300.272 41.3895 295.499 38.3634C294.898 37.9814 294.308 37.6094 293.708 37.2274C293.107 36.8353 292.507 36.4432 291.926 36.0411C290.745 35.2369 289.584 34.4125 288.414 33.5881C286.092 31.9293 283.77 30.2504 281.408 28.6218C279.047 26.9931 276.645 25.3947 274.163 23.9369C271.681 22.4792 269.129 21.1119 266.457 20.0262L265.457 19.6241L264.446 19.2621L263.935 19.0812L263.425 18.9203L262.394 18.5986L261.354 18.3272C261.183 18.287 261.003 18.2367 260.833 18.1965L260.323 18.096C259.973 18.0256 259.622 17.9452 259.272 17.8848L258.211 17.734C256.8 17.5631 255.369 17.4827 253.958 17.6033L253.428 17.6335C253.248 17.6436 253.077 17.6737 252.897 17.7039L251.847 17.8547L250.816 18.0859C250.646 18.1261 250.465 18.1563 250.295 18.2065L249.785 18.3674C249.445 18.478 249.104 18.5685 248.774 18.6992L247.784 19.1013C247.123 19.3727 246.493 19.7045 245.862 20.0463C244.621 20.75 243.47 21.6046 242.45 22.5898C241.949 23.0824 241.459 23.6052 241.039 24.1682C240.598 24.7211 240.218 25.3142 239.878 25.9275C239.537 26.5407 239.257 27.1842 239.007 27.8477C238.787 28.5112 238.587 29.1948 238.467 29.8885C237.976 32.6632 238.437 35.5988 239.677 38.2227C239.978 38.8862 240.338 39.5196 240.718 40.1429C240.918 40.4545 241.119 40.7561 241.329 41.0577L241.989 41.9726C242.9 43.1689 243.901 44.2949 244.981 45.3404C247.143 47.4315 249.655 49.1908 252.367 50.5682C255.089 51.9455 258.011 52.9608 261.033 53.6344C264.056 54.308 267.168 54.6498 270.3 54.7202L271.481 54.7302L272.662 54.7202L273.843 54.68L275.024 54.5995L276.205 54.5191C276.595 54.4889 276.995 54.4789 277.385 54.4186C278.176 54.3281 278.957 54.2276 279.747 54.1371C282.89 53.6847 286.012 53.0212 289.094 52.1465C292.166 51.2417 295.209 50.156 298.191 48.8993C298.931 48.5776 299.682 48.2559 300.423 47.9342C301.163 47.5924 301.894 47.2405 302.634 46.8987C303.375 46.5569 304.095 46.1849 304.826 45.8129L305.917 45.26C306.277 45.079 306.637 44.878 306.997 44.687C309.899 43.1689 312.752 41.5202 315.594 39.8111C321.278 36.403 326.822 32.7939 332.436 29.3255C335.248 27.5963 338.07 25.8973 340.923 24.2787C343.785 22.6702 346.697 21.1321 349.639 19.7045C352.591 18.287 355.613 17.0203 358.666 15.8842C359.436 15.6128 360.207 15.3413 360.977 15.08C361.748 14.8186 362.528 14.5974 363.309 14.3461C363.699 14.2254 364.08 14.1048 364.48 13.9942L365.681 13.6825C366.081 13.582 366.491 13.5016 366.892 13.4111C367.292 13.3206 367.702 13.2503 368.103 13.1799C368.913 13.0291 369.724 12.9286 370.534 12.8079C371.345 12.7275 372.166 12.637 372.976 12.5867C373.787 12.5164 374.607 12.5063 375.418 12.4762C376.229 12.4762 377.039 12.4661 377.85 12.4963C378.66 12.5063 379.461 12.5666 380.272 12.6169C381.072 12.6873 381.883 12.7476 382.673 12.8481C383.474 12.9286 384.265 13.0592 385.065 13.1698C385.856 13.3106 386.646 13.4312 387.437 13.6021C389.008 13.9138 390.559 14.3059 392.1 14.7683C393.632 15.2207 395.143 15.7535 396.624 16.3567C398.105 16.9599 399.556 17.6436 400.947 18.4378C402.348 19.2219 403.699 20.1066 404.96 21.122C406.231 22.1273 407.412 23.2734 408.422 24.5904C408.673 24.9222 408.903 25.264 409.143 25.6058C409.363 25.9778 409.583 26.3397 409.784 26.7217L410.054 27.3249L410.184 27.6265C410.224 27.727 410.254 27.8376 410.284 27.9381L410.484 28.5715C410.544 28.7826 410.574 29.0038 410.614 29.225C410.714 29.6573 410.714 30.1097 410.754 30.5621C410.764 30.7832 410.734 31.0044 410.734 31.2356L410.714 31.5674C410.704 31.678 410.684 31.7886 410.664 31.8992L410.554 32.5526C410.504 32.7637 410.434 32.9749 410.384 33.186L410.294 33.4976L410.174 33.7992L409.934 34.4024C409.223 35.9607 408.212 37.2877 407.101 38.4539C405.981 39.61 404.76 40.6154 403.479 41.5101C402.208 42.4149 400.877 43.2091 399.516 43.933C398.155 44.6568 396.764 45.2902 395.343 45.8532C394.632 46.1346 393.902 46.386 393.171 46.6273C392.441 46.8585 391.67 47.0495 390.94 47.2103C390.199 47.3913 389.448 47.5119 388.708 47.6527C388.338 47.713 387.957 47.7633 387.587 47.8236L387.027 47.904L386.466 47.9643C384.975 48.1453 383.474 48.2157 381.993 48.276C379.021 48.3363 376.069 48.1755 373.166 47.8437C370.264 47.522 367.402 47.0495 364.59 46.4765C361.778 45.9135 359.006 45.26 356.274 44.5563C350.81 43.1589 345.486 41.5704 340.242 40.1328C338.931 39.7709 337.6 39.3889 336.299 39.0169C335.639 38.8259 334.998 38.6148 334.348 38.4137C333.697 38.2026 333.047 38.0116 332.406 37.7904C331.766 37.5692 331.125 37.348 330.485 37.1269L329.524 36.7951L328.583 36.4332C327.953 36.1919 327.322 35.9506 326.702 35.7194C326.081 35.4781 325.461 35.2067 324.841 34.9554C319.897 32.9246 315.203 30.5319 310.69 28.0588C306.177 25.5857 301.834 23.0221 297.53 20.5791C296.46 19.9659 295.389 19.3627 294.318 18.7595C293.788 18.4579 293.247 18.1563 292.727 17.8647C292.467 17.724 292.206 17.5832 291.936 17.4525C291.676 17.3218 291.406 17.1912 291.136 17.0605C288.984 16.0551 286.752 15.2408 284.501 14.5773C282.249 13.9238 279.977 13.4111 277.716 13.1196C276.585 12.9688 275.454 12.8682 274.333 12.8381C273.212 12.8079 272.102 12.8481 271.011 12.9889C269.92 13.1196 268.859 13.3508 267.868 13.7228C266.878 14.0947 265.957 14.6075 265.196 15.281C265.006 15.4519 264.816 15.6128 264.646 15.8239L264.376 16.1155C264.286 16.216 264.196 16.3065 264.126 16.4171C263.965 16.6282 263.795 16.8292 263.655 17.0404C263.515 17.2615 263.375 17.4726 263.235 17.6938C262.725 18.5785 262.384 19.5537 262.274 20.5389C262.164 21.5342 262.274 22.5395 262.554 23.5046C262.845 24.4698 263.295 25.3846 263.855 26.2291C264.986 27.9281 266.487 29.3456 268.119 30.542C269.76 31.7182 271.531 32.6934 273.362 33.4172C274.283 33.7791 275.204 34.1008 276.155 34.3421C276.395 34.4024 276.625 34.4728 276.865 34.5331C277.105 34.5934 277.345 34.6437 277.576 34.704C278.046 34.8146 278.526 34.9252 278.997 35.0056C282.799 35.7496 286.602 35.8702 290.245 35.5485C293.898 35.2369 297.39 34.4929 300.693 33.5378C304.005 32.5828 307.127 31.4065 310.08 30.17C313.032 28.9234 315.834 27.5963 318.486 26.2693C323.79 23.6152 328.543 20.9913 332.867 18.7293C337.19 16.4573 341.073 14.527 344.535 13.0592C347.998 11.5814 351.03 10.5861 353.522 9.97288C356.014 9.35963 357.975 9.1284 359.286 9.04797C359.616 9.02787 359.907 9.01781 360.147 8.99771C360.397 8.99771 360.607 8.98765 360.767 8.98765C361.097 8.98765 361.268 8.9776 361.268 8.9776C361.268 8.9776 361.097 8.9776 360.767 8.98765C360.597 8.98765 360.397 8.99771 360.147 9.00776C359.897 9.02787 359.606 9.04797 359.286 9.06808C357.975 9.17867 356.034 9.43 353.552 10.0734C351.07 10.7168 348.058 11.7523 344.635 13.2704C341.203 14.7784 337.35 16.7589 333.057 19.0812C328.763 21.4035 324.05 24.0777 318.766 26.8021C316.124 28.1593 313.332 29.5266 310.37 30.8134C307.408 32.1002 304.275 33.3267 300.933 34.322C297.6 35.3273 294.058 36.1215 290.335 36.4835C286.622 36.8454 282.719 36.765 278.806 36.0411C278.316 35.9607 277.826 35.8501 277.335 35.7395C277.095 35.6792 276.845 35.639 276.605 35.5787C276.365 35.5183 276.114 35.448 275.874 35.3877C274.894 35.1464 273.913 34.8247 272.952 34.4527C271.021 33.7087 269.169 32.7135 267.428 31.487C265.707 30.2404 264.086 28.7525 262.825 26.9027C262.204 25.9778 261.674 24.9624 261.334 23.8565C260.993 22.7506 260.843 21.5543 260.973 20.368C261.093 19.1817 261.484 18.0256 262.074 16.9901C262.224 16.7388 262.384 16.4874 262.544 16.2361C262.705 15.9948 262.895 15.7636 263.075 15.5223C263.165 15.4017 263.255 15.2911 263.355 15.1805L263.645 14.8487C263.835 14.6276 264.056 14.4164 264.286 14.2154C265.186 13.391 266.257 12.7878 267.378 12.3656C268.499 11.9333 269.66 11.6719 270.841 11.5211C272.011 11.3602 273.202 11.31 274.383 11.3301C275.564 11.3502 276.745 11.4507 277.926 11.5915C280.288 11.883 282.629 12.3957 284.951 13.0391C287.273 13.7027 289.574 14.517 291.836 15.5525C292.116 15.6832 292.397 15.8139 292.677 15.9546C292.957 16.0853 293.237 16.2361 293.517 16.3869C294.068 16.6784 294.588 16.98 295.139 17.2716C296.219 17.8647 297.29 18.4579 298.371 19.0711C302.694 21.4839 307.067 24.0174 311.561 26.4402C316.064 28.8631 320.697 31.1854 325.571 33.1458C326.182 33.387 326.792 33.6484 327.402 33.8797C328.023 34.1109 328.643 34.3421 329.264 34.5733L330.195 34.9151L331.135 35.2369C331.766 35.448 332.396 35.6691 333.027 35.8803C333.657 36.0914 334.298 36.2824 334.938 36.4835C335.579 36.6745 336.219 36.8856 336.859 37.0666C338.16 37.4285 339.441 37.8004 340.772 38.1523C346.066 39.5698 351.38 41.118 356.804 42.4752C359.516 43.1589 362.258 43.7822 365.02 44.325C367.792 44.8679 370.584 45.3103 373.417 45.6119C376.239 45.9235 379.091 46.0542 381.953 45.9838C383.374 45.9235 384.805 45.8532 386.226 45.6722L386.756 45.6119L387.287 45.5314L388.348 45.3706C389.048 45.2298 389.759 45.1193 390.449 44.9383C391.16 44.7774 391.82 44.6065 392.501 44.3854C393.171 44.1642 393.852 43.933 394.512 43.6615C395.843 43.1287 397.164 42.5255 398.435 41.8318C399.706 41.1482 400.947 40.3841 402.128 39.5497C403.299 38.7153 404.41 37.7904 405.39 36.765C406.361 35.7395 407.192 34.6035 407.742 33.3971C408.252 32.1806 408.493 30.8838 408.232 29.6372C408.202 29.4763 408.182 29.3255 408.132 29.1647L407.982 28.7022C407.962 28.6218 407.932 28.5514 407.912 28.471L407.812 28.2498L407.612 27.7974C407.452 27.5059 407.282 27.2143 407.112 26.9228C406.901 26.6413 406.711 26.3497 406.501 26.0682C405.64 24.9523 404.59 23.9369 403.439 23.0321C402.288 22.1273 401.047 21.313 399.746 20.5892C398.445 19.8553 397.084 19.2219 395.683 18.6589C394.282 18.0859 392.851 17.5832 391.39 17.161C389.929 16.7287 388.448 16.3567 386.947 16.0652C386.196 15.9043 385.435 15.7837 384.685 15.653C383.924 15.5424 383.164 15.4218 382.403 15.3514C381.643 15.2509 380.872 15.2006 380.102 15.1302C379.331 15.09 378.56 15.0297 377.79 15.0196C377.019 14.9895 376.249 14.9995 375.478 15.0096C374.708 15.0397 373.937 15.0498 373.166 15.1202C372.396 15.1604 371.625 15.2509 370.855 15.3313C370.094 15.4419 369.324 15.5324 368.563 15.6832C368.183 15.7535 367.802 15.8139 367.432 15.9043C367.062 15.9948 366.682 16.0652 366.301 16.1557L365.18 16.4472C364.81 16.5578 364.43 16.6784 364.05 16.789C363.299 17.0303 362.538 17.2414 361.798 17.5028C361.057 17.7642 360.307 18.0256 359.556 18.287C356.584 19.3928 353.652 20.6394 350.76 22.0268C347.878 23.4242 345.026 24.9322 342.203 26.5307C339.381 28.1392 336.589 29.8181 333.807 31.5372C328.233 34.9855 322.679 38.6047 316.945 42.0429C314.073 43.7621 311.18 45.4309 308.218 46.9892C307.848 47.1802 307.488 47.3813 307.107 47.5723L305.987 48.1353C305.236 48.5072 304.506 48.8893 303.745 49.2411C302.984 49.593 302.234 49.9549 301.483 50.2967C300.723 50.6285 299.952 50.9602 299.192 51.292C296.119 52.5788 292.987 53.7048 289.795 54.6297C286.602 55.5345 283.35 56.2181 280.077 56.6806C279.257 56.7811 278.436 56.8716 277.616 56.9721C277.205 57.0324 276.795 57.0425 276.385 57.0726L275.204 57.1832L273.973 57.2637L272.742 57.3039L271.511 57.3139L270.27 57.3039C266.978 57.2234 263.705 56.8615 260.493 56.1377C257.291 55.4139 254.158 54.3382 251.236 52.8402C248.314 51.3523 245.602 49.4321 243.25 47.15C242.079 46.014 240.988 44.7875 240.008 43.4806L239.297 42.4953C239.067 42.1636 238.837 41.8017 238.617 41.4599C238.186 40.7461 237.776 40.0222 237.436 39.2582C236.015 36.2422 235.454 32.7537 236.065 29.4361C236.205 28.6017 236.445 27.7974 236.715 27.0032C237.006 26.219 237.346 25.455 237.756 24.7211C238.166 23.9972 238.617 23.2935 239.137 22.6501C239.637 21.9966 240.198 21.3934 240.788 20.8204C241.979 19.6944 243.29 18.7293 244.691 17.9351C245.402 17.5531 246.102 17.1811 246.843 16.8795L247.964 16.4271C248.334 16.2864 248.724 16.1858 249.104 16.0551L249.675 15.8842C249.865 15.8239 250.065 15.7937 250.255 15.7435L251.426 15.4921L252.607 15.3313C252.807 15.3112 252.997 15.271 253.198 15.2609L253.788 15.2308C255.369 15.1101 256.95 15.2107 258.491 15.4017L259.642 15.5726C260.023 15.6429 260.403 15.7234 260.783 15.8038L261.354 15.9244C261.544 15.9647 261.724 16.025 261.914 16.0652L263.025 16.3567L264.116 16.6985L264.666 16.8695L265.206 17.0605L266.277 17.4525L267.328 17.8848C270.13 19.041 272.762 20.4685 275.304 21.9765C277.846 23.4946 280.278 25.1232 282.659 26.7921C285.041 28.4509 287.353 30.1599 289.655 31.8187C290.805 32.6532 291.956 33.4775 293.107 34.2717C293.688 34.6739 294.268 35.0559 294.848 35.448C295.429 35.83 296.029 36.202 296.62 36.584C301.333 39.6 306.087 42.4049 310.9 44.9383C320.507 50.0052 330.345 53.9561 340.222 56.3991C340.832 56.57 341.453 56.7007 342.073 56.8314C342.694 56.9721 343.304 57.1028 343.925 57.2436C344.235 57.3139 344.535 57.3843 344.845 57.4446L345.776 57.6155C346.397 57.7261 347.007 57.8468 347.617 57.9573L348.538 58.1282L349.459 58.2589C350.069 58.3494 350.69 58.4399 351.3 58.5304C351.911 58.6209 352.521 58.7113 353.142 58.7817C353.752 58.8521 354.362 58.9325 354.983 58.9928C357.425 59.2542 359.847 59.4553 362.238 59.5055C364.63 59.5558 367.002 59.4653 369.324 59.1939C371.645 58.9225 373.927 58.4902 376.119 57.8468C378.31 57.1933 380.422 56.3689 382.453 55.4038C382.954 55.1424 383.444 54.8911 383.944 54.6297C384.195 54.499 384.445 54.3784 384.685 54.2376L385.395 53.8254C386.336 53.2524 387.227 52.6291 388.037 51.9354C388.838 51.2417 389.589 50.4777 390.119 49.6131C390.399 49.1908 390.599 48.7385 390.759 48.276C390.9 47.8135 390.97 47.3511 390.97 46.8786C390.95 46.4161 390.839 45.9637 390.659 45.5314C390.479 45.0992 390.199 44.7071 389.889 44.3351C389.238 43.6113 388.418 43.0181 387.527 42.5356C386.636 42.053 385.676 41.681 384.705 41.3694C383.734 41.0577 382.743 40.8064 381.733 40.6355C377.71 39.8312 373.697 39.4894 369.804 39.4794C365.901 39.4693 362.118 39.7407 358.465 40.2132C357.555 40.3439 356.654 40.4847 355.753 40.6154C354.863 40.7561 353.982 40.9471 353.102 41.0979C352.661 41.1884 352.221 41.2487 351.791 41.3493C351.36 41.4498 350.93 41.5503 350.5 41.6408C349.649 41.8419 348.788 42.0128 347.968 42.2541C347.137 42.4752 346.306 42.6964 345.496 42.9176C344.685 43.1689 343.885 43.4202 343.094 43.6615C342.293 43.8928 341.523 44.1843 340.752 44.4557C339.982 44.7372 339.211 44.9886 338.481 45.3002C337.74 45.6018 337 45.9034 336.279 46.195C335.559 46.5167 334.858 46.8484 334.157 47.1701C333.807 47.341 333.457 47.4818 333.117 47.6627C332.776 47.8437 332.446 48.0146 332.106 48.1855C331.435 48.5374 330.775 48.8691 330.124 49.2411C324.941 52.1264 320.277 54.9011 315.944 57.1732C311.631 59.4754 307.588 61.1141 304.005 62.2602C303.785 62.3305 303.565 62.411 303.345 62.4813C303.124 62.5417 302.904 62.612 302.684 62.6723C302.254 62.793 301.824 62.9237 301.403 63.0343C300.573 63.2856 299.762 63.4666 298.991 63.6676C298.221 63.8586 297.49 64.0496 296.79 64.1904C296.089 64.3412 295.419 64.4819 294.798 64.6227C293.537 64.874 292.427 65.0751 291.466 65.2561C290.505 65.437 289.695 65.5476 289.044 65.6582C287.773 65.8894 287.113 66 287.113 66Z" fill="url(#paint0_linear_11_19630)"/>
<path d="M320.918 0.0502755C321.348 -0.110577 321.898 0.130702 322.409 0.713794C322.919 1.29689 323.359 2.25195 323.52 3.38798C323.61 3.95096 323.61 4.90603 323.45 5.97168C323.289 7.03733 322.929 8.20351 322.439 9.19879C321.958 10.1941 321.388 11.0385 320.908 11.6015C320.427 12.1645 320.067 12.4661 319.977 12.4159C319.797 12.3153 320.387 10.566 320.537 8.64586C320.627 7.68074 320.597 6.69552 320.497 5.85104C320.477 5.63992 320.447 5.43885 320.417 5.24784C320.387 5.05683 320.367 4.87587 320.327 4.70496C320.297 4.53405 320.267 4.3732 320.247 4.23245C320.217 4.09171 320.197 3.96101 320.177 3.85043C320.047 2.96574 320.027 2.12126 320.127 1.42758C320.227 0.754007 320.477 0.221182 320.918 0.0502755Z" fill="url(#paint1_linear_11_19630)"/>
<path d="M311.881 7.18814C312.111 7.20825 312.331 7.29873 312.531 7.41937C312.732 7.54001 312.912 7.69081 313.082 7.88182C313.422 8.25379 313.702 8.76651 313.902 9.38982C313.993 9.70147 314.093 10.2242 314.243 10.8274C314.383 11.4306 314.593 12.1042 314.863 12.6672C315.133 13.2302 315.464 13.6625 315.844 13.8535C316.214 14.0747 316.594 14.0646 316.634 14.1752C316.654 14.2154 316.594 14.3059 316.464 14.4165C316.394 14.4768 316.304 14.5271 316.194 14.5874C316.084 14.6376 315.944 14.6879 315.784 14.7181C315.464 14.7884 315.043 14.7683 314.633 14.6376C314.213 14.517 313.802 14.2958 313.432 14.0244C311.921 12.9386 310.96 11.1994 310.71 10.3851C310.46 9.56072 310.49 8.71625 310.74 8.11305C310.86 7.81145 311.04 7.56012 311.25 7.40932C311.431 7.22836 311.651 7.16804 311.881 7.18814Z" fill="url(#paint2_linear_11_19630)"/>
<path d="M329.564 9.0882C330.024 9.0882 330.455 9.35964 330.695 9.88241C330.945 10.3951 330.965 11.1692 330.665 11.9031C330.525 12.2751 330.155 12.818 329.634 13.3206C329.114 13.8233 328.433 14.2757 327.763 14.5471C327.092 14.8286 326.442 14.9493 325.961 14.9593C325.721 14.9694 325.521 14.9493 325.381 14.9191C325.241 14.889 325.161 14.8487 325.141 14.7985C325.081 14.6075 325.981 13.9138 326.562 12.9587C326.862 12.4963 327.092 11.9936 327.242 11.5714C327.392 11.1391 327.483 10.7973 327.553 10.5962C327.713 10.1941 327.993 9.87235 328.323 9.59086C328.673 9.30937 329.094 9.0882 329.564 9.0882Z" fill="url(#paint3_linear_11_19630)"/>
<path d="M19.0841 30.2203C2.44181 15.1202 0 30.1399 0 30.1399C3.39251 45.4812 19.0841 30.2203 19.0841 30.2203ZM4.46331 29.5065C4.81357 29.5065 5.09377 29.8282 5.09377 30.2303C5.09377 30.6325 4.80356 30.9542 4.4533 30.9441C4.10304 30.9341 3.82283 30.6224 3.82283 30.2203C3.82283 29.8282 4.11305 29.5065 4.46331 29.5065ZM6.24463 30.2102C13.8803 25.7264 14.9511 30.2504 14.9511 30.2504C13.3699 34.8549 6.24463 30.2102 6.24463 30.2102Z" fill="url(#paint4_linear_11_19630)"/>
<path d="M20.315 32.2812C21.2858 32.2812 22.0764 31.3965 22.0764 30.3007C22.0764 29.2049 21.2958 28.3102 20.3251 28.3001C19.3543 28.3001 18.5638 29.1848 18.5638 30.2806C18.5638 31.3865 19.3443 32.2812 20.315 32.2812Z" fill="url(#paint5_linear_11_19630)"/>
<path d="M33.785 32.3415C34.7557 32.3415 35.5463 31.4568 35.5463 30.361C35.5463 29.2652 34.7657 28.3705 33.795 28.3604C32.8243 28.3604 32.0337 29.2451 32.0337 30.3409C32.0337 31.4468 32.8143 32.3415 33.785 32.3415Z" fill="url(#paint6_linear_11_19630)"/>
<path d="M27.0601 35.5988C27.0601 35.5988 21.0556 30.3308 21.1157 30.3007C21.0656 30.2705 27.1001 25.0529 27.1001 25.0529C27.8006 26.772 33.0845 30.3409 33.0745 30.351C33.1546 30.4113 27.7706 33.8797 27.0601 35.5988Z" fill="url(#paint7_linear_11_19630)"/>
<path d="M195.975 30.2102C195.975 30.2102 194.384 20.4284 183.546 30.2706C183.546 30.2706 193.764 40.2032 195.975 30.2102ZM193.483 30.2706C193.483 30.5319 193.303 30.7431 193.073 30.7431C192.843 30.7431 192.663 30.5319 192.663 30.2806C192.663 30.0192 192.843 29.8081 193.073 29.8081C193.293 29.798 193.473 30.0092 193.483 30.2706ZM186.228 30.2907C186.228 30.2907 186.928 27.345 191.902 30.2605C191.902 30.2605 187.269 33.2865 186.228 30.2907Z" fill="url(#paint8_linear_11_19630)"/>
<path d="M182.745 31.6076C182.115 31.6076 181.604 31.0346 181.594 30.3208C181.594 29.607 182.105 29.0239 182.735 29.0239C183.366 29.0239 183.876 29.597 183.886 30.3107C183.886 31.0245 183.376 31.6076 182.745 31.6076Z" fill="url(#paint9_linear_11_19630)"/>
<path d="M181.595 29.6573H33.795V31.1573H181.595V29.6573Z" fill="url(#paint10_linear_11_19630)"/>
<path d="M628.916 30.2404C645.558 45.3405 648 30.3309 648 30.3309C644.607 14.9895 628.916 30.2404 628.916 30.2404ZM643.537 30.9642C643.186 30.9642 642.906 30.6425 642.906 30.2404C642.906 29.8383 643.196 29.5166 643.547 29.5266C643.897 29.5367 644.177 29.8483 644.177 30.2504C644.167 30.6425 643.887 30.9642 643.537 30.9642ZM641.755 30.2605C634.12 34.7443 633.049 30.2203 633.049 30.2203C634.63 25.6159 641.755 30.2605 641.755 30.2605Z" fill="url(#paint11_linear_11_19630)"/>
<path d="M627.685 28.1794C626.714 28.1794 625.924 29.0641 625.924 30.1599C625.924 31.2558 626.704 32.1505 627.675 32.1606C628.646 32.1606 629.436 31.2759 629.436 30.1801C629.436 29.0842 628.656 28.1895 627.685 28.1794Z" fill="url(#paint12_linear_11_19630)"/>
<path d="M614.215 28.1191C613.244 28.1191 612.454 29.0038 612.454 30.0996C612.454 31.1955 613.234 32.0902 614.205 32.1003C615.176 32.1003 615.966 31.2156 615.966 30.1197C615.966 29.0239 615.176 28.1292 614.215 28.1191Z" fill="url(#paint13_linear_11_19630)"/>
<path d="M620.94 24.8719C620.94 24.8719 626.944 30.1399 626.884 30.17C626.934 30.2002 620.9 35.4179 620.9 35.4179C620.199 33.6988 614.915 30.1298 614.925 30.1198C614.845 30.0595 620.229 26.5911 620.94 24.8719Z" fill="url(#paint14_linear_11_19630)"/>
<path d="M452.025 30.2504C452.025 30.2504 453.616 40.0323 464.454 30.1901C464.454 30.2002 454.236 20.2574 452.025 30.2504ZM454.517 30.2002C454.517 29.9388 454.697 29.7277 454.927 29.7277C455.157 29.7277 455.337 29.9388 455.337 30.1901C455.337 30.4515 455.157 30.6626 454.927 30.6626C454.707 30.6626 454.517 30.4616 454.517 30.2002ZM461.772 30.1801C461.772 30.1801 461.071 33.1257 456.098 30.2102C456.098 30.2102 460.731 27.1842 461.772 30.1801Z" fill="url(#paint15_linear_11_19630)"/>
<path d="M465.255 28.853C465.885 28.853 466.395 29.4261 466.405 30.1399C466.405 30.8536 465.895 31.4367 465.265 31.4367C464.634 31.4367 464.124 30.8637 464.114 30.1499C464.114 29.4361 464.624 28.8631 465.255 28.853Z" fill="url(#paint16_linear_11_19630)"/>
<path d="M614.205 29.4059H466.405V30.9059H614.205V29.4059Z" fill="url(#paint17_linear_11_19630)"/>
</g>
<defs>
<linearGradient id="paint0_linear_11_19630" x1="323.288" y1="8.9776" x2="325.936" y2="66.9968" gradientUnits="userSpaceOnUse">
<stop stop-color="#AE8625"/>
<stop offset="0.38" stop-color="#F7EF8A"/>
<stop offset="0.8" stop-color="#D2AC47"/>
<stop offset="1" stop-color="#EDC967"/>
</linearGradient>
<linearGradient id="paint1_linear_11_19630" x1="321.762" y1="0.00152588" x2="326.689" y2="10.309" gradientUnits="userSpaceOnUse">
<stop stop-color="#AE8625"/>
<stop offset="0.38" stop-color="#F7EF8A"/>
<stop offset="0.8" stop-color="#D2AC47"/>
<stop offset="1" stop-color="#EDC967"/>
</linearGradient>
<linearGradient id="paint2_linear_11_19630" x1="313.588" y1="7.18445" x2="314.89" y2="14.6801" gradientUnits="userSpaceOnUse">
<stop stop-color="#AE8625"/>
<stop offset="0.38" stop-color="#F7EF8A"/>
<stop offset="0.8" stop-color="#D2AC47"/>
<stop offset="1" stop-color="#EDC967"/>
</linearGradient>
<linearGradient id="paint3_linear_11_19630" x1="328.012" y1="9.0882" x2="328.852" y2="14.957" gradientUnits="userSpaceOnUse">
<stop stop-color="#AE8625"/>
<stop offset="0.38" stop-color="#F7EF8A"/>
<stop offset="0.8" stop-color="#D2AC47"/>
<stop offset="1" stop-color="#EDC967"/>
</linearGradient>
<linearGradient id="paint4_linear_11_19630" x1="9.54207" y1="23.4882" x2="10.8902" y2="37.1101" gradientUnits="userSpaceOnUse">
<stop stop-color="#AE8625"/>
<stop offset="0.38" stop-color="#F7EF8A"/>
<stop offset="0.8" stop-color="#D2AC47"/>
<stop offset="1" stop-color="#EDC967"/>
</linearGradient>
<linearGradient id="paint5_linear_11_19630" x1="20.3201" y1="28.3001" x2="20.9483" y2="32.2596" gradientUnits="userSpaceOnUse">
<stop stop-color="#AE8625"/>
<stop offset="0.38" stop-color="#F7EF8A"/>
<stop offset="0.8" stop-color="#D2AC47"/>
<stop offset="1" stop-color="#EDC967"/>
</linearGradient>
<linearGradient id="paint6_linear_11_19630" x1="33.79" y1="28.3604" x2="34.4183" y2="32.3199" gradientUnits="userSpaceOnUse">
<stop stop-color="#AE8625"/>
<stop offset="0.38" stop-color="#F7EF8A"/>
<stop offset="0.8" stop-color="#D2AC47"/>
<stop offset="1" stop-color="#EDC967"/>
</linearGradient>
<linearGradient id="paint7_linear_11_19630" x1="27.0953" y1="25.0529" x2="28.4027" y2="35.6441" gradientUnits="userSpaceOnUse">
<stop stop-color="#AE8625"/>
<stop offset="0.38" stop-color="#F7EF8A"/>
<stop offset="0.8" stop-color="#D2AC47"/>
<stop offset="1" stop-color="#EDC967"/>
</linearGradient>
<linearGradient id="paint8_linear_11_19630" x1="189.761" y1="25.8806" x2="190.639" y2="34.7526" gradientUnits="userSpaceOnUse">
<stop stop-color="#AE8625"/>
<stop offset="0.38" stop-color="#F7EF8A"/>
<stop offset="0.8" stop-color="#D2AC47"/>
<stop offset="1" stop-color="#EDC967"/>
</linearGradient>
<linearGradient id="paint9_linear_11_19630" x1="182.74" y1="29.0239" x2="183.146" y2="31.5942" gradientUnits="userSpaceOnUse">
<stop stop-color="#AE8625"/>
<stop offset="0.38" stop-color="#F7EF8A"/>
<stop offset="0.8" stop-color="#D2AC47"/>
<stop offset="1" stop-color="#EDC967"/>
</linearGradient>
<linearGradient id="paint10_linear_11_19630" x1="107.695" y1="29.6573" x2="107.697" y2="31.1867" gradientUnits="userSpaceOnUse">
<stop stop-color="#AE8625"/>
<stop offset="0.38" stop-color="#F7EF8A"/>
<stop offset="0.8" stop-color="#D2AC47"/>
<stop offset="1" stop-color="#EDC967"/>
</linearGradient>
<linearGradient id="paint11_linear_11_19630" x1="638.458" y1="23.489" x2="639.805" y2="37.1061" gradientUnits="userSpaceOnUse">
<stop stop-color="#AE8625"/>
<stop offset="0.38" stop-color="#F7EF8A"/>
<stop offset="0.8" stop-color="#D2AC47"/>
<stop offset="1" stop-color="#EDC967"/>
</linearGradient>
<linearGradient id="paint12_linear_11_19630" x1="627.68" y1="28.1794" x2="628.308" y2="32.1389" gradientUnits="userSpaceOnUse">
<stop stop-color="#AE8625"/>
<stop offset="0.38" stop-color="#F7EF8A"/>
<stop offset="0.8" stop-color="#D2AC47"/>
<stop offset="1" stop-color="#EDC967"/>
</linearGradient>
<linearGradient id="paint13_linear_11_19630" x1="614.21" y1="28.1191" x2="614.838" y2="32.0786" gradientUnits="userSpaceOnUse">
<stop stop-color="#AE8625"/>
<stop offset="0.38" stop-color="#F7EF8A"/>
<stop offset="0.8" stop-color="#D2AC47"/>
<stop offset="1" stop-color="#EDC967"/>
</linearGradient>
<linearGradient id="paint14_linear_11_19630" x1="620.905" y1="24.8719" x2="622.212" y2="35.4632" gradientUnits="userSpaceOnUse">
<stop stop-color="#AE8625"/>
<stop offset="0.38" stop-color="#F7EF8A"/>
<stop offset="0.8" stop-color="#D2AC47"/>
<stop offset="1" stop-color="#EDC967"/>
</linearGradient>
<linearGradient id="paint15_linear_11_19630" x1="458.239" y1="25.7957" x2="459.117" y2="34.6654" gradientUnits="userSpaceOnUse">
<stop stop-color="#AE8625"/>
<stop offset="0.38" stop-color="#F7EF8A"/>
<stop offset="0.8" stop-color="#D2AC47"/>
<stop offset="1" stop-color="#EDC967"/>
</linearGradient>
<linearGradient id="paint16_linear_11_19630" x1="465.26" y1="28.853" x2="465.665" y2="31.4233" gradientUnits="userSpaceOnUse">
<stop stop-color="#AE8625"/>
<stop offset="0.38" stop-color="#F7EF8A"/>
<stop offset="0.8" stop-color="#D2AC47"/>
<stop offset="1" stop-color="#EDC967"/>
</linearGradient>
<linearGradient id="paint17_linear_11_19630" x1="540.305" y1="29.4059" x2="540.307" y2="30.9353" gradientUnits="userSpaceOnUse">
<stop stop-color="#AE8625"/>
<stop offset="0.38" stop-color="#F7EF8A"/>
<stop offset="0.8" stop-color="#D2AC47"/>
<stop offset="1" stop-color="#EDC967"/>
</linearGradient>
<clipPath id="clip0_11_19630">
<rect width="648" height="66" fill="white"/>
</clipPath>
</defs>
</svg>
