<svg width="1238" height="14" viewBox="0 0 1238 14" fill="none" xmlns="http://www.w3.org/2000/svg">
<path d="M20.8579 6.5C40.2284 6.5 59.6148 6.5 78.9852 6.5C129.553 6.5 180.121 6.5 230.688 6.5C301.106 6.5 371.524 6.5 441.941 6.5C520.861 6.5 599.797 6.5 678.718 6.5C754.809 6.5 830.9 6.5 906.991 6.5C968.906 6.5 1030.81 6.5 1092.72 6.5C1129.11 6.5 1165.5 6.5 1201.9 6.5C1206.98 6.5 1212.06 6.5 1217.14 6.5C1219.62 6.5 1219.62 8 1217.14 8C1197.77 8 1178.39 8 1159.01 8C1108.45 8 1057.88 8 1007.31 8C936.894 8 866.477 8 796.059 8C717.139 8 638.203 8 559.282 8C483.191 8 407.1 8 331.009 8C269.094 8 207.194 8 145.279 8C108.888 8 72.4964 8 36.105 8C31.0226 8 25.9403 8 20.8579 8C18.3807 8 18.3807 6.5 20.8579 6.5Z" fill="url(#paint0_linear_11_19680)"/>
<path d="M20.3697 7.34348C2.60008 -6.88053 0 7.26006 0 7.26006C3.6151 21.7065 20.3697 7.34348 20.3697 7.34348ZM4.76914 6.67608C5.14455 6.67608 5.45043 6.98197 5.45043 7.35739C5.45043 7.7328 5.14455 8.03869 4.76914 8.03869C4.39372 8.03869 4.08784 7.7328 4.08784 7.35739C4.08784 6.96807 4.39372 6.66218 4.76914 6.67608ZM6.66009 7.34348C14.808 3.13051 15.962 7.3852 15.962 7.3852C14.2657 11.7094 6.66009 7.34348 6.66009 7.34348Z" fill="url(#paint1_linear_11_19680)"/>
<path d="M1217 7.35915C1234.77 21.5832 1237.37 7.44258 1237.37 7.44258C1233.75 -7.0039 1217 7.35915 1217 7.35915ZM1232.6 8.02656C1232.23 8.02656 1231.92 7.72066 1231.92 7.34525C1231.92 6.96984 1232.23 6.66394 1232.6 6.66394C1232.98 6.66394 1233.28 6.96984 1233.28 7.34525C1233.28 7.73457 1232.98 8.04046 1232.6 8.02656ZM1230.71 7.35915C1222.56 11.5721 1221.41 7.31744 1221.41 7.31744C1223.1 2.99323 1230.71 7.35915 1230.71 7.35915Z" fill="url(#paint2_linear_11_19680)"/>
<defs>
<linearGradient id="paint0_linear_11_19680" x1="619" y1="8" x2="619" y2="6.4706" gradientUnits="userSpaceOnUse">
<stop stop-color="#AE8625"/>
<stop offset="0.38" stop-color="#F7EF8A"/>
<stop offset="0.8" stop-color="#D2AC47"/>
<stop offset="1" stop-color="#EDC967"/>
</linearGradient>
<linearGradient id="paint1_linear_11_19680" x1="10.1848" y1="1" x2="11.307" y2="13.8534" gradientUnits="userSpaceOnUse">
<stop stop-color="#AE8625"/>
<stop offset="0.38" stop-color="#F7EF8A"/>
<stop offset="0.8" stop-color="#D2AC47"/>
<stop offset="1" stop-color="#EDC967"/>
</linearGradient>
<linearGradient id="paint2_linear_11_19680" x1="1227.18" y1="13.7026" x2="1226.06" y2="0.84922" gradientUnits="userSpaceOnUse">
<stop stop-color="#AE8625"/>
<stop offset="0.38" stop-color="#F7EF8A"/>
<stop offset="0.8" stop-color="#D2AC47"/>
<stop offset="1" stop-color="#EDC967"/>
</linearGradient>
</defs>
</svg>
