<svg width="29" height="15" viewBox="0 0 29 15" fill="none" xmlns="http://www.w3.org/2000/svg">
<path d="M13.7138 6.89365C24.5448 15.5562 26.1283 6.94331 26.1283 6.94331C23.9213 -1.86269 13.7138 6.89365 13.7138 6.89365ZM23.2261 7.30195C22.9998 7.30195 22.8123 7.11436 22.8123 6.88814C22.8123 6.66192 22.9998 6.47432 23.2261 6.47432C23.4523 6.47432 23.6399 6.66192 23.6399 6.88814C23.6399 7.11987 23.4523 7.30195 23.2261 7.30195ZM22.0674 6.89917C17.1016 9.47035 16.4009 6.8771 16.4009 6.8771C17.4326 4.23972 22.0674 6.89917 22.0674 6.89917Z" fill="url(#paint0_linear_11_423)"/>
<path d="M12.9145 5.70743C12.2855 5.70743 11.7724 6.21505 11.7669 6.84405C11.7669 7.47305 12.2745 7.98618 12.9035 7.9917C13.5325 7.9917 14.0456 7.48408 14.0511 6.85508C14.0511 6.22608 13.5435 5.71295 12.9145 5.70743Z" fill="url(#paint1_linear_11_423)"/>
<path d="M4.14764 5.67423C3.51864 5.67423 3.00551 6.18185 2.99999 6.81085C2.99999 7.43985 3.50761 7.95298 4.13661 7.9585C4.76561 7.9585 5.27874 7.45088 5.28426 6.82188C5.28977 6.18736 4.78216 5.67423 4.14764 5.67423Z" fill="url(#paint2_linear_11_423)"/>
<path d="M8.52811 3.80946C8.52811 3.80946 12.429 6.83307 12.3959 6.84963C12.429 6.86618 8.50052 9.85669 8.50052 9.85669C8.04808 8.86905 4.61065 6.82204 4.61617 6.81652C4.56099 6.78342 8.06464 4.79158 8.52811 3.80946Z" fill="url(#paint3_linear_11_423)"/>
<defs>
<linearGradient id="paint0_linear_11_423" x1="19.9211" y1="10.7566" x2="19.2374" y2="2.92458" gradientUnits="userSpaceOnUse">
<stop stop-color="#F5CB86"/>
<stop offset="1" stop-color="#7E5936"/>
</linearGradient>
<linearGradient id="paint1_linear_11_423" x1="12.909" y1="7.9917" x2="12.5892" y2="5.70743" gradientUnits="userSpaceOnUse">
<stop stop-color="#F5CB86"/>
<stop offset="1" stop-color="#7E5936"/>
</linearGradient>
<linearGradient id="paint2_linear_11_423" x1="4.14215" y1="7.9585" x2="3.82236" y2="5.67423" gradientUnits="userSpaceOnUse">
<stop stop-color="#F5CB86"/>
<stop offset="1" stop-color="#7E5936"/>
</linearGradient>
<linearGradient id="paint3_linear_11_423" x1="8.50582" y1="9.85669" x2="7.84277" y2="3.76308" gradientUnits="userSpaceOnUse">
<stop stop-color="#F5CB86"/>
<stop offset="1" stop-color="#7E5936"/>
</linearGradient>
</defs>
</svg>
