<svg width="29" height="15" viewBox="0 0 29 15" fill="none" xmlns="http://www.w3.org/2000/svg">
<path d="M15.4145 6.87954C4.58354 -1.78301 3 6.82988 3 6.82988C5.20702 15.6359 15.4145 6.87954 15.4145 6.87954ZM5.90223 6.47124C6.12845 6.47124 6.31604 6.65884 6.31604 6.88506C6.31604 7.11128 6.12845 7.29887 5.90223 7.29887C5.67601 7.29887 5.48841 7.11128 5.48841 6.88506C5.48841 6.65332 5.67601 6.47124 5.90223 6.47124ZM7.06091 6.87402C12.0267 4.30285 12.7274 6.89609 12.7274 6.89609C11.6957 9.53348 7.06091 6.87402 7.06091 6.87402Z" fill="url(#paint0_linear_11_415)"/>
<path d="M16.2138 8.06576C16.8428 8.06576 17.3559 7.55814 17.3614 6.92914C17.3614 6.30014 16.8538 5.78701 16.2248 5.78149C15.5958 5.78149 15.0827 6.28911 15.0771 6.91811C15.0771 7.54711 15.5848 8.06024 16.2138 8.06576Z" fill="url(#paint1_linear_11_415)"/>
<path d="M24.9807 8.09896C25.6097 8.09896 26.1228 7.59135 26.1283 6.96235C26.1283 6.33335 25.6207 5.82021 24.9917 5.8147C24.3627 5.8147 23.8496 6.32231 23.844 6.95131C23.8385 7.58583 24.3461 8.09896 24.9807 8.09896Z" fill="url(#paint2_linear_11_415)"/>
<path d="M20.6002 9.96373C20.6002 9.96373 16.6993 6.94012 16.7324 6.92357C16.6993 6.90701 20.6278 3.9165 20.6278 3.9165C21.0802 4.90414 24.5176 6.95115 24.5121 6.95667C24.5673 6.98978 21.0637 8.98161 20.6002 9.96373Z" fill="url(#paint3_linear_11_415)"/>
<defs>
<linearGradient id="paint0_linear_11_415" x1="9.20724" y1="3.0166" x2="9.89085" y2="10.8486" gradientUnits="userSpaceOnUse">
<stop stop-color="#F5CB86"/>
<stop offset="1" stop-color="#7E5936"/>
</linearGradient>
<linearGradient id="paint1_linear_11_415" x1="16.2193" y1="5.78149" x2="16.5391" y2="8.06576" gradientUnits="userSpaceOnUse">
<stop stop-color="#F5CB86"/>
<stop offset="1" stop-color="#7E5936"/>
</linearGradient>
<linearGradient id="paint2_linear_11_415" x1="24.9861" y1="5.8147" x2="25.3059" y2="8.09896" gradientUnits="userSpaceOnUse">
<stop stop-color="#F5CB86"/>
<stop offset="1" stop-color="#7E5936"/>
</linearGradient>
<linearGradient id="paint3_linear_11_415" x1="20.6225" y1="3.9165" x2="21.2855" y2="10.0101" gradientUnits="userSpaceOnUse">
<stop stop-color="#F5CB86"/>
<stop offset="1" stop-color="#7E5936"/>
</linearGradient>
</defs>
</svg>
