<svg width="30" height="31" viewBox="0 0 30 31" fill="none" xmlns="http://www.w3.org/2000/svg">
<g clip-path="url(#clip0_11_29478)">
<circle cx="15" cy="15.4111" r="15" fill="white"/>
<path fill-rule="evenodd" clip-rule="evenodd" d="M11.7018 7.45913C12.5549 7.41986 12.8269 7.41113 15 7.41113C17.1731 7.41113 17.4451 7.42059 18.2975 7.45913C19.1498 7.49768 19.7316 7.63368 20.2407 7.83077C20.7738 8.03222 21.2575 8.34713 21.6575 8.75441C22.0647 9.15368 22.3789 9.63659 22.5796 10.1704C22.7775 10.6795 22.9127 11.2613 22.952 12.1122C22.9913 12.9668 23 13.2388 23 15.4111C23 17.5842 22.9905 17.8562 22.952 18.7093C22.9135 19.5602 22.7775 20.142 22.5796 20.6511C22.3789 21.185 22.0642 21.6687 21.6575 22.0686C21.2575 22.4759 20.7738 22.79 20.2407 22.9908C19.7316 23.1886 19.1498 23.3239 18.2989 23.3631C17.4451 23.4024 17.1731 23.4111 15 23.4111C12.8269 23.4111 12.5549 23.4017 11.7018 23.3631C10.8509 23.3246 10.2691 23.1886 9.76 22.9908C9.22612 22.79 8.74241 22.4753 8.34255 22.0686C7.93555 21.6691 7.62059 21.1856 7.41964 20.6519C7.22255 20.1428 7.08727 19.561 7.048 18.71C7.00873 17.8555 7 17.5835 7 15.4111C7 13.238 7.00945 12.966 7.048 12.1137C7.08655 11.2613 7.22255 10.6795 7.41964 10.1704C7.62089 9.63665 7.93609 9.15318 8.34327 8.75368C8.74257 8.34677 9.2258 8.03182 9.75927 7.83077C10.2684 7.63368 10.8502 7.49841 11.7011 7.45913H11.7018ZM18.2327 8.89913C17.3891 8.86059 17.136 8.85259 15 8.85259C12.864 8.85259 12.6109 8.86059 11.7673 8.89913C10.9869 8.93477 10.5636 9.06495 10.2815 9.17477C9.90836 9.32022 9.64145 9.49259 9.36145 9.77259C9.09603 10.0308 8.89177 10.3452 8.76364 10.6926C8.65382 10.9748 8.52364 11.398 8.488 12.1784C8.44945 13.022 8.44145 13.2751 8.44145 15.4111C8.44145 17.5471 8.44945 17.8002 8.488 18.6439C8.52364 19.4242 8.65382 19.8475 8.76364 20.1297C8.89164 20.4766 9.096 20.7915 9.36145 21.0497C9.61964 21.3151 9.93455 21.5195 10.2815 21.6475C10.5636 21.7573 10.9869 21.8875 11.7673 21.9231C12.6109 21.9617 12.8633 21.9697 15 21.9697C17.1367 21.9697 17.3891 21.9617 18.2327 21.9231C19.0131 21.8875 19.4364 21.7573 19.7185 21.6475C20.0916 21.502 20.3585 21.3297 20.6385 21.0497C20.904 20.7915 21.1084 20.4766 21.2364 20.1297C21.3462 19.8475 21.4764 19.4242 21.512 18.6439C21.5505 17.8002 21.5585 17.5471 21.5585 15.4111C21.5585 13.2751 21.5505 13.022 21.512 12.1784C21.4764 11.398 21.3462 10.9748 21.2364 10.6926C21.0909 10.3195 20.9185 10.0526 20.6385 9.77259C20.3803 9.50718 20.066 9.30292 19.7185 9.17477C19.4364 9.06495 19.0131 8.93477 18.2327 8.89913ZM13.9782 17.8773C14.5488 18.1149 15.1843 18.1469 15.7759 17.968C16.3676 17.7891 16.8788 17.4103 17.2223 16.8964C17.5657 16.3825 17.72 15.7652 17.6589 15.1501C17.5978 14.535 17.3251 13.9602 16.8873 13.5239C16.6082 13.2449 16.2707 13.0314 15.8992 12.8985C15.5276 12.7657 15.1312 12.7168 14.7385 12.7556C14.3459 12.7943 13.9667 12.9196 13.6282 13.1225C13.2898 13.3254 13.0005 13.6008 12.7813 13.9288C12.5621 14.2569 12.4183 14.6295 12.3604 15.0198C12.3024 15.4101 12.3317 15.8084 12.4462 16.1861C12.5607 16.5637 12.7574 16.9112 13.0223 17.2037C13.2872 17.4961 13.6137 17.7262 13.9782 17.8773ZM12.0924 12.5035C12.4742 12.1217 12.9275 11.8188 13.4264 11.6121C13.9253 11.4055 14.46 11.2991 15 11.2991C15.54 11.2991 16.0747 11.4055 16.5736 11.6121C17.0725 11.8188 17.5258 12.1217 17.9076 12.5035C18.2895 12.8853 18.5924 13.3386 18.799 13.8375C19.0057 14.3364 19.112 14.8711 19.112 15.4111C19.112 15.9511 19.0057 16.4858 18.799 16.9847C18.5924 17.4836 18.2895 17.9369 17.9076 18.3188C17.1365 19.0899 16.0906 19.5232 15 19.5232C13.9094 19.5232 12.8635 19.0899 12.0924 18.3188C11.3212 17.5476 10.888 16.5017 10.888 15.4111C10.888 14.3206 11.3212 13.2746 12.0924 12.5035ZM20.024 11.9115C20.1186 11.8222 20.1944 11.7149 20.2468 11.5958C20.2992 11.4768 20.3271 11.3484 20.329 11.2184C20.3309 11.0883 20.3067 10.9592 20.2578 10.8386C20.2089 10.7181 20.1363 10.6086 20.0443 10.5166C19.9524 10.4246 19.8429 10.352 19.7223 10.3031C19.6018 10.2542 19.4727 10.23 19.3426 10.2319C19.2125 10.2338 19.0842 10.2618 18.9651 10.3142C18.8461 10.3666 18.7387 10.4423 18.6495 10.537C18.4759 10.721 18.3808 10.9654 18.3845 11.2184C18.3882 11.4713 18.4903 11.7129 18.6692 11.8917C18.8481 12.0706 19.0896 12.1728 19.3426 12.1764C19.5955 12.1801 19.84 12.0851 20.024 11.9115Z" fill="url(#paint0_linear_11_29478)"/>
</g>
<defs>
<linearGradient id="paint0_linear_11_29478" x1="15" y1="7.41113" x2="17.24" y2="23.4111" gradientUnits="userSpaceOnUse">
<stop stop-color="#F5CB86"/>
<stop offset="1" stop-color="#7E5936"/>
</linearGradient>
<clipPath id="clip0_11_29478">
<rect width="30" height="30" fill="white" transform="translate(0 0.411133)"/>
</clipPath>
</defs>
</svg>
