<svg width="250" height="400" viewBox="0 0 250 400" fill="none" xmlns="http://www.w3.org/2000/svg">
<g clip-path="url(#clip0_11_19777)">
<path d="M36.3818 71.9129C35.5955 71.4685 34.6042 71.3318 33.6812 71.4001C34.57 70.8532 35.493 70.7506 36.5185 71.2292C36.8946 71.4001 37.168 71.5711 37.4757 71.6394C37.3048 71.8104 37.2364 72.0838 37.168 72.3915C36.9629 72.2206 36.5869 72.0497 36.3818 71.9129Z" fill="url(#paint0_linear_11_19777)"/>
<path d="M33.4418 91.0226C33.6127 90.8859 33.8178 90.7833 33.9546 90.6466C33.9887 90.8859 34.0229 91.1252 34.1597 91.3987C34.1939 91.467 34.1938 91.5012 34.2622 91.5696C33.476 91.5012 32.5871 92.3217 31.9376 92.8686C32.0402 92.561 32.1769 92.2533 32.382 91.9456C32.6213 91.5354 33.0999 91.2961 33.4418 91.0226Z" fill="url(#paint1_linear_11_19777)"/>
<path d="M29.6129 81.6557C30.2282 81.3481 30.9803 81.519 31.5957 81.3139C31.4931 81.5874 31.4931 81.895 31.5273 82.2369C31.5273 82.3052 31.5615 82.4078 31.5615 82.4762C30.7752 82.2369 29.3736 82.4762 28.9976 82.5787C28.7583 82.6471 28.519 82.7155 28.2455 82.818C27.9379 82.9206 27.9378 83.0231 28.1429 82.7497C28.5532 82.2369 29.0659 81.895 29.6129 81.6557Z" fill="url(#paint2_linear_11_19777)"/>
<path d="M83.0784 33.523C82.8391 34.0016 82.5656 34.5144 82.2238 34.9246C81.8477 34.4802 81.6426 33.9333 81.4717 33.3863C81.3692 33.0786 81.3008 32.7368 81.2324 32.4291C81.9161 32.6684 82.634 32.771 83.3519 32.8393C83.2493 33.0786 83.181 33.3521 83.0784 33.523Z" fill="url(#paint3_linear_11_19777)"/>
<path d="M86.6681 32.8051C86.839 32.8051 87.0441 32.8051 87.2492 32.8051C87.3176 32.8051 87.3518 32.8051 87.4201 32.8051C87.5569 32.8051 87.6936 32.8051 87.8645 32.8393C87.9329 32.8393 87.9671 32.8393 88.0355 32.8393C88.2406 32.8735 88.4115 32.8735 88.6166 32.9076C88.9243 32.976 89.2661 33.0444 89.5738 33.1128C89.4371 33.6939 89.0268 34.1041 88.7192 34.5827C88.4457 34.9588 88.138 35.369 87.7278 35.6083C87.0099 34.8562 86.5313 33.7623 86.0869 32.8051C86.0869 32.8051 86.0869 32.8051 86.1211 32.8051C86.2578 32.8051 86.4629 32.8051 86.6681 32.8051Z" fill="url(#paint4_linear_11_19777)"/>
<path d="M92.992 34.7536C93.1629 34.8904 93.3339 35.0271 93.4706 35.1297C93.5048 35.1297 93.5048 35.1638 93.5048 35.1638C93.6415 35.3006 93.8125 35.4373 93.9492 35.6083C93.9492 35.6083 93.9492 35.6424 93.9492 35.6766C93.915 36.4629 92.4451 37.044 91.7272 37.3175C91.5221 36.4971 91.5904 35.9159 91.693 35.0955C91.7272 34.9245 91.8981 34.4118 91.9323 34.0699C92.3083 34.2408 92.6502 34.4801 92.992 34.7536Z" fill="url(#paint5_linear_11_19777)"/>
<path d="M105.538 26.4466C105.436 26.3782 105.333 26.3099 105.23 26.2415C106.769 26.6175 108.273 26.7884 109.777 25.7287C110.153 25.4894 110.358 25.1134 110.495 24.7031C110.529 24.5664 110.563 24.4297 110.598 24.3271C110.598 24.2246 110.632 24.0878 110.666 23.9853C110.7 23.2674 110.905 23.4383 111.35 24.498C111.726 26.1047 110.632 27.3696 109.333 28.0875C107.965 27.8824 106.7 27.1987 105.538 26.4466Z" fill="url(#paint6_linear_11_19777)"/>
<path d="M118.631 33.8649C117.161 32.7026 115.76 31.5745 113.982 30.8566C113.948 30.8566 113.88 30.8224 113.845 30.8224C114.256 30.6857 114.632 30.5148 114.939 30.2755C115.247 30.0362 115.52 29.7627 115.76 29.455C117.845 28.6688 120.648 31.1643 122.289 31.9506C123.11 32.3608 123.041 32.1215 122.187 32.7026C121.161 33.4889 119.93 34.07 118.631 33.8649Z" fill="url(#paint7_linear_11_19777)"/>
<path d="M46.5345 47.2654C46.5345 47.2654 46.5345 47.2996 46.5345 47.3338C45.8166 47.0603 44.8252 47.3338 44.0731 47.4364C44.7226 46.7527 45.6114 46.3424 46.5686 46.3082C46.5344 46.5475 46.5003 46.8552 46.5345 47.2654Z" fill="url(#paint8_linear_11_19777)"/>
<path d="M48.5515 38.138C48.1071 37.9329 47.6627 37.8303 47.1841 37.6936C47.8336 37.5227 48.4489 37.591 49.1326 37.7961C49.5087 37.8987 49.7822 38.138 50.124 38.2747C49.8505 38.514 49.6454 38.7191 49.5087 38.9584C49.2352 38.6508 48.9275 38.3089 48.5515 38.138Z" fill="url(#paint9_linear_11_19777)"/>
<path d="M32.587 81.0748C33.5442 80.6987 34.809 81.0748 35.7662 81.2115C36.5183 81.3482 37.3045 81.1089 38.0224 80.9038C38.877 80.6645 39.6633 80.1518 40.4154 79.7073C42.1588 78.6476 43.492 79.1262 45.2697 79.6048C45.3039 79.6048 45.338 79.5364 45.3039 79.5364C44.8936 79.3313 44.3809 79.0236 43.7997 78.7843C43.116 78.2374 42.6716 77.1776 42.1246 76.4598C41.6802 75.9128 41.0991 75.5026 40.4496 75.1949C39.6975 74.8189 38.2617 75.3658 37.7831 74.477C37.2361 73.4515 37.3729 72.1182 38.6036 71.8106C39.4924 71.5713 40.6547 72.084 41.3042 72.6994C41.817 73.2122 42.0563 73.93 42.5348 74.477C43.0476 75.0923 43.663 75.6735 44.2783 76.1863C45.2355 77.0067 46.2952 77.622 47.355 78.2716C48.1754 78.7843 49.3035 79.2629 50.2607 79.1604C49.577 78.9211 49.03 78.6134 48.7907 77.8955C48.5514 77.2118 48.1754 76.9042 47.5943 76.4598C47.184 76.1863 46.0901 75.2291 46.6029 74.6821C46.6713 74.6479 46.7055 74.6137 46.7396 74.5796C47.6968 73.93 49.2352 75.5709 49.6112 76.323C51.1495 79.2629 52.8588 80.8355 56.2089 81.2799C62.4648 82.1003 68.8233 79.7415 74.4638 76.9042C75.6945 76.6307 76.891 76.0837 77.9165 75.3658C80.3095 73.7591 80.9932 71.0585 83.7622 70.1697C82.4632 72.1182 82.4632 72.8703 82.8392 75.0582C83.1127 76.6649 84.7536 77.4169 85.3689 78.7843C85.6766 79.5022 85.1296 80.015 84.7536 80.562C84.2408 81.2799 83.7622 82.1687 83.8306 83.0917C83.8989 84.083 84.7878 85.0061 85.3005 85.7923C85.7449 86.476 86.1552 87.5699 86.1552 88.3904C86.1552 89.4501 85.5398 90.3731 84.9929 91.1594C85.2664 90.7492 84.275 84.1514 78.4293 84.5616C79.0446 85.6898 78.3609 87.0572 77.8482 88.0485C76.9593 89.7578 75.5236 91.5012 76.2073 93.5524C76.4466 94.3386 76.9594 95.0223 77.267 95.7744C77.4379 96.2188 77.5405 96.6974 77.438 97.176C77.5405 96.5948 76.4124 96.0137 76.0022 95.8769C75.3526 95.6718 74.7715 95.4325 74.1562 95.0907C72.8913 94.3386 72.1051 93.2789 71.7974 91.8431C71.5581 90.8175 71.2162 89.8262 70.6693 88.9032C70.43 88.4929 70.1907 88.1169 69.9856 87.7067C69.883 87.4674 69.7463 87.2623 69.5754 87.0914C69.4728 86.9888 68.9942 86.7837 68.9942 86.7153C69.3702 87.6383 69.6779 88.2195 69.4386 89.245C69.2677 90.0655 68.8233 90.7833 68.3789 91.5012C67.4559 92.8686 66.3277 94.2361 66.4645 95.9795C66.4645 96.2188 66.6696 96.5948 66.8405 96.7316C65.9517 95.9453 65.0971 95.5009 64.5843 94.3044C64.1399 93.313 64.2766 92.0824 64.1741 91.0226C64.0715 90.2706 63.5246 89.2108 63.1144 88.5955C63.046 89.1083 63.1827 89.5527 63.0118 90.0655C62.8409 90.5782 62.5674 91.0226 62.2939 91.4329C61.7128 92.2875 61.0632 93.1079 60.8239 94.1677C60.5505 95.3642 61.2 96.4239 61.7469 97.4495C60.3112 96.2188 58.2942 95.6376 57.8498 93.5865C57.508 91.9798 57.884 90.168 56.038 89.3476C56.6192 90.2364 56.7901 91.0227 56.2773 91.9798C55.8671 92.7661 55.2176 93.4156 55.115 94.3386C55.0466 94.9198 55.115 95.2958 55.3885 95.8086C55.4569 95.9795 55.5936 96.1162 55.6962 96.2188C56.0722 96.6974 56.2089 97.2102 56.2089 97.7913C55.5936 96.5265 53.816 96.1504 53.1323 94.783C52.5853 93.7233 52.8588 92.4242 52.3118 91.3987C52.0725 90.9543 51.7307 90.6124 51.3546 90.3048C51.1837 90.168 50.124 89.6894 50.0898 89.5185C50.1924 90.1338 50.3633 90.3731 50.124 91.0226C49.9189 91.5012 49.6112 91.9115 49.201 92.2533C48.3463 92.9712 47.4917 93.0054 46.5687 92.4584C47.1498 92.8003 47.7652 92.6977 48.2096 92.1849C48.7566 91.5696 48.7566 90.5099 48.654 89.7236C48.3805 87.9802 46.6713 87.1939 45.0646 87.4332C43.1844 87.7067 41.5435 88.8006 39.6975 89.0399C39.1505 89.1083 38.4668 89.1766 38.0224 89.5185C37.4754 89.9287 37.2703 90.6808 36.7576 91.1252C35.5611 92.1849 33.9886 91.2961 34.8774 89.792C35.5953 88.5613 37.1336 88.2195 38.4326 87.946C39.8342 87.6383 41.2358 86.852 42.193 85.7581C42.6032 85.3137 43.0818 84.7668 43.2186 84.1856C43.3211 83.8096 43.3553 83.4335 43.3553 83.0575C43.3553 82.784 43.1502 82.2029 43.2186 81.9636C43.0818 82.3738 43.0476 82.784 42.9451 83.1942C42.9451 83.2626 42.6032 83.9805 42.6032 83.9463C42.4665 83.5703 42.0905 83.3993 41.7486 83.1942C40.9623 82.7156 39.971 82.8182 39.0822 82.8524C38.3643 82.8866 37.5438 82.9549 36.8259 83.1259C36.3815 83.1942 35.9713 83.331 35.5611 83.5361C34.809 83.8096 33.6467 83.7754 32.8946 83.4335C31.9032 83.0575 31.2537 81.5875 32.587 81.0748Z" fill="url(#paint10_linear_11_19777)"/>
<path d="M174.832 31.6087C173.328 32.395 171.55 32.5659 170.183 33.5231C170.695 33.1812 173.396 33.7282 173.943 33.8991C175.447 34.3093 176.78 35.3007 178.319 35.7109C179.618 36.0528 180.848 36.2579 182.216 36.2237C182.045 36.2237 179.549 38.5825 178.968 38.9927C175.481 41.3515 171.584 41.5908 167.755 40.0183C165.636 39.1636 162.867 37.4202 160.747 39.0611C161.158 38.7534 162.696 42.1719 162.867 42.5821C163.072 43.0607 164.029 45.0093 164.645 44.9067C163.38 45.0777 162.286 44.9067 161.123 44.4623C159.961 44.0521 159.175 42.9924 158.047 42.5138C156.782 41.9326 155.585 42.001 154.321 42.6505L154.286 42.6847C154.252 42.6847 154.184 42.6847 154.15 42.6847C154.115 42.6847 154.115 42.7531 154.15 42.7531C156.201 43.1291 157.192 44.4282 158.696 45.6588C159.038 45.9323 159.756 46.1032 158.662 46.2741C157.466 46.4451 156.303 46.069 155.244 45.5904C154.389 45.2144 153.534 44.7016 152.646 44.394C151.757 44.0521 151.312 44.394 150.458 44.7016C152.099 45.1802 153.774 46.3425 154.184 48.1201C154.799 50.855 152.133 52.9061 149.671 53.077C151.552 52.0856 153.261 50.308 151.757 48.2227C149.774 45.4537 146.185 46.9237 143.928 48.3253C136.032 53.2137 132.852 63.2642 132.886 72.084C132.955 82.9207 137.878 92.0823 141.98 101.962C143.723 106.132 145.467 110.303 146.663 114.645C147.278 116.901 147.791 119.26 147.791 121.618C147.791 122.781 147.689 123.943 147.381 125.037C147.108 125.926 146.731 127.396 146.014 128.011C147.552 127.259 148.304 125.721 149.432 124.558C150.492 123.464 151.62 122.507 153.022 121.892C153.774 121.55 154.56 121.345 155.38 121.208C155.551 121.174 157.431 121.208 157.363 121.276C155.551 122.815 154.457 125.071 152.714 126.712C151.039 128.284 148.919 128.216 146.937 128.797C146.048 129.002 145.193 129.378 144.202 129.857C144.168 129.891 144.168 129.96 144.236 129.96C145.398 129.686 146.595 129.173 147.825 129.242C149.979 129.413 151.62 131.293 152.577 133.07C152.885 133.652 153.158 133.993 153.705 134.335C153.739 134.335 153.739 134.369 153.739 134.369C152.235 134.711 150.902 134.848 149.33 133.891C148.441 133.344 147.723 132.626 146.834 132.113C145.262 131.224 143.039 130.472 141.228 130.78C139.484 131.053 137.912 131.942 136.202 132.352C133.365 133.002 129.981 132.25 127.246 131.361C124.819 130.609 122.597 129.344 120.443 128.011C118.836 127.02 117.23 125.994 115.657 124.968C114.7 127.259 113.879 129.891 113.469 132.25C112.82 136.284 112.957 140.147 113.948 144.112C114.632 146.847 116.17 148.83 118.324 150.573C119.896 151.838 122.528 153.069 121.674 155.462C121.4 156.18 121.127 156.795 121.024 157.444C120.17 159.119 119.554 161.239 121.776 162.094C122.87 162.538 123.827 162.572 124.887 162.094C125.058 161.991 125.024 162.128 124.785 162.538C124.238 163.153 123.588 163.461 122.802 163.495C121.81 163.632 120.717 163.29 119.828 162.948C119.623 162.88 119.383 162.982 119.383 163.222C119.212 164.931 121.469 165.546 122.426 166.606C122.357 166.538 124.203 169.751 123.041 169.067C122.152 168.555 121.093 168.418 120.204 167.837C119.349 167.29 118.631 166.606 117.777 166.127C116.785 165.546 116.443 166.811 116.478 167.563C116.512 169.443 118.187 170.742 119.828 171.255C119.315 171.324 118.768 171.255 118.289 171.221C117.332 171.118 116.478 169.649 115.486 169.956C114.461 170.23 114.29 172.11 114.153 173.033C113.914 174.537 114.016 176.349 115.144 177.477C116.17 178.503 117.606 178.844 117.742 180.519C117.811 181.374 118.118 182.297 117.572 183.049C117.059 183.801 115.931 184.04 115.555 183.015C115.179 181.989 116.102 179.767 115.11 179.049C113.743 178.024 111.931 178.4 110.393 178.058C108.683 177.648 107.008 176.725 105.231 176.588C103.897 176.486 102.564 177.203 101.368 177.716C99.8978 178.332 98.0859 178.297 96.6844 179.049C95.9665 179.46 96.1032 179.357 95.522 179.836C94.9067 180.348 93.8812 181.511 92.9923 181.408C92.1719 181.306 91.3515 180.348 91.7617 179.562C92.1719 178.776 93.3342 177.716 94.0521 177.238C95.4879 176.28 97.3339 177.101 98.8038 176.007C100.103 175.084 101.128 173.511 101.47 171.973C101.436 172.178 100.65 172.725 100.479 172.896C100.171 173.17 99.9319 173.272 99.5559 173.375C98.7013 173.614 97.8808 173.648 96.992 173.682C95.4195 173.751 93.1633 173.135 91.7959 174.127C91.0096 174.674 90.0524 175.631 89.0952 174.947C88.0013 174.195 88.9585 173.101 89.7448 172.52C90.6678 171.836 91.8984 170.708 93.1975 171.118C95.8639 171.973 98.7355 170.674 100.684 168.862C100.718 168.828 100.684 168.794 100.65 168.794C100.308 168.965 99.9319 169.136 99.6243 169.307C97.4022 168.349 96.1374 165.444 93.6077 165.17C93.0607 165.102 92.4796 165.273 92.001 165.512C91.4882 165.786 91.1122 166.196 90.531 166.23C89.4371 166.298 88.685 165.068 89.4371 164.213C90.155 163.393 91.3856 163.085 92.4112 162.846C93.7786 162.538 94.7016 162.641 95.522 163.769C96.4109 164.999 97.6073 165.649 98.9406 166.298C100.137 166.88 101.402 167.803 102.804 167.597C104.376 167.358 106.085 165.888 106.94 164.623C110.358 159.666 112.068 155.12 111.316 150.573C111.281 152.009 110.324 153.923 110.051 155.291C109.846 153.821 109.538 153.24 108.923 151.804C107.316 148.078 96.1374 137.446 94.4965 133.822C93.0607 130.677 94.9751 127.259 96.1716 124.353C97.3681 121.447 98.9406 118.131 98.8722 114.918C98.7696 109.483 94.2914 106.611 90.0866 104.013C87.0783 102.167 84.7879 100.116 82.6 97.381C80.6173 94.9197 78.7713 92.8002 78.4294 89.621C79.2841 89.1424 79.3525 86.7836 80.002 86.5785C80.4464 86.4417 81.1301 86.6127 81.5061 86.8178C82.6342 87.4673 83.7282 88.6296 84.3093 89.7919C84.9588 91.0909 84.7537 92.1849 84.3435 93.4497C84.9588 92.8344 85.6083 92.4584 86.1211 91.6721C86.5655 90.9542 86.9074 90.0654 86.9757 89.2108C87.0441 88.4587 87.0099 87.4673 86.7023 86.7494C86.3604 85.9632 85.7793 85.2795 85.3691 84.4932C85.1981 84.1513 85.0956 83.6728 85.0956 83.2967C86.0528 83.2625 87.2834 82.7156 88.0013 82.066C88.6508 81.4507 89.0611 80.4935 89.3687 79.6731C89.8815 78.2031 89.7448 76.4939 90.0866 74.9213C90.3601 73.759 90.8387 71.7763 92.1719 71.2977C91.7275 72.4942 92.5138 73.4172 93.2658 74.2718C94.0521 75.1264 94.6674 75.9127 95.1118 77.0066C95.7272 78.5108 95.7272 80.9379 94.6332 82.2712C95.3853 81.7926 96.24 81.4849 96.9578 80.8354C97.8808 80.0491 98.5303 79.2287 99.0773 78.1689C99.6585 77.0408 99.6585 75.9811 99.6926 74.7162C99.6926 73.7932 99.5217 72.5967 99.7952 71.7079C100.069 72.6993 100.958 73.2463 101.675 73.8616C102.393 74.4427 102.974 75.1264 103.35 75.9469C104.103 77.5878 103.863 79.7073 103.932 81.4507C104.034 83.4676 104.205 85.4504 104.479 87.4331C104.991 91.3986 105.88 95.3299 107.042 99.1586C107.692 101.278 108.444 103.363 109.265 105.415C112.991 114.542 119.657 126.438 130.015 129.002C133.98 129.994 138.014 129.823 141.33 127.225C144.168 125.003 145.262 121.276 145.262 117.824C145.262 112.935 135.109 90.92 134.254 88.3561C133.502 86.1341 131.382 85.1085 129.571 83.8779C128.511 83.16 127.998 82.2028 127.485 81.0405C127.417 80.9037 127.007 79.9466 127.485 80.2884C127.759 80.4935 128.203 80.6645 128.511 80.8354C129.502 81.314 130.528 81.5875 131.451 82.2028C132.169 82.6814 132.647 83.5702 133.126 84.2881C132.75 82.3054 131.519 80.9038 129.639 80.0833C128.34 79.5022 127.793 78.2715 126.87 77.3485C127.417 77.5536 127.964 77.6903 128.511 77.8613C129.673 78.2031 130.357 79.3654 131.109 80.22C131.109 80.2542 130.972 79.2629 130.938 79.1261C130.835 78.6133 130.699 78.1347 130.528 77.6562C130.152 76.7332 129.605 75.8785 128.75 75.3999C128.374 75.1606 127.998 75.0581 127.554 74.9555C127.998 74.8872 128.442 74.9555 128.853 75.0239C130.596 75.2974 131.587 76.699 132.442 78.0664C132.545 76.4255 131.861 74.5453 131.69 72.9044C131.519 71.2293 131.417 69.5543 131.451 67.9134C131.519 65.5888 131.827 63.2642 132.579 61.0422C132.886 60.085 133.297 59.162 133.707 58.2732C135.587 54.2051 138.869 50.6157 142.253 47.7441C148.441 42.5138 156.372 39.4371 163.311 35.4033C168.166 32.6001 173.157 28.1218 170.524 22.071C168.713 17.9346 163.824 16.2595 160.406 19.3704C162.354 15.8835 166.559 15.4049 170.08 16.5672C172.473 17.3535 174.148 18.926 174.627 21.4899C174.832 22.5496 174.695 23.6094 174.387 24.6349C174.114 25.5579 173.396 26.4467 173.328 27.4381C173.704 27.4039 173.943 26.7886 174.148 26.5151C174.49 26.0707 174.832 25.6263 175.208 25.2161C176.028 24.3614 176.985 23.6094 178.079 23.0966C179.583 22.3445 181.361 22.2078 182.968 21.7292C181.532 23.917 180.506 26.3442 178.797 28.3611C177.601 29.7969 176.302 30.8566 174.832 31.6087Z" fill="url(#paint11_linear_11_19777)"/>
<path d="M148.611 123.977C148.201 124.524 147.825 125.139 147.449 125.789C148.133 124.387 148.372 122.746 148.372 121.071C148.44 120.49 148.543 119.943 148.714 119.362C149.158 118.131 150.15 117.14 150.765 115.978C150.765 115.978 151.107 115.226 151.107 115.294C151.346 116.149 151.517 116.969 151.62 117.858C151.756 119.089 151.517 120.388 150.936 121.481C150.355 122.473 149.295 123.054 148.611 123.977Z" fill="url(#paint12_linear_11_19777)"/>
<path d="M88.2404 164.316C88.2062 164.623 88.2062 164.897 88.2404 165.136C87.7276 165.033 87.0097 165.307 86.5653 165.444C86.0525 165.615 85.5397 165.82 85.0612 166.127C85.8474 165.102 86.9755 164.623 88.2404 164.316Z" fill="url(#paint13_linear_11_19777)"/>
<path d="M51.389 140.01C51.389 140.283 51.4232 140.557 51.4574 140.796C50.9446 140.728 50.2951 141.036 49.919 141.206C49.4405 141.412 48.9619 141.651 48.5516 141.959C49.2012 140.967 50.2267 140.42 51.389 140.01Z" fill="url(#paint14_linear_11_19777)"/>
<path d="M46.6031 74.0666C46.0904 73.041 45.3725 72.2206 44.3127 71.8104C45.3725 71.742 46.4322 72.289 46.9108 73.2803C47.0134 73.4854 47.0817 73.6906 47.2185 73.8615C47.0134 73.8957 46.8083 73.964 46.6031 74.0666Z" fill="url(#paint15_linear_11_19777)"/>
<path d="M85.4376 175.939C86.053 174.913 86.8392 174.127 87.7964 173.409C87.728 173.614 87.728 173.819 87.728 174.024C87.728 174.161 87.7622 174.298 87.7964 174.4C86.976 174.879 86.1897 175.392 85.4376 175.939Z" fill="url(#paint16_linear_11_19777)"/>
<path d="M51.7307 149.274C51.7307 149.411 51.7649 149.513 51.799 149.65C51.047 150.129 50.3633 150.676 49.7137 151.257C50.1923 150.231 50.9102 149.445 51.7307 148.693C51.6965 148.864 51.6965 149.069 51.7307 149.274Z" fill="url(#paint17_linear_11_19777)"/>
<path d="M90.9755 180.041C91.0097 180.417 91.2148 180.759 91.4883 181.032C90.8046 181.169 89.8474 182.126 89.1979 182.776C89.4372 182.092 89.779 181.477 90.2234 180.861C90.4627 180.554 90.7362 180.314 90.9755 180.041Z" fill="url(#paint18_linear_11_19777)"/>
<path d="M63.3195 45.4538C62.4991 46.3084 61.7128 47.163 61.6103 48.3595C61.6103 48.3937 61.6445 48.4279 61.6787 48.3937C62.3966 46.787 64.0716 46.3084 64.9263 44.8384C65.3365 44.1206 65.61 43.4369 65.8493 42.6506C66.0544 41.9327 65.9518 39.7449 66.9774 39.5739C67.2167 38.6851 67.1141 37.6596 66.7723 36.9417C67.4218 37.6937 67.4901 38.6851 67.4901 39.6423C67.5585 39.6765 67.5927 39.6765 67.6611 39.7107C68.0371 39.8816 68.3106 40.4286 68.1055 41.7618C67.9346 42.8215 67.3876 43.8129 66.8406 44.7017C66.2937 45.5905 65.5758 46.4793 65.3707 47.5391C64.8579 50.1713 66.0885 52.872 67.3192 55.1624C68.6182 57.6237 70.4301 59.8116 72.5496 61.6234C74.3614 63.1617 76.5151 64.9393 78.908 65.4179C77.9508 66.6486 77.0962 67.9476 76.139 69.1783C75.4211 70.1013 74.6007 70.9218 73.6777 71.6055C72.3103 72.5285 69.9173 73.1438 68.8576 71.3662C68.3448 70.5115 68.9259 69.3492 69.7122 68.9048C69.5754 68.939 68.9943 69.1441 68.379 69.5885C68.3106 69.6569 68.208 69.7253 68.1397 69.7595H68.1055C64.9946 69.1099 64.1742 72.3575 63.3195 74.5454C63.1486 74.9898 62.9093 75.4 62.6359 75.8102C62.7042 75.7077 62.5333 75.2633 62.4649 75.1265C62.0547 74.2719 61.5077 73.554 61.1317 72.6994C60.6189 71.4345 60.995 69.8962 61.5419 68.6997C61.8154 68.0502 62.1915 67.4007 62.67 66.8537C62.841 66.6486 63.9691 65.623 64.2426 65.7598C63.1145 65.2128 61.371 65.9991 60.4822 66.717C59.9694 67.1272 59.525 67.64 59.1489 68.1528C58.978 68.4262 58.1234 69.5543 58.226 69.862C57.6448 68.2211 58.3627 65.8282 59.7643 64.5975C61.0291 64.1873 62.1573 63.2985 62.8751 62.1362C62.8751 62.102 62.841 62.102 62.841 62.102C61.8154 63.3668 60.5506 63.9822 58.978 64.324C58.3285 64.4608 57.679 64.4949 57.0295 64.4608C56.7902 64.4608 56.1748 64.1189 56.0039 64.1873C57.4739 63.8112 58.7729 62.854 59.6617 61.6576C60.448 60.5978 61.4394 59.0937 61.3368 57.7263C60.9266 59.4697 58.602 60.4611 57.0637 60.9397C56.1748 61.2132 55.1835 61.5892 54.534 62.3071C53.7819 63.1275 52.6196 64.5291 53.8845 65.7256C51.2522 65.1103 51.9701 62.3755 53.0982 60.7688C53.8503 59.709 54.91 58.9228 55.9697 58.2049C57.0978 57.4186 58.8755 55.8461 58.7729 54.3077C57.9183 55.4017 56.8586 55.3675 55.5595 55.5726C54.8758 55.6752 54.1921 55.8461 53.5426 56.0512C53.3033 56.1196 51.6966 56.7007 51.7308 56.9742C51.4231 54.9573 54.8416 54.1026 55.8672 52.9745C56.6192 52.1541 56.3116 50.6499 56.0039 49.6586C55.6279 48.5646 54.8758 47.6758 53.8161 47.1972C53.0298 46.8896 52.3461 46.7528 51.5257 46.7528C50.7052 46.7528 49.8164 47.0605 49.0301 47.1972C48.4832 47.2998 47.7311 47.71 47.3209 47.2314C46.9448 46.787 46.9448 46.0007 47.2525 45.5222C47.7311 44.8384 48.825 45.0777 49.5429 44.8726C50.1241 44.7359 50.7394 44.3599 51.3547 44.3257C52.2777 44.2573 53.0982 44.9068 54.0554 44.8384C54.3972 44.8043 54.9784 44.4282 55.286 44.5308C55.6963 44.6333 55.6963 45.2487 55.7646 45.5563C56.1065 44.7017 55.7988 43.2317 55.3544 42.4455C54.9442 41.6934 54.2605 41.0781 53.4742 40.7704C53.8844 40.8046 54.2263 40.8388 54.534 40.9413C54.5681 40.9413 54.6023 40.9071 54.5681 40.873C53.987 40.4969 53.44 40.1551 52.7221 39.9842C51.9359 39.779 49.6796 40.326 50.2266 38.6509C50.6368 37.4544 51.8333 37.7963 52.517 38.48C53.4059 39.3688 55.1493 39.0611 56.2774 39.6081C56.8927 39.9158 57.2688 40.4627 57.8157 40.8388C58.1234 41.0439 58.5336 41.3174 58.9097 41.3174C58.8071 41.796 58.7387 42.2746 58.6362 42.7873C58.7387 42.3087 59.3882 41.8985 59.525 41.3516C59.6275 40.873 59.525 40.1893 59.4566 39.7107C59.3541 39.0953 59.0122 38.5826 58.6362 38.104C58.1918 37.5228 57.679 37.181 56.9953 36.8733C56.4483 36.634 55.7646 36.2921 55.833 35.6084C55.833 35.4033 55.9697 35.1298 56.1749 34.8906C56.0039 34.9931 55.8672 35.1298 55.7304 35.3008C55.3886 34.5145 54.6365 34.0359 53.8845 33.6257C54.534 33.6599 55.1493 33.8308 55.7304 34.241C55.9697 34.3778 56.1407 34.5829 56.3116 34.6854C56.5167 34.4803 56.756 34.3094 56.9611 34.3094C57.9183 34.2068 58.4994 35.711 58.8413 36.3947C59.525 37.6596 60.8582 38.4458 61.0633 39.9842C61.371 41.9669 61.9863 43.9154 63.3195 45.4538Z" fill="url(#paint19_linear_11_19777)"/>
<path d="M117.435 183.801C117.606 184.314 117.708 184.793 117.674 185.408C117.64 186.16 117.367 186.878 116.991 187.527C117.025 186.536 117.127 184.929 116.58 184.177C116.956 184.109 117.23 183.972 117.435 183.801Z" fill="url(#paint20_linear_11_19777)"/>
<path d="M61.166 144.522C60.5164 144.112 60.0378 143.531 59.4225 143.087C58.5337 142.369 57.5082 141.651 56.3117 141.617C55.7989 141.617 55.2519 141.822 54.8075 142.095C54.3631 142.369 54.0213 142.813 53.4743 142.882C52.4487 143.018 51.6283 141.924 52.2778 141.07C52.8932 140.249 54.0213 139.839 54.9785 139.531C56.2433 139.155 57.1321 139.019 58.0551 139.976C60.2771 142.266 63.8666 143.531 65.1656 143.223C66.6356 142.882 67.9688 141.241 68.8234 140.078C69.9516 138.574 70.6353 136.762 71.2164 134.985C71.7634 133.275 72.0711 131.566 72.0711 129.754C72.0369 127.156 70.7378 124.592 70.8745 122.029C70.9771 120.319 72.1394 119.601 73.3017 118.576C74.1905 117.79 74.8059 117.892 75.9682 117.858C77.5407 117.858 83.7966 117.243 85.4033 116.798C87.7279 116.183 90.0866 115.362 92.3087 114.508C93.3342 114.132 94.2914 113.585 95.2144 113.004C95.6588 112.662 95.5905 111.705 96.069 111.363C97.0604 113.004 97.539 114.952 97.0946 117.516C96.3084 121.926 92.924 126.302 92.5822 130.883C89.8815 129.994 87.5569 129.481 84.6854 129.686C84.07 129.72 83.0445 129.891 82.0873 130.233C80.6515 130.746 79.3867 131.669 80.1046 133.105C80.5148 133.993 81.5062 134.096 82.2924 133.72C81.6771 134.267 80.9592 134.54 79.9678 134.404C79.079 134.267 78.1218 133.891 77.2672 134.404C78.0193 134.438 78.4637 135.361 78.6346 135.6C79.0448 136.147 79.3525 136.797 80.002 137.104C80.7199 137.446 81.5403 137.617 82.224 138.027C82.6001 138.232 83.8307 139.36 82.8394 138.779C82.224 138.437 81.3352 138.813 80.7199 139.019C79.3525 139.497 76.3784 139.36 76.1391 137.446C76.1391 138.301 76.2416 138.54 76.7544 139.224C77.3014 139.942 78.0876 140.454 78.6004 141.309C79.0448 142.027 79.3525 142.916 80.002 143.428C79.9678 143.428 79.9336 143.428 79.8994 143.428C78.6346 143.599 76.2416 142.984 76.0365 141.446C76.2416 143.223 77.5407 145.651 79.1474 146.608C79.4209 146.779 79.7627 146.847 80.0704 146.881C79.6602 146.847 78.8739 147.086 78.3611 147.086C76.857 147.018 75.934 146.334 74.9084 145.309C74.8742 145.274 74.8059 145.343 74.84 145.377C75.3528 146.197 75.8314 146.881 76.6519 147.257C76.6177 148.488 76.3442 150.266 77.3697 151.257C78.5662 152.419 80.1046 152.385 80.3781 154.197C80.4806 154.846 80.7541 155.53 80.5832 156.18C80.7541 156.624 80.8908 157.068 80.925 157.581C80.9592 158.299 80.7541 159.017 80.4464 159.632C80.4122 158.88 80.378 157.786 80.0704 157C79.5576 157.41 78.8397 157.479 78.4979 156.761C78.0535 155.804 78.7372 153.65 77.78 153.035C76.3784 152.18 74.7375 152.693 73.2333 152.453C71.5924 152.214 69.9174 151.462 68.2423 151.496C66.9774 151.53 65.781 152.282 64.687 152.864C63.3538 153.581 61.6104 153.684 60.3797 154.504C59.7302 154.949 59.8669 154.846 59.32 155.359C58.773 155.906 57.8842 157.068 57.0637 157.034C56.3458 157.034 55.5596 156.316 55.6963 155.598C55.081 155.838 54.2947 156.727 53.782 157.376C53.9529 156.727 54.2264 156.111 54.6024 155.496C54.8075 155.188 55.0468 154.949 55.2519 154.641C55.3203 154.949 55.4912 155.222 55.7305 155.462C55.7305 155.427 55.7305 155.393 55.7305 155.393C56.0724 154.607 57.0637 153.513 57.7133 153C59.0123 151.975 60.7899 152.59 62.089 151.462C63.2171 150.471 64.0717 148.932 64.311 147.428C64.2768 147.633 63.5931 148.18 63.4222 148.351C63.1487 148.625 62.9436 148.761 62.5675 148.898C61.7813 149.206 60.995 149.274 60.1746 149.411C58.6704 149.616 56.5168 149.206 55.2861 150.231C54.6024 150.812 53.7478 151.77 52.7906 151.223C51.6967 150.573 52.5171 149.479 53.2008 148.864C54.0213 148.146 55.1152 146.95 56.3458 147.257C58.9439 147.838 61.542 146.403 63.2513 144.488C63.2855 144.454 63.2171 144.42 63.1829 144.42C62.465 144.933 62.0206 145.069 61.166 144.522Z" fill="url(#paint21_linear_11_19777)"/>
<path d="M85.3348 68.9048C84.5486 69.2808 83.7965 70.8875 83.5914 71.3661C83.2495 72.3233 83.0444 73.383 83.2153 74.4086C83.3179 74.9556 83.523 75.5025 83.8649 75.9469C84.446 76.7332 85.1981 77.4169 85.7792 78.2373C86.3262 79.0578 86.5655 79.6731 86.6339 80.6645C86.6681 81.0063 86.4971 81.6559 86.4288 81.9977C87.2834 81.6217 87.8645 80.9722 88.1722 80.0492C88.3773 79.4338 88.4799 78.7843 88.5824 78.1348C88.7192 77.246 88.8559 76.323 89.0268 75.4342C89.1978 74.5112 89.4029 73.5882 89.7447 72.7335C90.0524 72.0156 90.36 71.2294 91.0096 70.7508C91.283 70.5457 91.5565 70.3406 91.8642 70.238C92.3086 70.0671 92.753 70.1696 93.1974 70.3064C93.3342 70.3406 93.5051 70.3748 93.6418 70.4089C93.3684 70.3406 92.9239 70.6824 92.753 70.8875C92.6163 71.0585 92.5479 71.2978 92.5479 71.5029C92.5479 71.9473 92.7188 72.4259 92.924 72.8019C93.4367 73.7933 94.0863 74.6479 94.77 75.5367C94.9751 75.8102 95.2827 76.1179 95.4195 76.4255C95.7955 77.1776 96.2741 80.0492 95.5562 80.5619C97.2655 79.4338 98.6329 78.1348 98.8038 75.9128C98.9064 74.6479 98.5645 73.2805 98.7354 72.0498C98.9064 70.9217 99.385 69.2466 100.889 69.5885C100.684 69.7252 100.513 70.2722 100.479 70.5115C100.445 70.7166 100.479 70.9559 100.547 71.161C100.718 71.6054 100.992 71.9473 101.402 72.2207C102.12 72.7335 102.872 73.1438 103.692 73.4856C104.376 73.7933 105.162 73.9642 105.709 74.477C106.94 75.6393 106.427 77.622 107.35 78.9552C107.213 78.2715 107.589 77.4853 107.863 76.8016C109.162 73.5882 106.974 72.5284 105.778 69.9987C105.025 68.4262 105.231 67.093 105.949 65.5205C106.769 63.7086 108.888 62.8198 109.572 60.9054C109.675 60.6662 109.743 60.4269 109.709 60.1876C109.709 59.8799 109.675 59.7773 109.504 59.3329C109.743 59.538 109.982 59.9141 110.153 60.2217C110.324 60.5636 110.461 60.9055 110.564 61.3157C110.734 62.1019 110.666 62.8882 110.564 63.6403C110.495 64.0847 110.427 64.5633 110.358 65.0077C110.085 66.6828 110.222 68.5629 111.657 69.7594C112.82 70.7508 115.725 71.537 116.888 70.0329C116.443 70.3064 115.896 70.4773 115.52 70.4089C113.914 70.1696 113.093 68.6313 112.751 67.2297C112.307 65.3837 113.777 63.5377 114.973 62.3412C115.862 61.4524 116.683 60.4269 117.161 59.2304C117.606 58.1023 117.742 56.8716 117.435 55.7093C117.264 54.9572 117.127 54.6154 116.614 53.5556C116.922 53.6582 117.264 54 117.435 54.2393C117.606 54.4445 117.742 54.6837 117.845 54.923C118.118 55.4016 118.289 55.9144 118.494 56.393C118.871 57.3502 119.212 58.4099 120.067 59.0595C120.58 59.4697 121.195 59.6406 121.845 59.6748C123.862 59.7773 126.015 58.9569 126.665 56.8374C127.348 54.6154 126.152 52.701 123.998 52.4275C125.844 53.1454 125.195 57.5211 121.913 56.4272C119.657 55.6751 119.657 52.5643 120.067 50.9576C120.648 48.7013 121.537 46.1374 120.511 43.8812C119.896 42.548 118.973 41.249 117.708 40.4285C117.127 40.0525 116.614 39.8132 115.931 39.8474C115.623 39.8474 115.315 39.8816 115.008 39.9841C114.802 40.0867 114.461 40.4627 114.256 40.4627C114.495 40.4285 115.349 40.3601 115.725 40.5653C115.76 40.5994 115.349 41.3515 115.281 41.4199C115.008 41.7276 114.632 41.9327 114.29 42.0694C113.606 42.3429 112.751 42.4454 112.068 42.2062C113.127 42.5822 113.469 43.5394 114.392 44.0863C115.042 44.4966 115.828 44.9068 116.614 44.77C116.307 44.8042 115.76 45.3854 115.452 45.5221C115.042 45.7272 114.632 45.864 114.187 45.9323C113.23 46.1033 112.239 45.9665 111.316 45.7272C110.358 45.4879 109.333 44.8384 108.307 45.0435C109.401 45.5563 110.29 46.9579 110.393 47.2997C110.632 48.1202 110.324 51.0259 111.76 50.9234C111.521 50.9917 111.384 51.1969 111.076 51.231C109.982 51.402 109.128 50.855 108.273 50.2397C107.76 49.8294 107.179 49.5218 106.632 49.1799C106.051 48.8381 105.128 48.1886 104.444 48.2227C103.658 48.2911 104.786 49.4876 104.991 49.7953C105.538 50.8208 105.265 51.8806 105.265 52.9745C105.265 53.8291 104.889 54.547 104.479 55.2649C104.273 55.6067 104.034 55.9486 103.761 56.2563C103.658 56.3588 102.94 56.9058 102.94 57.0083C102.94 56.3246 103.248 55.6751 103.282 54.9914C103.35 53.5556 102.974 52.2224 101.778 51.3336C100.684 50.5132 100.103 49.9662 99.761 51.6071C99.5217 52.7352 99.1457 54.3419 99.761 55.4016C100.103 55.9486 100.616 56.3246 100.992 56.8032C100.411 56.8374 99.8294 56.769 99.2482 56.6323C98.1201 56.3246 97.1629 55.6751 96.4108 54.7863C95.4878 53.6924 96.069 52.3592 96.0006 51.0943C95.9664 50.0004 95.0776 48.5304 93.8811 48.3937C95.7271 48.5988 96.0348 49.9662 96.5134 51.4703C96.7185 52.1199 96.7869 52.9403 97.0946 53.5214C97.7099 54.5812 98.462 54.7863 98.9064 54.8889C98.3252 53.7949 98.2227 52.701 98.3252 51.5045C98.3594 51.1627 99.4875 48.5988 99.2824 48.4962C100.342 49.1457 101.402 49.7953 102.359 50.5815C103.179 51.2652 103.624 52.2224 104.034 53.248C104.308 52.701 104.342 52.0515 104.342 51.6755C104.376 51.1285 104.273 50.5473 104.103 50.0346C103.795 49.009 103.111 48.0518 101.949 47.9834C102.496 47.539 103.385 47.4365 104 47.3681C104.855 47.2997 105.709 47.539 106.495 47.8125C107.521 48.1886 108.273 49.009 109.333 49.385C108.478 49.0432 108.478 47.4707 108.068 46.7528C107.589 45.9323 106.666 44.941 105.88 45.0093C106.872 43.3343 109.777 44.5307 111.145 44.7359C111.965 44.8726 112.717 44.77 113.538 44.5991C112.58 44.5649 112.204 43.5736 111.452 43.095C110.529 42.548 109.709 42.6164 108.717 42.8215C108.888 42.4113 109.367 42.001 109.709 41.7617C110.153 41.4883 110.7 41.4541 111.179 41.4199C112.17 41.3857 113.367 41.6934 114.29 41.1806C113.674 41.2148 112.991 40.8046 112.375 40.6678C111.657 40.5311 111.11 40.6678 110.393 40.6678C111.316 39.9157 112.786 39.8816 113.879 39.3688C115.042 38.8218 116.067 38.0356 116.99 37.1126C117.606 36.4972 118.187 35.8477 118.802 35.1982C119.11 34.8905 116.717 33.0787 116.478 32.9078C114.871 31.7797 113.059 31.1643 111.11 31.0618C110.256 31.0276 109.606 31.2327 108.786 30.8567C108.102 30.549 107.384 30.1046 107.042 29.3867C108.41 30.3439 109.88 30.3781 111.452 30.173C112.922 30.002 114.495 29.6944 115.281 28.2928C115.794 27.3698 116.102 25.7973 115.76 24.8059C115.349 23.6778 114.632 23.2334 113.64 22.6864C115.076 23.4727 115.486 25.7289 113.811 27.0963C112.136 28.4637 110.187 28.9765 108.068 28.4637C105.914 27.9509 104.342 26.3442 102.325 25.5238C100.992 25.011 95.7271 24.1564 94.4965 24.3273C93.1974 24.5324 92.2402 25.558 90.9412 25.8314C89.4371 26.1391 87.9671 25.8998 86.5313 25.387C84.2067 24.6008 81.8138 23.4385 80.2071 26.0365C79.3524 27.4381 79.3182 29.1816 80.3438 30.5148C81.7112 32.2583 83.2837 31.7113 85.2323 31.7455C88.685 31.8138 91.3172 32.395 93.9495 34.788C95.6246 36.2921 97.0946 38.5483 96.4792 40.5311V40.5653C96.2741 41.249 95.7955 41.8985 95.0093 42.4796C95.0434 42.4454 95.0434 42.4113 95.0776 42.3771C94.8041 42.5822 94.4965 42.7189 94.223 42.8557C93.0607 43.4368 91.6249 43.095 90.1549 42.4796C90.1549 42.4796 90.155 42.4796 90.1208 42.4796C90.0524 42.4454 89.984 42.4113 89.9498 42.4113C89.2319 42.1036 88.514 41.7276 87.8303 41.3857C87.1808 41.078 86.5313 40.7704 85.9502 40.5311C85.8134 40.4969 85.6767 40.4285 85.5058 40.3943C84.2409 40.0183 82.771 39.6764 81.4377 39.8132C80.754 39.8816 79.2841 40.326 79.2157 41.2148C79.1131 42.4796 81.2326 42.6506 81.7454 43.6077C82.3265 44.6675 81.7454 46.0691 80.6173 46.4793C79.2499 46.9579 77.7799 46.4793 76.7885 47.7783C75.4895 49.4192 76.2757 51.1627 77.9508 51.9831C79.4892 52.7352 79.831 54.2393 79.455 55.2307C81.0275 54.2735 80.1729 52.6326 79.7627 51.5387C79.6259 51.1627 79.7627 50.479 80.002 50.1713C81.0617 48.8381 82.6342 48.1202 84.3435 48.462C85.5399 48.7013 86.839 49.6243 88.0013 49.6927C89.2661 49.7611 89.2661 48.6671 89.7447 47.9834C89.8131 47.9151 89.8815 47.8467 89.9498 47.7783C89.984 47.7441 90.0524 47.71 90.1208 47.6758C90.1208 47.6758 90.1549 47.6758 90.1549 47.6416C90.2233 47.6074 90.3259 47.6074 90.3942 47.5732C90.4284 47.5732 90.4284 47.5732 90.4284 47.5732C90.4968 47.5732 90.5652 47.5732 90.6336 47.5732C91.0096 47.5732 91.4198 47.6758 91.6933 47.8467C91.9668 48.0176 92.2403 48.3253 92.4454 48.6671C93.7786 49.932 94.4965 51.9831 92.9581 53.5214C92.2402 54.2393 91.454 54.7863 90.5994 55.1965C88.4115 56.5639 85.6083 56.769 83.0786 57.1109C81.301 57.3502 79.3866 57.5895 77.6774 58.2732C76.7202 58.6492 75.0793 59.7773 74.7374 60.8029C74.9767 60.7003 75.216 60.5978 75.4553 60.5294C76.8227 60.085 78.3269 59.8115 79.7968 59.9483C80.2412 59.9141 80.6515 59.9141 81.0617 59.9824C82.2924 60.1192 83.4546 60.5978 84.6853 60.8713C85.7451 61.1106 86.7706 60.8371 87.7962 60.4952C88.7534 60.1534 89.3345 59.4013 90.1549 58.8885C89.0268 61.0764 87.215 61.4182 85.0613 62.1703C84.3435 62.4438 83.6939 62.7856 83.0786 63.23C82.4291 63.6744 81.7112 63.9479 81.13 64.4949C79.8994 65.6572 78.8738 67.0588 77.8825 68.4604C76.4467 70.4773 74.7716 72.9045 72.2419 73.6907C70.3959 74.2377 69.1311 74.2035 68.2764 72.2891C68.1055 71.9131 68.2764 71.2294 68.379 70.8875C65.8835 73.3489 69.2336 76.4939 72.3103 76.6306C73.3358 76.6648 74.3614 76.4939 75.2844 76.1862C75.7288 75.9811 76.1732 75.8102 76.5834 75.6051C77.3013 75.229 77.985 74.7505 78.6003 74.1693C79.4208 73.383 80.1045 72.4259 80.7882 71.537C81.5061 70.6482 82.2923 69.7252 83.3521 69.2125C84.0358 68.8706 84.6169 68.8022 85.3348 68.9048ZM110.085 32.395C111.657 31.9506 113.777 32.771 115.179 33.4206C115.213 33.4206 115.179 33.4547 115.179 33.4547C113.264 33.0103 111.384 32.7027 109.88 34.2752C109.264 34.9247 108.991 35.711 108.752 36.5314C108.478 35.164 108.376 32.8736 110.085 32.395ZM96.7527 29.626C96.5818 29.4551 96.3767 29.2158 96.3083 28.9765C96.2399 28.703 96.445 28.5321 96.4108 28.2928C96.4108 27.9851 96.5476 28.1218 96.2057 28.0193C95.8639 27.9167 95.2486 28.0877 94.9067 28.1218C93.7102 28.2244 92.6163 27.8825 91.6591 27.1988C93.2658 27.8825 95.1118 26.9937 96.7185 26.6861C98.2568 26.3784 100.103 26.31 101.573 27.0963C102.154 27.404 102.53 27.9167 102.872 28.4637C103.214 29.0107 103.624 29.4893 103.932 30.0704C103.966 30.1388 103.863 30.173 103.829 30.1388C102.872 29.1132 101.846 28.5663 100.787 28.2244C100.923 28.7714 100.308 29.4893 99.8635 29.7286C99.5559 29.8995 99.214 30.002 98.838 30.0704C98.1201 30.2071 97.2996 30.1046 96.7527 29.626Z" fill="url(#paint22_linear_11_19777)"/>
<path d="M99.795 28.2584C99.9318 28.4293 99.8634 28.6344 99.5216 28.8737C99.0088 29.1814 97.8123 29.113 97.3337 28.8054C97.0602 28.6344 96.9919 28.19 96.7184 28.0191C97.5046 27.9507 98.2909 27.9166 99.1113 27.9849C99.3506 27.9507 99.6583 28.0875 99.795 28.2584Z" fill="url(#paint23_linear_11_19777)"/>
<path d="M193.875 329.464C194.456 330.695 195.481 331.72 196.473 332.541L196.644 332.678C197.396 333.293 198.148 333.977 199.002 334.353C199.857 334.729 200.677 334.797 201.498 334.797C204.164 333.054 207.275 331.926 210.728 331.481C214.215 331.037 217.668 331.105 221.052 331.721C219.24 329.157 216.608 328.883 215.719 328.781C215.582 328.781 215.48 328.746 215.411 328.746C213.258 328.234 210.865 328.199 207.891 328.678C207.241 328.781 206.626 328.883 205.976 329.02C202.045 329.704 197.908 330.387 193.875 329.464Z" fill="url(#paint24_linear_11_19777)"/>
<path d="M125.675 219.627C125.47 218.704 125.265 217.781 125.094 216.892C124.957 216.174 124.82 215.491 124.65 214.773C124.581 214.534 124.615 214.328 124.65 214.158C124.718 213.987 124.855 213.884 124.991 213.816C125.299 213.713 125.88 213.782 127.624 215.081L127.692 215.149C129.23 216.209 130.837 216.653 132.546 217.132C131.999 215.217 130.017 213.166 126.769 211.183C126.051 210.773 125.299 210.363 124.581 209.987C122.428 208.893 120.205 207.731 118.838 205.475C116.684 201.953 116.377 197.475 117.915 192.484C116.787 193.168 115.796 194.672 115.249 196.039C115.18 196.21 115.112 196.381 115.078 196.552C114.36 198.911 114.121 201.338 114.291 203.799C114.462 206.056 114.804 208.414 116.137 210.431C116.513 211.013 116.958 211.559 117.368 212.072L117.607 212.38C118.052 212.79 118.701 213.44 119.453 214.226C121.299 216.174 124.103 219.08 125.675 219.627Z" fill="url(#paint25_linear_11_19777)"/>
<path d="M150.323 233.814C148.614 238.258 147.964 241.779 148.306 244.993C148.511 247.044 149.058 248.855 149.605 250.77C149.913 251.83 150.22 252.958 150.494 254.086C150.528 254.223 150.528 254.359 150.494 254.496C150.63 254.94 150.801 255.419 150.938 255.898C151.246 253.641 151.793 251.454 152.613 249.334C153.126 248.035 153.741 246.736 154.425 245.539C154.459 245.471 157.091 241.266 158.767 239.625C158.049 239.831 157.126 240.309 156.408 240.685C155.143 241.335 154.596 241.608 154.254 241.403C154.117 241.335 154.049 241.198 154.049 241.027C153.981 239.967 154.152 238.942 154.562 237.882C155.143 236.412 156.134 235.079 157.057 233.814C158.014 232.549 158.972 231.25 159.553 229.78C159.724 229.37 159.826 228.925 159.929 228.515C160.749 224.516 160.339 219.559 156.784 217.166C156.647 219.046 156.203 220.892 155.416 222.943C154.733 224.755 153.844 226.498 152.955 228.208C152.75 228.618 152.545 229.028 152.34 229.438C152.34 229.438 152.34 229.472 152.34 229.507C152.306 229.541 152.306 229.609 152.306 229.643C152.271 229.78 152.203 229.883 152.1 229.951C151.622 230.908 151.006 232.207 150.494 233.54L150.323 233.814Z" fill="url(#paint26_linear_11_19777)"/>
<path d="M150.733 228.994L150.767 228.926C151.827 226.191 152.237 214.978 151.383 212.243C150.049 207.902 148.614 203.765 146.323 200.381C144.067 197.065 139.828 193.612 135.316 194.775C133.777 195.185 132.547 196.279 131.931 197.783C131.624 198.569 131.521 199.458 131.624 200.313C131.794 201.851 132.239 202.877 132.888 203.355C133.299 203.663 133.811 203.731 134.427 203.56C135.11 203.389 135.521 203.082 135.692 202.637C135.999 201.817 135.486 200.586 135.145 199.868C134.94 199.39 134.837 199.185 134.905 198.979L134.94 198.877L135.076 198.809C136.683 197.92 138.426 197.817 140.238 198.467C144.648 200.039 148.203 205.509 149.4 208.585C151.827 214.773 151.861 222.362 149.537 231.25C149.605 231.148 149.673 231.045 149.708 230.943C150.084 230.225 150.46 229.609 150.733 228.994Z" fill="url(#paint27_linear_11_19777)"/>
<path d="M128.513 226.02C128.239 225.712 128 225.37 127.761 225.028C127.419 224.55 127.282 224.003 127.145 223.49C127.043 223.08 126.906 222.704 126.735 222.362C126.12 221.336 125.06 220.755 123.966 220.174C123.214 219.764 122.462 219.354 121.812 218.773C120.992 218.055 120.24 217.303 119.522 216.585C117.608 214.67 115.796 212.859 113.266 211.628C111.899 210.944 110.326 210.226 108.651 209.919C108.036 209.816 107.079 209.714 106.224 209.953C105.711 210.124 104.754 210.671 104.378 211.149C104.72 211.457 105.301 212.106 106.156 213.029C107.113 214.089 108.207 215.252 108.822 215.798C109.403 216.311 109.984 216.858 110.531 217.371C111.488 218.226 112.446 219.114 113.437 219.969C115.146 221.405 117.505 222.738 119.625 223.798C119.795 223.866 119.966 223.969 120.171 224.037C121.231 224.447 122.564 224.687 124 224.926C125.607 225.199 127.214 225.473 128.513 226.02Z" fill="url(#paint28_linear_11_19777)"/>
<path d="M143.383 239.728C143.623 240.104 143.93 240.514 144.204 240.925C144.99 242.087 145.913 243.42 146.631 244.753C146.631 244.617 146.631 244.514 146.631 244.377C146.597 242.941 146.699 241.574 146.768 240.241C147.041 236.104 147.246 232.549 144.306 228.994C143.759 228.344 143.247 227.695 142.734 227.045C140.478 224.174 138.324 221.473 134.871 219.969C134.495 219.798 133.777 219.593 132.957 219.354L132.786 219.32C130.359 218.602 128 217.781 126.735 216.824C127.111 218.738 127.521 220.687 128.274 222.43C129.709 225.746 132.342 228.071 134.94 230.293C136.034 231.216 137.128 232.173 138.153 233.199C139.999 235.045 141.743 237.233 143.383 239.728Z" fill="url(#paint29_linear_11_19777)"/>
<path d="M201.395 317.739C203.207 319.892 205.258 320.166 207.685 320.508C208.403 320.61 209.155 320.713 209.976 320.85L210.215 320.884C212.198 321.26 214.625 321.738 216.3 323.106C216.505 322.183 216.813 321.191 217.189 320.166C217.326 319.79 217.702 319.516 218.078 319.482C218.42 319.448 218.693 319.653 218.83 319.961C219.582 321.67 221.12 322.901 222.624 324.063C223.547 324.781 224.505 325.533 225.291 326.388C226.487 327.755 227.274 329.02 227.615 330.251C227.82 331.003 227.889 331.652 227.786 332.438C227.752 332.712 227.684 332.951 227.581 333.156L227.479 333.43C227.957 333.601 229.017 334.148 231.376 335.686C231.41 335.652 231.41 335.583 231.444 335.549C232.025 332.199 231.615 329.054 230.145 326.012C228.949 323.516 227.171 321.944 225.325 320.268C224.812 319.824 224.299 319.38 223.787 318.901C222.624 317.773 221.565 316.577 220.642 315.277C217.736 313.158 213.155 313.09 209.463 313.021C208.814 313.021 208.198 312.987 207.583 312.987C204.438 312.884 201.19 312.44 198.592 310.081C197.943 312.474 199.584 315.551 201.395 317.739Z" fill="url(#paint30_linear_11_19777)"/>
<path d="M214.283 311.791C206.865 307.552 204.028 300.612 201.738 294.937C200.165 291.074 198.934 288.032 196.746 287.006L196.986 286.425C200.951 287.963 202.216 291.279 203.652 295.142C205.635 300.441 208.096 307.005 218.796 311.825C218.693 311.517 218.591 311.209 218.386 310.936C218.01 310.423 217.565 309.91 217.121 309.466C216.984 309.295 216.847 309.158 216.676 308.987C215.583 307.791 214.42 306.321 214.181 304.372C214.044 303.313 214.181 302.287 214.625 301.159C214.899 300.475 215.241 299.826 215.583 299.142C215.856 298.595 216.164 298.014 216.437 297.433C216.984 295.997 218.112 287.861 216.916 286.801C216.847 286.767 216.745 286.664 216.437 286.835C215.788 287.211 215.343 287.793 215.001 288.647C214.66 289.502 214.523 290.527 214.352 291.553C214.181 292.578 214.01 293.638 213.668 294.561C213.258 295.587 212.711 296.305 211.891 296.749C210.591 297.501 209.839 297.193 209.429 296.817C208.472 295.963 208.506 293.843 209.087 292.373L209.122 292.271C209.463 291.45 209.839 290.63 210.25 289.844C210.694 288.921 211.173 287.963 211.549 287.006C212.061 285.673 212.301 284.545 212.267 283.485C212.232 280.887 211.173 278.665 210.045 276.34L210.01 276.272C209.771 275.794 209.532 275.554 209.258 275.588C208.438 275.657 207.139 277.742 205.806 281.195C205.635 281.605 205.532 281.947 205.464 282.152L205.43 282.22C204.848 283.759 204.199 285.297 202.592 286.117C201.156 286.835 199.823 285.605 199.345 284.545C198.832 283.383 199.276 281.673 199.584 280.409L199.686 280.067C200.404 277.161 200.028 274.426 198.592 272.136C197.157 269.879 194.764 268.307 191.926 267.76C192.371 270.016 192.063 272.238 191.072 273.913C190.798 274.358 190.456 274.597 190.046 274.665C188.884 274.836 187.482 273.537 186.73 272.819C186.628 272.751 186.559 272.683 186.525 272.614C184.474 270.734 181.329 268.273 177.808 268.546C173.877 268.854 170.526 271.281 169.432 272.819C169.603 272.854 169.774 272.922 169.945 272.99C170.663 273.332 171.21 273.708 171.757 274.221C172.543 274.939 173.124 275.862 173.637 276.785C173.979 277.332 174.321 277.913 174.697 278.392C176.44 280.648 179.551 281.844 182.047 281.263C182.423 281.161 182.799 281.058 183.209 280.921C184.371 280.545 185.67 280.135 186.833 280.477C187.756 280.716 188.576 281.468 189.021 282.425C189.704 283.895 189.294 285.468 187.961 286.357C185.739 287.793 183.141 287.211 180.611 286.63C179.893 286.459 179.209 286.323 178.526 286.186C178.799 286.938 179.346 288.442 179.483 288.647C180.098 289.639 180.987 290.562 181.602 291.177C183.551 293.091 186.525 293.057 188.679 292.373C190.115 291.929 192.2 291.382 193.533 292.202C194.114 292.544 194.49 293.125 194.661 293.877C194.866 294.8 194.832 295.621 194.559 296.305C194.08 297.501 192.918 298.219 191.243 298.322C190.525 298.356 189.807 298.219 189.157 298.082C188.542 297.946 187.995 297.843 187.38 297.843C184.918 297.911 182.867 299.039 181.158 300.236C181.876 300.783 182.525 301.364 183.209 301.945C185.91 304.304 188.474 306.56 192.337 305.945C193.157 305.808 194.114 305.432 195.106 305.022C196.986 304.236 198.969 303.449 200.644 304.099C202.49 304.817 203.447 306.287 203.31 308.269C203.242 309.329 202.934 310.115 202.455 310.594C205.19 311.722 208.233 311.756 211.173 311.791C212.232 311.722 213.258 311.722 214.283 311.791Z" fill="url(#paint31_linear_11_19777)"/>
<path d="M169.296 289.741C168.475 289.228 167.587 288.716 166.8 288.134C160.818 283.759 156.511 278.289 153.981 271.931C152.682 268.649 151.759 265.23 150.87 261.914C150.631 261.026 150.391 260.103 150.152 259.214C149.468 256.787 148.614 253.915 147.452 251.146C143.384 241.506 133.914 225.405 116.07 225.849C111.796 225.951 103.934 226.977 99.2163 232.652C97.9856 234.156 96.96 235.865 96.2421 237.78C94.4303 242.429 94.6013 247.42 96.6182 251.18C98.5667 254.77 102.874 257.436 106.6 257.368C109.198 257.299 111.318 255.966 112.685 253.505C114.087 251.009 114.155 248.377 112.89 245.745C112.207 244.309 111.01 242.634 109.745 242.326C109.233 242.189 108.72 242.326 108.241 242.668C107.899 242.907 107.66 243.181 107.557 243.523C107.25 244.309 107.694 245.164 108.275 245.437C108.788 245.676 109.301 245.437 109.643 244.719L109.814 244.377L110.087 244.582C111.865 245.95 112.48 249.197 111.455 251.795C110.702 253.744 109.233 254.838 107.387 254.804C102.156 254.701 99.1137 249.437 98.7718 244.275C98.6351 242.292 98.9086 240.412 99.5923 238.703C102.635 230.806 113.335 227.592 121.026 229.644C136.444 233.78 143.725 248.445 146.699 256.821C147.349 258.667 147.999 260.581 148.58 262.393C150.323 267.623 152.135 273.025 154.699 277.981C156.442 281.332 158.425 284.784 161.638 287.28C163.997 289.092 167.279 289.809 170.321 290.356C169.98 290.151 169.638 289.946 169.296 289.741Z" fill="url(#paint32_linear_11_19777)"/>
<path d="M208.198 322.217L207.617 322.114C206.078 321.875 204.506 321.602 202.968 321.157C202.25 320.952 201.566 320.713 200.882 320.474C200.506 320.337 200.13 320.2 199.72 320.063C199.823 321.67 200.13 323.14 200.643 324.405C201.224 325.909 202.181 326.935 203.412 327.482C203.446 327.482 203.446 327.516 203.48 327.516L203.822 327.447C205.976 327.105 207.856 326.798 210.078 326.627C212.095 326.456 214.044 326.627 215.992 327.105C215.89 326.456 215.89 325.772 215.924 325.02C214.864 324.097 213.873 323.55 212.676 323.174C211.445 322.832 210.01 322.49 208.198 322.217Z" fill="url(#paint33_linear_11_19777)"/>
<path d="M67.9363 265.641C67.8679 265.811 67.8337 266.017 67.7653 266.188C67.7995 266.256 67.7995 266.358 67.7653 266.461C67.6628 266.632 67.5944 266.803 67.4919 267.008C66.3637 269.914 65.0305 281.947 78.9097 288.032C83.764 290.151 90.772 290.391 95.5237 286.152C97.0279 284.818 98.3269 282.904 99.1473 280.75C100.822 276.477 100.344 272.341 97.8825 269.674C96.8911 268.615 95.1477 268.444 93.8486 268.751C92.7205 269.025 91.8659 269.606 91.5582 270.358C91.3189 270.973 91.4557 271.657 91.9343 272.409C92.9256 273.948 94.3956 273.332 95.8656 272.751L96.0707 272.683C96.2074 272.648 96.4125 272.58 96.6176 272.751C97.5406 273.366 98.0192 277.058 98.0876 277.742C98.156 278.836 97.9509 280.101 97.4723 281.332C97.0279 282.46 96.4125 283.519 95.6605 284.408C92.8915 287.724 88.5841 288.716 82.4992 287.417C77.85 286.425 73.8845 283.417 71.3206 279.007C68.6541 274.358 67.7311 268.478 68.8251 263.042C68.4832 263.726 68.1756 264.752 67.9363 265.641Z" fill="url(#paint34_linear_11_19777)"/>
<path d="M71.1161 237.027C69.6119 239.66 68.3812 242.497 67.1506 245.232C64.9969 250.12 62.7407 255.214 59.0487 259.35C55.3567 263.487 50.3315 264.615 44.0756 262.769C46.0583 266.563 50.2631 272.033 57.6813 271.144C60.2452 270.837 64.8602 269.503 66.125 266.393C66.125 266.222 66.1934 266.085 66.2959 265.948C66.3643 265.743 66.3985 265.572 66.4327 265.401C66.5694 264.512 66.7403 263.453 67.1164 262.53C67.4241 261.778 67.8001 261.162 68.2445 260.752C68.9624 260.102 69.6803 259.863 70.3298 260.068C71.8681 260.513 72.6544 263.213 73.0988 264.82L73.1672 265.059C74.2953 269.025 75.2867 270.29 80.3461 271.862C82.6023 264 82.2604 258.462 79.1838 253.334C77.9189 251.249 74.6029 245.676 75.9362 242.224C76.278 241.301 76.9275 240.617 77.8505 240.104C78.2266 239.899 78.6026 239.865 78.9786 240.036C80.1751 240.446 80.9614 242.258 81.0298 242.463C81.4742 243.523 81.7135 244.685 81.9528 245.847C82.2946 247.522 82.6365 249.266 83.6278 250.565C85.1662 252.548 86.7729 253.539 88.824 254.77L89.0291 254.906C89.2342 254.53 89.4393 254.12 89.5761 253.71C91.046 249.949 89.5419 246.087 88.0719 242.326C87.8326 241.711 87.5933 241.13 87.3882 240.514C86.055 236.857 86.055 232.549 87.4224 228.994C88.3454 226.567 89.8837 224.55 91.9007 223.114C94.6697 221.097 97.5754 219.593 100.071 218.875C100.447 218.773 100.857 218.67 101.233 218.567C98.2249 218.738 94.738 219.422 90.7042 220.619C82.3972 223.08 75.9704 228.447 71.1161 237.027Z" fill="url(#paint35_linear_11_19777)"/>
<path d="M244.127 377.836C243.306 379.101 242.076 380.298 238.726 380.298H238.076L238.521 379.785C239.068 379.17 239.102 378.349 238.726 377.665C238.384 377.05 237.734 376.674 237.051 376.606C236.059 376.537 235.341 376.948 234.999 377.905C234.555 379.067 234.76 380.64 235.136 381.631C235.991 383.75 238.555 384.366 240.674 383.921C243.238 383.34 245.118 381.528 246.281 378.486C246.828 377.05 247.101 375.614 247.067 374.281C247.067 373.768 246.828 372.298 246.588 371.204C246.452 372.538 246.178 373.734 245.734 374.896C245.323 375.819 244.845 376.742 244.127 377.836Z" fill="url(#paint36_linear_11_19777)"/>
<path d="M63.0479 271.315C62.8428 273.777 62.2275 276.375 61.2019 279.007C57.6125 288.34 49.4422 296.92 41.3403 299.928C38.4346 301.022 33.9905 301.501 31.119 300.031C29.7515 299.313 28.8627 298.253 28.4867 296.817C28.179 295.689 28.2132 294.493 28.6234 293.433C28.9311 292.613 29.4781 291.895 30.1618 291.314C30.6404 290.903 32.1445 289.912 33.1701 290.117C34.0931 290.288 34.4007 290.493 34.264 291.211C34.2298 291.416 34.1614 291.656 34.264 292.032C34.4691 292.886 35.0502 293.399 35.734 293.433C36.486 293.467 37.1697 292.886 37.5458 291.929L37.58 291.792C37.9218 290.835 37.58 290.049 37.2381 289.57C36.5886 288.613 35.2895 287.964 34.1614 287.998C31.2899 288.134 28.4525 290.151 27.4269 292.784C27.0851 293.638 26.9484 294.527 27.0167 295.45C27.2218 298.185 28.3499 300.236 30.3327 301.467C33.8538 303.689 39.426 303.005 43.3914 301.33C49.4422 298.8 54.8435 294.151 58.5697 288.305C60.6891 284.989 62.0566 281.879 62.9796 278.323C63.1505 277.605 63.3898 276.888 63.5949 276.135C64.176 274.153 64.7914 272.067 64.8939 270.119C64.347 270.563 63.6974 270.973 63.0479 271.315Z" fill="url(#paint37_linear_11_19777)"/>
<path d="M221.496 313.124C222.761 315.106 224.334 316.611 226.009 318.217C226.863 319.004 227.718 319.858 228.538 320.747C232.606 325.157 234.179 331.003 232.914 336.746C233.94 337.429 234.965 338.147 235.751 338.694C235.615 337.976 235.581 337.258 235.581 336.541C235.581 334.148 236.025 331.823 236.948 329.225C237.905 324.405 233.735 321.123 229.735 317.944C227.718 316.337 225.804 314.833 224.607 313.158C223.479 311.585 220.026 306.013 221.975 300.92C222.248 300.202 222.624 299.518 223.103 298.903C224.71 296.783 226.966 295.518 229.154 295.587C231.102 295.621 232.846 296.681 234.008 298.561C234.999 300.167 235.239 302.082 234.623 303.654C233.837 305.637 231.991 306.663 229.735 306.252L229.325 306.184L229.53 305.808C229.837 305.227 229.735 304.68 229.359 304.304C228.949 303.962 228.367 303.962 227.855 304.27C227.137 304.748 226.932 305.295 227.034 306.423C227.171 307.722 227.82 308.543 228.949 308.851C231.136 309.466 234.521 308.03 235.751 306.458C236.264 305.808 236.674 305.124 236.948 304.372C237.905 301.877 237.427 299.244 235.649 297.228C232.914 294.151 228.504 292.339 224.744 295.245C221.53 297.74 219.411 301.227 219.172 304.543C219.001 307.517 219.753 310.423 221.496 313.124Z" fill="url(#paint38_linear_11_19777)"/>
<path d="M237.324 336.746C237.324 338.216 237.7 339.617 238.042 340.814C238.589 342.796 239.785 344.54 240.948 346.181C241.563 347.07 242.212 347.993 242.725 348.95L242.896 349.258C244.263 351.616 245.05 353.223 244.776 353.941C244.742 354.043 244.674 354.112 244.605 354.18C244.434 354.317 244.161 354.351 243.614 354.419C241.905 354.59 237.939 355.001 234.931 359.445C236.538 359.718 241.153 360.983 243.922 363.718C245.152 364.914 246.451 367.068 247.921 370.247C248.297 368.333 248.981 364.846 249.596 360.846C250.348 355.889 250.451 350.488 249.904 345.942C249.357 341.532 248.024 337.84 246.075 333.293C244.708 330.182 243.409 326.319 242.178 321.807C241.973 322.251 241.768 322.696 241.529 323.14C240.64 324.986 239.751 326.9 238.999 328.849C237.871 331.857 237.324 334.387 237.324 336.746Z" fill="url(#paint39_linear_11_19777)"/>
<path d="M226.18 333.054C226.453 331.721 225.701 330.216 225.325 329.601C224.676 328.473 223.787 327.447 222.488 326.285C222.043 325.909 221.565 325.533 221.12 325.157C220.095 324.371 219.069 323.516 218.249 322.491C218.044 323.208 217.873 323.824 217.804 324.405V324.473C217.565 325.909 217.668 327.037 218.078 327.687C220.471 328.063 222.556 330.627 223.069 331.857C223.924 332.062 224.641 332.37 225.359 332.678C225.599 332.849 225.872 332.951 226.18 333.054Z" fill="url(#paint40_linear_11_19777)"/>
<path d="M197.943 314.491C197.772 314.047 197.601 313.602 197.464 313.158C197.361 312.782 197.191 312.269 197.122 311.654C196.678 311.825 196.199 311.859 195.789 311.927C195.55 311.961 195.345 311.961 195.139 312.03C194.011 312.269 192.336 313.124 191.379 314.115C191.892 314.286 192.37 314.525 192.678 314.901C193.84 314.559 194.9 314.389 196.097 314.389C196.746 314.354 197.396 314.389 197.943 314.491Z" fill="url(#paint41_linear_11_19777)"/>
<path d="M179.244 300.885C178.936 300.68 178.834 300.236 178.97 299.86C179.039 299.723 179.107 299.586 179.244 299.484C181.842 297.535 184.611 295.792 187.551 296.031C188.064 296.065 188.576 296.168 189.055 296.27C189.91 296.441 190.764 296.612 191.585 296.476C192.337 296.339 192.815 296.031 193.021 295.553C193.191 295.108 193.089 294.561 192.713 294.117C192.268 293.536 191.551 293.296 190.798 293.467C190.012 293.638 189.26 293.878 188.576 294.117C185.158 295.245 181.739 294.254 179.312 291.485C171.655 293.843 162.767 290.732 159.416 289.536C155.143 288.032 150.973 286.015 147.007 283.588C141.196 279.998 136.376 275.486 133.025 270.563L132.82 270.256C131.179 267.863 129.333 265.128 129.06 262.085C128.889 260.239 129.47 258.257 130.598 257.094C132.308 255.317 134.461 255.658 135.726 256.718L136.102 257.026L135.658 257.231C135.487 257.299 135.282 257.573 135.179 257.881C135.008 258.325 135.008 258.735 135.179 258.94C135.384 259.18 135.76 259.111 136.068 259.009C136.683 258.838 136.991 258.325 137.128 257.949C137.504 256.958 137.264 255.658 136.615 255.146C135.453 254.257 134.119 253.778 132.786 253.812C129.812 253.881 125.949 254.77 124.206 258.701C124.137 258.872 124.035 259.077 123.966 259.282C122.941 261.914 122.975 264.273 124.001 266.324C124.958 268.17 126.223 269.196 128 270.529L128.274 270.734C129.163 271.384 130.256 272.204 130.633 273.298C130.906 274.118 130.906 275.041 130.564 275.862C130.154 276.956 129.299 277.708 128.205 278.016C126.325 278.494 124.445 278.084 122.667 277.469C123.283 279.486 124.001 281.229 125.539 282.289C127.487 283.622 129.163 283.417 131.282 283.143C131.658 283.075 132.068 283.041 132.479 282.972C133.88 282.836 137.572 283.109 138.393 284.75C139.35 286.63 138.666 288.921 136.41 291.45C135.145 292.852 133.47 292.92 131.863 292.955C130.188 293.023 128.581 293.057 127.487 294.63C128.069 294.903 128.684 295.211 129.265 295.518C131.897 296.886 134.632 298.322 137.64 297.057C138.324 296.783 139.042 296.373 139.794 295.929C141.811 294.801 143.862 293.638 146.016 294.322C146.87 294.595 147.588 295.245 147.93 296.031C148.443 297.193 148.101 298.493 147.076 299.381C146.255 300.099 145.23 300.373 144.272 300.68C143.076 301.022 141.982 301.364 141.093 302.39L140.615 303.005C139.965 303.825 139.316 304.577 138.632 305.295C143.042 307.312 147.486 308.611 150.802 305.295C151.656 304.407 152.306 303.449 153.024 302.355C153.058 302.287 153.126 302.15 153.195 302.014C153.468 301.467 153.81 300.715 154.323 300.407C154.87 300.065 155.383 299.997 155.861 300.168C156.75 300.509 157.229 301.672 157.502 302.492C158.152 304.441 158.049 306.731 157.946 308.714V308.987C157.776 312.884 158.801 316.03 160.955 318.32C162.801 320.269 165.433 321.465 167.689 321.362C168.954 321.294 170.048 320.85 170.971 320.063C169.604 320.234 168.373 320.029 167.313 319.448C164.613 317.978 163.45 314.286 164.715 311.038C164.954 310.457 165.228 309.91 165.604 309.432C168.168 305.911 173.637 304.748 177.329 306.97C179.962 308.543 179.893 311.141 179.791 313.671C179.757 314.286 179.757 314.901 179.791 315.517C180.03 315.277 180.304 315.004 180.543 314.73C181.09 314.149 181.637 313.568 182.286 313.124C182.833 312.748 183.414 312.508 183.996 312.303C184.44 312.132 184.884 311.962 185.295 311.722C186.354 311.073 187.209 309.91 187.927 308.03C188.029 307.757 188.132 307.517 188.2 307.244C188.132 307.21 188.029 307.107 187.893 307.039C186.628 306.184 183.346 303.86 181.158 302.321C180.201 301.569 179.449 301.022 179.244 300.885Z" fill="url(#paint42_linear_11_19777)"/>
<path d="M201.669 328.165C198.968 326.114 197.806 322.832 198.421 319.004L198.456 318.901C198.592 318.593 198.968 318.388 199.276 318.491C199.652 318.628 200.062 318.764 200.473 318.867C200.062 318.32 199.652 317.773 199.31 317.226C199.174 317.123 199.071 317.021 198.968 316.918C198.661 316.645 198.387 316.371 197.909 316.303C195.926 315.893 193.909 316.098 192.063 316.85C191.755 316.987 191.414 317.123 191.072 317.294C189.67 317.91 188.132 318.559 186.559 318.833C186.935 319.14 187.277 319.482 187.653 319.79C188.405 320.439 189.157 321.123 189.944 321.704C190.73 322.285 191.516 322.901 192.268 323.516C193.67 324.61 195.106 325.738 196.575 326.764C197.84 327.618 200.131 328.644 201.669 328.165Z" fill="url(#paint43_linear_11_19777)"/>
<path d="M194.319 352.642C194.251 358.214 196.097 365.53 201.464 369.393C206.011 372.674 212.267 372.606 216.335 369.187C217.839 367.923 219.001 366.282 219.719 364.436C221.223 360.573 220.574 356.3 218.044 353.257C216.403 351.309 213.6 349.257 210.626 349.428C208.233 349.531 206.558 350.557 205.874 352.3C205.088 354.351 205.942 356.847 207.72 357.633C208.404 357.941 209.19 357.975 209.771 357.701C210.318 357.462 210.66 357.018 210.865 356.368C211.173 355.342 210.865 354.488 210.01 353.975L209.6 353.736L209.976 353.462C211.275 352.471 212.609 352.368 213.908 353.155C215.924 354.385 217.394 357.77 217.121 359.581C216.916 360.88 216.677 361.94 216.301 362.863C215.822 364.128 215.138 365.188 214.249 366.145C212.506 367.957 210.352 368.914 207.994 368.914C205.122 368.88 202.114 367.341 199.926 364.812C195.55 359.718 194.012 352.881 195.995 347.411C199.892 336.677 212.096 333.464 221.565 336.541C229.086 338.968 235.308 345.019 239.17 353.531C240.401 353.052 241.563 352.608 242.692 352.437C241.939 350.967 241.016 349.531 240.128 348.164C238.76 346.044 237.359 343.856 236.504 341.497C235.102 340.062 233.53 338.797 231.855 337.703C231.684 337.669 231.513 337.566 231.376 337.395C228.881 335.823 226.18 334.66 223.377 333.977C219.582 333.054 212.267 331.926 205.703 334.592C203.994 335.276 202.353 336.267 200.986 337.429C198.695 339.344 196.883 341.908 195.755 344.916C194.832 347.275 194.354 349.907 194.319 352.642Z" fill="url(#paint44_linear_11_19777)"/>
<path d="M198.627 335.823C198.524 335.686 198.285 335.583 197.943 335.583C196.439 335.549 193.738 336.78 193.191 337.361C192.234 338.387 191.448 339.651 190.696 340.848C190.08 341.805 189.465 342.831 188.713 343.719C186.388 346.591 183.551 349.565 180.269 349.634C177.637 349.702 175.141 348.711 173.706 347.035C172.646 345.805 172.236 344.198 172.475 342.455C172.612 341.429 172.988 340.301 173.569 339.207L173.842 339.344L173.876 339.07C174.047 339.07 175.107 338.797 175.278 338.66C175.654 338.318 175.996 337.669 175.962 337.258C175.928 336.814 175.722 336.472 175.346 336.233C174.594 335.754 173.261 335.789 172.441 336.096C171.347 336.541 170.526 337.395 170.014 338.694C168.988 341.361 169.535 345.121 170.663 347.104C172.68 350.625 176.714 352.573 180.714 351.958C185.26 351.24 187.277 348.198 189.602 344.677C190.012 344.061 190.422 343.48 190.832 342.865C192.029 341.156 193.43 339.651 195.037 338.387C195.242 338.216 195.618 338.011 196.097 337.703C196.917 337.224 198.456 336.301 198.627 335.823Z" fill="url(#paint45_linear_11_19777)"/>
<path d="M195.379 334.284C195.516 334.284 195.652 334.25 195.789 334.216C194.08 332.746 192.234 330.968 191.926 328.473C191.892 328.302 191.926 328.165 191.994 327.994C192.165 327.584 192.541 327.345 192.952 327.481C193.738 327.755 194.558 327.926 195.447 328.028C194.011 327.105 192.678 326.046 191.242 324.883C189.636 324.883 188.302 325.909 186.901 326.969C185.91 327.721 184.884 328.507 183.756 328.883L183.995 329.088C187.379 331.96 190.593 334.695 195.003 334.318C195.14 334.284 195.276 334.25 195.379 334.284Z" fill="url(#paint46_linear_11_19777)"/>
</g>
<defs>
<linearGradient id="paint0_linear_11_19777" x1="35.5784" y1="70.9233" x2="35.6593" y2="72.4159" gradientUnits="userSpaceOnUse">
<stop stop-color="#AE8625"/>
<stop offset="0.38" stop-color="#F7EF8A"/>
<stop offset="0.8" stop-color="#D2AC47"/>
<stop offset="1" stop-color="#EDC967"/>
</linearGradient>
<linearGradient id="paint1_linear_11_19777" x1="33.0999" y1="90.6466" x2="33.3978" y2="92.8723" gradientUnits="userSpaceOnUse">
<stop stop-color="#AE8625"/>
<stop offset="0.38" stop-color="#F7EF8A"/>
<stop offset="0.8" stop-color="#D2AC47"/>
<stop offset="1" stop-color="#EDC967"/>
</linearGradient>
<linearGradient id="paint2_linear_11_19777" x1="29.7978" y1="81.3139" x2="29.9005" y2="82.9503" gradientUnits="userSpaceOnUse">
<stop stop-color="#AE8625"/>
<stop offset="0.38" stop-color="#F7EF8A"/>
<stop offset="0.8" stop-color="#D2AC47"/>
<stop offset="1" stop-color="#EDC967"/>
</linearGradient>
<linearGradient id="paint3_linear_11_19777" x1="82.2922" y1="32.4291" x2="82.7005" y2="34.9062" gradientUnits="userSpaceOnUse">
<stop stop-color="#AE8625"/>
<stop offset="0.38" stop-color="#F7EF8A"/>
<stop offset="0.8" stop-color="#D2AC47"/>
<stop offset="1" stop-color="#EDC967"/>
</linearGradient>
<linearGradient id="paint4_linear_11_19777" x1="87.8304" y1="32.8051" x2="88.148" y2="35.6275" gradientUnits="userSpaceOnUse">
<stop stop-color="#AE8625"/>
<stop offset="0.38" stop-color="#F7EF8A"/>
<stop offset="0.8" stop-color="#D2AC47"/>
<stop offset="1" stop-color="#EDC967"/>
</linearGradient>
<linearGradient id="paint5_linear_11_19777" x1="92.7718" y1="34.0699" x2="93.3881" y2="37.2622" gradientUnits="userSpaceOnUse">
<stop stop-color="#AE8625"/>
<stop offset="0.38" stop-color="#F7EF8A"/>
<stop offset="0.8" stop-color="#D2AC47"/>
<stop offset="1" stop-color="#EDC967"/>
</linearGradient>
<linearGradient id="paint6_linear_11_19777" x1="108.328" y1="23.5504" x2="108.797" y2="28.1283" gradientUnits="userSpaceOnUse">
<stop stop-color="#AE8625"/>
<stop offset="0.38" stop-color="#F7EF8A"/>
<stop offset="0.8" stop-color="#D2AC47"/>
<stop offset="1" stop-color="#EDC967"/>
</linearGradient>
<linearGradient id="paint7_linear_11_19777" x1="118.356" y1="29.3037" x2="118.69" y2="33.9728" gradientUnits="userSpaceOnUse">
<stop stop-color="#AE8625"/>
<stop offset="0.38" stop-color="#F7EF8A"/>
<stop offset="0.8" stop-color="#D2AC47"/>
<stop offset="1" stop-color="#EDC967"/>
</linearGradient>
<linearGradient id="paint8_linear_11_19777" x1="45.3209" y1="46.3082" x2="45.3934" y2="47.4539" gradientUnits="userSpaceOnUse">
<stop stop-color="#AE8625"/>
<stop offset="0.38" stop-color="#F7EF8A"/>
<stop offset="0.8" stop-color="#D2AC47"/>
<stop offset="1" stop-color="#EDC967"/>
</linearGradient>
<linearGradient id="paint9_linear_11_19777" x1="48.654" y1="37.5967" x2="48.7437" y2="38.9793" gradientUnits="userSpaceOnUse">
<stop stop-color="#AE8625"/>
<stop offset="0.38" stop-color="#F7EF8A"/>
<stop offset="0.8" stop-color="#D2AC47"/>
<stop offset="1" stop-color="#EDC967"/>
</linearGradient>
<linearGradient id="paint10_linear_11_19777" x1="58.9945" y1="70.1697" x2="60.9892" y2="98.1907" gradientUnits="userSpaceOnUse">
<stop stop-color="#AE8625"/>
<stop offset="0.38" stop-color="#F7EF8A"/>
<stop offset="0.8" stop-color="#D2AC47"/>
<stop offset="1" stop-color="#EDC967"/>
</linearGradient>
<linearGradient id="paint11_linear_11_19777" x1="130.699" y1="16" x2="167.257" y2="178.777" gradientUnits="userSpaceOnUse">
<stop stop-color="#AE8625"/>
<stop offset="0.38" stop-color="#F7EF8A"/>
<stop offset="0.8" stop-color="#D2AC47"/>
<stop offset="1" stop-color="#EDC967"/>
</linearGradient>
<linearGradient id="paint12_linear_11_19777" x1="149.553" y1="115.29" x2="152.886" y2="124.83" gradientUnits="userSpaceOnUse">
<stop stop-color="#AE8625"/>
<stop offset="0.38" stop-color="#F7EF8A"/>
<stop offset="0.8" stop-color="#D2AC47"/>
<stop offset="1" stop-color="#EDC967"/>
</linearGradient>
<linearGradient id="paint13_linear_11_19777" x1="86.6508" y1="164.316" x2="86.7972" y2="166.151" gradientUnits="userSpaceOnUse">
<stop stop-color="#AE8625"/>
<stop offset="0.38" stop-color="#F7EF8A"/>
<stop offset="0.8" stop-color="#D2AC47"/>
<stop offset="1" stop-color="#EDC967"/>
</linearGradient>
<linearGradient id="paint14_linear_11_19777" x1="50.0045" y1="140.01" x2="50.1894" y2="141.979" gradientUnits="userSpaceOnUse">
<stop stop-color="#AE8625"/>
<stop offset="0.38" stop-color="#F7EF8A"/>
<stop offset="0.8" stop-color="#D2AC47"/>
<stop offset="1" stop-color="#EDC967"/>
</linearGradient>
<linearGradient id="paint15_linear_11_19777" x1="45.7656" y1="71.8046" x2="46.014" y2="74.0839" gradientUnits="userSpaceOnUse">
<stop stop-color="#AE8625"/>
<stop offset="0.38" stop-color="#F7EF8A"/>
<stop offset="0.8" stop-color="#D2AC47"/>
<stop offset="1" stop-color="#EDC967"/>
</linearGradient>
<linearGradient id="paint16_linear_11_19777" x1="86.617" y1="173.409" x2="86.9957" y2="175.931" gradientUnits="userSpaceOnUse">
<stop stop-color="#AE8625"/>
<stop offset="0.38" stop-color="#F7EF8A"/>
<stop offset="0.8" stop-color="#D2AC47"/>
<stop offset="1" stop-color="#EDC967"/>
</linearGradient>
<linearGradient id="paint17_linear_11_19777" x1="50.7564" y1="148.693" x2="51.1934" y2="151.232" gradientUnits="userSpaceOnUse">
<stop stop-color="#AE8625"/>
<stop offset="0.38" stop-color="#F7EF8A"/>
<stop offset="0.8" stop-color="#D2AC47"/>
<stop offset="1" stop-color="#EDC967"/>
</linearGradient>
<linearGradient id="paint18_linear_11_19777" x1="90.3431" y1="180.041" x2="90.7965" y2="182.753" gradientUnits="userSpaceOnUse">
<stop stop-color="#AE8625"/>
<stop offset="0.38" stop-color="#F7EF8A"/>
<stop offset="0.8" stop-color="#D2AC47"/>
<stop offset="1" stop-color="#EDC967"/>
</linearGradient>
<linearGradient id="paint19_linear_11_19777" x1="62.9688" y1="33.6257" x2="70.6728" y2="75.2098" gradientUnits="userSpaceOnUse">
<stop stop-color="#AE8625"/>
<stop offset="0.38" stop-color="#F7EF8A"/>
<stop offset="0.8" stop-color="#D2AC47"/>
<stop offset="1" stop-color="#EDC967"/>
</linearGradient>
<linearGradient id="paint20_linear_11_19777" x1="117.131" y1="183.801" x2="118.601" y2="186.903" gradientUnits="userSpaceOnUse">
<stop stop-color="#AE8625"/>
<stop offset="0.38" stop-color="#F7EF8A"/>
<stop offset="0.8" stop-color="#D2AC47"/>
<stop offset="1" stop-color="#EDC967"/>
</linearGradient>
<linearGradient id="paint21_linear_11_19777" x1="74.6539" y1="111.363" x2="81.8489" y2="159.503" gradientUnits="userSpaceOnUse">
<stop stop-color="#AE8625"/>
<stop offset="0.38" stop-color="#F7EF8A"/>
<stop offset="0.8" stop-color="#D2AC47"/>
<stop offset="1" stop-color="#EDC967"/>
</linearGradient>
<linearGradient id="paint22_linear_11_19777" x1="97.1823" y1="22.6864" x2="105.481" y2="81.9992" gradientUnits="userSpaceOnUse">
<stop stop-color="#AE8625"/>
<stop offset="0.38" stop-color="#F7EF8A"/>
<stop offset="0.8" stop-color="#D2AC47"/>
<stop offset="1" stop-color="#EDC967"/>
</linearGradient>
<linearGradient id="paint23_linear_11_19777" x1="98.2897" y1="27.9477" x2="98.3471" y2="29.0923" gradientUnits="userSpaceOnUse">
<stop stop-color="#AE8625"/>
<stop offset="0.38" stop-color="#F7EF8A"/>
<stop offset="0.8" stop-color="#D2AC47"/>
<stop offset="1" stop-color="#EDC967"/>
</linearGradient>
<linearGradient id="paint24_linear_11_19777" x1="207.463" y1="328.339" x2="207.682" y2="334.916" gradientUnits="userSpaceOnUse">
<stop stop-color="#AE8625"/>
<stop offset="0.38" stop-color="#F7EF8A"/>
<stop offset="0.8" stop-color="#D2AC47"/>
<stop offset="1" stop-color="#EDC967"/>
</linearGradient>
<linearGradient id="paint25_linear_11_19777" x1="123.393" y1="192.484" x2="128.9" y2="219.016" gradientUnits="userSpaceOnUse">
<stop stop-color="#AE8625"/>
<stop offset="0.38" stop-color="#F7EF8A"/>
<stop offset="0.8" stop-color="#D2AC47"/>
<stop offset="1" stop-color="#EDC967"/>
</linearGradient>
<linearGradient id="paint26_linear_11_19777" x1="154.252" y1="217.166" x2="169.015" y2="250.024" gradientUnits="userSpaceOnUse">
<stop stop-color="#AE8625"/>
<stop offset="0.38" stop-color="#F7EF8A"/>
<stop offset="0.8" stop-color="#D2AC47"/>
<stop offset="1" stop-color="#EDC967"/>
</linearGradient>
<linearGradient id="paint27_linear_11_19777" x1="141.714" y1="194.545" x2="150.634" y2="229.707" gradientUnits="userSpaceOnUse">
<stop stop-color="#AE8625"/>
<stop offset="0.38" stop-color="#F7EF8A"/>
<stop offset="0.8" stop-color="#D2AC47"/>
<stop offset="1" stop-color="#EDC967"/>
</linearGradient>
<linearGradient id="paint28_linear_11_19777" x1="116.445" y1="209.806" x2="117.986" y2="226.193" gradientUnits="userSpaceOnUse">
<stop stop-color="#AE8625"/>
<stop offset="0.38" stop-color="#F7EF8A"/>
<stop offset="0.8" stop-color="#D2AC47"/>
<stop offset="1" stop-color="#EDC967"/>
</linearGradient>
<linearGradient id="paint29_linear_11_19777" x1="136.825" y1="216.824" x2="142.143" y2="244.27" gradientUnits="userSpaceOnUse">
<stop stop-color="#AE8625"/>
<stop offset="0.38" stop-color="#F7EF8A"/>
<stop offset="0.8" stop-color="#D2AC47"/>
<stop offset="1" stop-color="#EDC967"/>
</linearGradient>
<linearGradient id="paint30_linear_11_19777" x1="215.073" y1="310.081" x2="217.855" y2="335.888" gradientUnits="userSpaceOnUse">
<stop stop-color="#AE8625"/>
<stop offset="0.38" stop-color="#F7EF8A"/>
<stop offset="0.8" stop-color="#D2AC47"/>
<stop offset="1" stop-color="#EDC967"/>
</linearGradient>
<linearGradient id="paint31_linear_11_19777" x1="194.114" y1="267.76" x2="199.643" y2="311.997" gradientUnits="userSpaceOnUse">
<stop stop-color="#AE8625"/>
<stop offset="0.38" stop-color="#F7EF8A"/>
<stop offset="0.8" stop-color="#D2AC47"/>
<stop offset="1" stop-color="#EDC967"/>
</linearGradient>
<linearGradient id="paint32_linear_11_19777" x1="132.654" y1="225.84" x2="140.429" y2="290.689" gradientUnits="userSpaceOnUse">
<stop stop-color="#AE8625"/>
<stop offset="0.38" stop-color="#F7EF8A"/>
<stop offset="0.8" stop-color="#D2AC47"/>
<stop offset="1" stop-color="#EDC967"/>
</linearGradient>
<linearGradient id="paint33_linear_11_19777" x1="207.856" y1="320.063" x2="208.341" y2="327.631" gradientUnits="userSpaceOnUse">
<stop stop-color="#AE8625"/>
<stop offset="0.38" stop-color="#F7EF8A"/>
<stop offset="0.8" stop-color="#D2AC47"/>
<stop offset="1" stop-color="#EDC967"/>
</linearGradient>
<linearGradient id="paint34_linear_11_19777" x1="83.4845" y1="263.042" x2="86.4521" y2="289.705" gradientUnits="userSpaceOnUse">
<stop stop-color="#AE8625"/>
<stop offset="0.38" stop-color="#F7EF8A"/>
<stop offset="0.8" stop-color="#D2AC47"/>
<stop offset="1" stop-color="#EDC967"/>
</linearGradient>
<linearGradient id="paint35_linear_11_19777" x1="72.6544" y1="218.567" x2="79.6289" y2="271.996" gradientUnits="userSpaceOnUse">
<stop stop-color="#AE8625"/>
<stop offset="0.38" stop-color="#F7EF8A"/>
<stop offset="0.8" stop-color="#D2AC47"/>
<stop offset="1" stop-color="#EDC967"/>
</linearGradient>
<linearGradient id="paint36_linear_11_19777" x1="240.909" y1="371.204" x2="242.782" y2="384.036" gradientUnits="userSpaceOnUse">
<stop stop-color="#AE8625"/>
<stop offset="0.38" stop-color="#F7EF8A"/>
<stop offset="0.8" stop-color="#D2AC47"/>
<stop offset="1" stop-color="#EDC967"/>
</linearGradient>
<linearGradient id="paint37_linear_11_19777" x1="45.9468" y1="270.119" x2="49.9304" y2="303.036" gradientUnits="userSpaceOnUse">
<stop stop-color="#AE8625"/>
<stop offset="0.38" stop-color="#F7EF8A"/>
<stop offset="0.8" stop-color="#D2AC47"/>
<stop offset="1" stop-color="#EDC967"/>
</linearGradient>
<linearGradient id="paint38_linear_11_19777" x1="228.29" y1="293.779" x2="242.374" y2="334.731" gradientUnits="userSpaceOnUse">
<stop stop-color="#AE8625"/>
<stop offset="0.38" stop-color="#F7EF8A"/>
<stop offset="0.8" stop-color="#D2AC47"/>
<stop offset="1" stop-color="#EDC967"/>
</linearGradient>
<linearGradient id="paint39_linear_11_19777" x1="242.59" y1="321.807" x2="260.872" y2="363.103" gradientUnits="userSpaceOnUse">
<stop stop-color="#AE8625"/>
<stop offset="0.38" stop-color="#F7EF8A"/>
<stop offset="0.8" stop-color="#D2AC47"/>
<stop offset="1" stop-color="#EDC967"/>
</linearGradient>
<linearGradient id="paint40_linear_11_19777" x1="221.958" y1="322.491" x2="223.764" y2="332.949" gradientUnits="userSpaceOnUse">
<stop stop-color="#AE8625"/>
<stop offset="0.38" stop-color="#F7EF8A"/>
<stop offset="0.8" stop-color="#D2AC47"/>
<stop offset="1" stop-color="#EDC967"/>
</linearGradient>
<linearGradient id="paint41_linear_11_19777" x1="194.661" y1="311.654" x2="194.889" y2="314.949" gradientUnits="userSpaceOnUse">
<stop stop-color="#AE8625"/>
<stop offset="0.38" stop-color="#F7EF8A"/>
<stop offset="0.8" stop-color="#D2AC47"/>
<stop offset="1" stop-color="#EDC967"/>
</linearGradient>
<linearGradient id="paint42_linear_11_19777" x1="157.884" y1="253.811" x2="166.97" y2="321.473" gradientUnits="userSpaceOnUse">
<stop stop-color="#AE8625"/>
<stop offset="0.38" stop-color="#F7EF8A"/>
<stop offset="0.8" stop-color="#D2AC47"/>
<stop offset="1" stop-color="#EDC967"/>
</linearGradient>
<linearGradient id="paint43_linear_11_19777" x1="194.114" y1="316.095" x2="195.501" y2="328.37" gradientUnits="userSpaceOnUse">
<stop stop-color="#AE8625"/>
<stop offset="0.38" stop-color="#F7EF8A"/>
<stop offset="0.8" stop-color="#D2AC47"/>
<stop offset="1" stop-color="#EDC967"/>
</linearGradient>
<linearGradient id="paint44_linear_11_19777" x1="218.505" y1="332.932" x2="222.908" y2="372.07" gradientUnits="userSpaceOnUse">
<stop stop-color="#AE8625"/>
<stop offset="0.38" stop-color="#F7EF8A"/>
<stop offset="0.8" stop-color="#D2AC47"/>
<stop offset="1" stop-color="#EDC967"/>
</linearGradient>
<linearGradient id="paint45_linear_11_19777" x1="184.049" y1="335.583" x2="185.371" y2="352.289" gradientUnits="userSpaceOnUse">
<stop stop-color="#AE8625"/>
<stop offset="0.38" stop-color="#F7EF8A"/>
<stop offset="0.8" stop-color="#D2AC47"/>
<stop offset="1" stop-color="#EDC967"/>
</linearGradient>
<linearGradient id="paint46_linear_11_19777" x1="189.772" y1="324.883" x2="190.824" y2="334.423" gradientUnits="userSpaceOnUse">
<stop stop-color="#AE8625"/>
<stop offset="0.38" stop-color="#F7EF8A"/>
<stop offset="0.8" stop-color="#D2AC47"/>
<stop offset="1" stop-color="#EDC967"/>
</linearGradient>
<clipPath id="clip0_11_19777">
<rect width="250" height="400" fill="white"/>
</clipPath>
</defs>
</svg>
