<svg width="250" height="400" viewBox="0 0 250 400" fill="none" xmlns="http://www.w3.org/2000/svg">
<path d="M215.219 71.8789C216.005 71.4345 216.996 71.2977 217.919 71.3661C217.031 70.8191 216.108 70.7166 215.082 71.1952C214.706 71.3661 214.433 71.537 214.125 71.6054C214.296 71.7763 214.364 72.0498 214.433 72.3575C214.672 72.1866 215.014 72.0156 215.219 71.8789Z" fill="url(#paint0_linear_11_19701)"/>
<path d="M218.158 90.9884C217.988 90.8516 217.782 90.7491 217.646 90.6123C217.612 90.8516 217.543 91.0909 217.441 91.3644C217.406 91.4328 217.372 91.467 217.338 91.5353C218.124 91.467 219.013 92.2874 219.663 92.8344C219.56 92.5267 219.423 92.219 219.218 91.9114C218.979 91.5012 218.535 91.2619 218.158 90.9884Z" fill="url(#paint1_linear_11_19701)"/>
<path d="M221.987 81.6217C221.372 81.314 220.62 81.485 220.005 81.2798C220.107 81.5533 220.107 81.861 220.073 82.2028C220.073 82.2712 220.039 82.3738 220.039 82.4421C220.825 82.2028 222.227 82.4422 222.603 82.5447C222.842 82.6131 223.081 82.6814 223.321 82.784C223.628 82.8866 223.628 82.9891 223.423 82.7156C223.081 82.2029 222.534 81.861 221.987 81.6217Z" fill="url(#paint2_linear_11_19701)"/>
<path d="M168.521 33.4888C168.76 33.9674 169.034 34.4802 169.376 34.8904C169.752 34.446 169.957 33.899 170.128 33.3521C170.23 33.0444 170.299 32.7025 170.367 32.3949C169.683 32.6342 168.966 32.7367 168.248 32.8051C168.384 33.0444 168.453 33.3179 168.521 33.4888Z" fill="url(#paint3_linear_11_19701)"/>
<path d="M164.932 32.7711C164.727 32.7711 164.556 32.7711 164.351 32.7711C164.283 32.7711 164.249 32.7711 164.18 32.7711C164.044 32.7711 163.907 32.7711 163.736 32.8052C163.668 32.8052 163.633 32.8052 163.565 32.8052C163.36 32.8394 163.189 32.8394 162.984 32.8736C162.676 32.942 162.334 33.0104 162.027 33.0787C162.129 33.6599 162.539 34.0701 162.881 34.5487C163.155 34.9247 163.462 35.3349 163.873 35.5742C164.591 34.8222 165.069 33.7282 165.514 32.7711H165.479C165.343 32.7711 165.138 32.7711 164.932 32.7711Z" fill="url(#paint4_linear_11_19701)"/>
<path d="M158.608 34.7196C158.437 34.8563 158.266 34.9931 158.129 35.0956C158.095 35.0956 158.095 35.1298 158.095 35.1298C157.924 35.2666 157.788 35.4033 157.651 35.5742C157.651 35.5742 157.651 35.6084 157.651 35.6426C157.685 36.4289 159.155 37.01 159.873 37.2835C160.078 36.463 160.01 35.8819 159.907 35.0614C159.873 34.8905 159.702 34.3777 159.668 34.0359C159.326 34.2068 158.95 34.4461 158.608 34.7196Z" fill="url(#paint5_linear_11_19701)"/>
<path d="M146.062 26.4126C146.164 26.3442 146.267 26.2758 146.369 26.2075C144.831 26.5835 143.327 26.7544 141.823 25.6947C141.447 25.4554 141.242 25.0793 141.105 24.6691C141.071 24.5324 141.037 24.3956 141.002 24.2931C141.002 24.1905 140.968 24.0538 140.934 23.9512C140.9 23.2333 140.695 23.4043 140.25 24.464C139.874 26.0707 140.968 27.3356 142.267 28.0535C143.635 27.8483 144.899 27.1646 146.062 26.4126Z" fill="url(#paint6_linear_11_19701)"/>
<path d="M132.969 33.8307C134.439 32.6684 135.841 31.5403 137.618 30.8224C137.653 30.8224 137.721 30.7882 137.755 30.7882C137.345 30.6515 136.969 30.4805 136.661 30.2412C136.354 30.0019 136.08 29.7285 135.841 29.4208C133.755 28.6345 130.952 31.1301 129.311 31.9163C128.491 32.3265 128.559 32.0872 129.414 32.6684C130.474 33.4546 131.67 34.0358 132.969 33.8307Z" fill="url(#paint7_linear_11_19701)"/>
<path d="M205.065 47.2312C205.065 47.2312 205.065 47.2654 205.065 47.2996C205.783 47.0261 206.774 47.2996 207.527 47.4021C206.877 46.7184 205.954 46.3082 205.031 46.274C205.099 46.5133 205.099 46.821 205.065 47.2312Z" fill="url(#paint8_linear_11_19701)"/>
<path d="M203.048 38.1038C203.493 37.8986 203.937 37.7961 204.416 37.6593C203.766 37.4884 203.151 37.5568 202.467 37.7619C202.091 37.8645 201.817 38.1038 201.476 38.2405C201.749 38.4798 201.954 38.6849 202.091 38.9242C202.364 38.6165 202.672 38.2747 203.048 38.1038Z" fill="url(#paint9_linear_11_19701)"/>
<path d="M219.013 81.0405C218.09 80.6645 216.791 81.0405 215.868 81.1773C215.116 81.314 214.33 81.0747 213.612 80.8696C212.758 80.6303 211.937 80.1175 211.219 79.6731C209.476 78.6134 208.143 79.092 206.365 79.5705C206.331 79.5705 206.297 79.5022 206.331 79.5022C206.741 79.2971 207.254 78.9894 207.835 78.7501C208.519 78.2031 208.963 77.1434 209.51 76.4255C209.954 75.8786 210.536 75.4683 211.185 75.1607C211.937 74.7846 213.373 75.3316 213.851 74.4428C214.398 73.4172 214.228 72.084 213.031 71.7763C212.142 71.537 210.98 72.0498 210.33 72.6651C209.818 73.1779 209.578 73.8958 209.1 74.4428C208.587 75.0581 207.972 75.6392 207.356 76.152C206.399 76.9725 205.339 77.5878 204.28 78.2373C203.459 78.7501 202.331 79.2287 201.374 79.1261C202.058 78.8868 202.605 78.5792 202.844 77.8613C203.083 77.1776 203.459 76.8699 204.04 76.4255C204.451 76.152 205.544 75.1948 205.032 74.6479C204.963 74.6137 204.929 74.5795 204.895 74.5453C203.938 73.8958 202.434 75.5367 202.023 76.2888C200.485 79.2287 198.776 80.8012 195.426 81.2456C189.17 82.0661 182.811 79.7073 177.171 76.8699C175.94 76.5964 174.744 76.0495 173.718 75.3316C171.325 73.7249 170.641 71.0243 167.872 70.1354C169.171 72.084 169.171 72.8361 168.795 75.0239C168.522 76.6306 166.881 77.3827 166.266 78.7501C165.958 79.468 166.505 79.9808 166.881 80.5277C167.394 81.2456 167.872 82.1344 167.804 83.0574C167.736 84.0488 166.847 84.9718 166.334 85.7581C165.89 86.4418 165.479 87.5357 165.479 88.3561C165.479 89.4159 166.095 90.3389 166.642 91.1251C166.368 90.7149 167.36 84.1172 173.205 84.5274C172.59 85.6555 173.274 87.0229 173.786 88.0143C174.675 89.7236 176.111 91.467 175.427 93.5181C175.188 94.3044 174.675 94.9881 174.368 95.7401C174.197 96.1845 174.094 96.6631 174.162 97.1417C174.06 96.5606 175.188 95.9794 175.598 95.8427C176.248 95.6376 176.829 95.3983 177.444 95.0564C178.709 94.3044 179.495 93.2446 179.803 91.8089C180.008 90.7833 180.384 89.7919 180.931 88.8689C181.17 88.4587 181.41 88.0827 181.615 87.6724C181.717 87.4332 181.854 87.228 182.025 87.0571C182.128 86.9546 182.606 86.7494 182.606 86.6811C182.23 87.6041 181.923 88.1852 182.162 89.2108C182.333 90.0312 182.777 90.7491 183.222 91.467C184.145 92.8344 185.273 94.2018 185.136 95.9453C185.136 96.1846 184.931 96.5606 184.76 96.6973C185.649 95.9111 186.469 95.4667 187.016 94.2702C187.461 93.2788 187.324 92.0481 187.426 90.9884C187.529 90.2363 188.076 89.1766 188.52 88.5613C188.589 89.074 188.452 89.5184 188.623 90.0312C188.794 90.544 189.067 90.9884 189.341 91.3986C189.922 92.2533 190.571 93.0737 190.811 94.1334C191.084 95.3299 190.435 96.3897 189.888 97.4152C191.323 96.1846 193.34 95.6034 193.785 93.5523C194.127 91.9456 193.751 90.1338 195.597 89.3133C195.015 90.2022 194.845 90.9884 195.357 91.9456C195.768 92.7319 196.417 93.3814 196.52 94.3044C196.588 94.8855 196.52 95.2616 196.246 95.7743C196.178 95.9453 196.041 96.082 195.938 96.1846C195.562 96.6631 195.426 97.1759 195.426 97.7571C196.041 96.4922 197.819 96.1162 198.502 94.7488C199.015 93.689 198.776 92.39 199.323 91.3644C199.562 90.92 199.904 90.5782 200.28 90.2705C200.451 90.1338 201.511 89.6552 201.545 89.4843C201.442 90.0996 201.237 90.3389 201.511 90.9884C201.716 91.467 202.023 91.8772 202.434 92.2191C203.288 92.937 204.143 92.9711 205.066 92.4242C204.485 92.766 203.869 92.6635 203.425 92.1507C202.878 91.5354 202.878 90.4756 202.981 89.6894C203.254 87.9459 204.963 87.1597 206.57 87.399C208.45 87.6724 210.091 88.7664 211.937 89.0057C212.484 89.074 213.168 89.1424 213.612 89.4843C214.125 89.8945 214.364 90.6466 214.877 91.091C216.074 92.1507 217.646 91.2619 216.757 89.7577C216.039 88.5271 214.467 88.1852 213.202 87.9117C211.8 87.6041 210.399 86.8178 209.442 85.7239C209.031 85.2795 208.553 84.7325 208.416 84.1514C208.313 83.7753 208.279 83.3993 208.279 83.0233C208.279 82.7498 208.484 82.1686 208.416 81.9293C208.553 82.3396 208.587 82.7498 208.69 83.16C208.69 83.2284 209.031 83.9463 209.031 83.9121C209.168 83.536 209.544 83.3651 209.886 83.16C210.672 82.6814 211.664 82.784 212.552 82.8181C213.27 82.8523 214.091 82.9207 214.809 83.0916C215.253 83.16 215.663 83.2967 216.074 83.5018C216.826 83.7753 217.988 83.7411 218.74 83.3993C219.731 83.0233 220.347 81.5533 219.013 81.0405Z" fill="url(#paint10_linear_11_19701)"/>
<path d="M76.7684 31.5745C78.2726 32.3949 80.0502 32.5317 81.4176 33.5231C80.9048 33.1812 78.2042 33.7282 77.6572 33.8991C76.1531 34.3093 74.8199 35.3007 73.2815 35.7109C71.9825 36.0528 70.7518 36.2579 69.3844 36.2237C69.5553 36.2237 72.0509 38.5825 72.632 38.9927C76.1189 41.3515 80.016 41.5908 83.8447 40.0182C85.9642 39.1636 88.7332 37.4202 90.8527 39.0611C90.4425 38.7534 88.9042 42.1719 88.7332 42.5821C88.5281 43.0607 87.5709 45.0093 86.9556 44.9067C88.1863 45.0777 89.3144 44.9067 90.4767 44.4623C91.639 44.0521 92.4252 42.9924 93.5533 42.5138C94.8182 41.9326 96.0147 42.001 97.2795 42.6505L97.3137 42.6847C97.3479 42.6847 97.4163 42.6847 97.4505 42.6847C97.4846 42.6847 97.4846 42.7531 97.4505 42.7531C95.3993 43.1291 94.408 44.4281 92.9038 45.6588C92.562 45.9323 91.8441 46.1032 92.938 46.2741C94.1345 46.4451 95.2968 46.069 96.3565 45.5904C97.2112 45.2144 98.0658 44.7016 98.9546 44.3939C99.8434 44.0521 100.288 44.394 101.142 44.7016C99.5016 45.1802 97.8265 46.3425 97.4163 48.1201C96.8009 50.855 99.4674 52.9061 101.929 53.077C100.049 52.0856 98.3393 50.308 99.8434 48.2227C101.826 45.4537 105.416 46.9237 107.672 48.3252C115.569 53.2137 118.748 63.2642 118.714 72.084C118.679 82.9207 113.723 92.0823 109.62 101.962C107.877 106.132 106.133 110.303 104.937 114.645C104.322 116.901 103.809 119.26 103.809 121.618C103.809 122.781 103.911 123.943 104.219 125.037C104.493 125.926 104.869 127.396 105.587 128.011C104.048 127.259 103.296 125.721 102.168 124.558C101.108 123.464 99.9802 122.507 98.5786 121.892C97.8265 121.55 97.0402 121.345 96.2198 121.208C96.0489 121.174 94.1687 121.208 94.237 121.276C96.0489 122.815 97.1428 125.071 98.8862 126.712C100.561 128.284 102.681 128.216 104.664 128.797C105.552 129.002 106.407 129.378 107.398 129.857C107.467 129.891 107.433 129.959 107.364 129.959C106.202 129.686 105.005 129.173 103.775 129.242C101.621 129.413 99.9802 131.293 99.023 133.07C98.7153 133.651 98.4418 133.993 97.8949 134.335C97.8607 134.335 97.8607 134.369 97.8607 134.369C99.3648 134.711 100.698 134.848 102.271 133.891C103.159 133.344 103.877 132.626 104.766 132.113C106.339 131.224 108.561 130.472 110.372 130.78C112.116 131.053 113.688 131.942 115.398 132.352C118.269 133.002 121.619 132.25 124.354 131.361C126.781 130.609 129.003 129.344 131.157 128.011C132.764 127.02 134.37 125.994 135.943 124.968C136.9 127.259 137.721 129.891 138.131 132.25C138.78 136.284 138.644 140.147 137.652 144.112C136.969 146.847 135.43 148.83 133.277 150.573C131.738 151.838 129.072 153.069 129.926 155.462C130.166 156.18 130.473 156.795 130.576 157.444C131.431 159.119 132.046 161.239 129.824 162.094C128.73 162.538 127.773 162.572 126.713 162.094C126.542 161.991 126.576 162.128 126.816 162.538C127.363 163.153 128.012 163.461 128.798 163.495C129.79 163.632 130.884 163.29 131.772 162.948C131.978 162.88 132.217 162.982 132.251 163.222C132.388 164.931 130.166 165.546 129.209 166.606C129.277 166.538 127.431 169.751 128.593 169.067C129.482 168.555 130.542 168.418 131.396 167.837C132.251 167.29 132.969 166.606 133.824 166.127C134.815 165.546 135.123 166.811 135.123 167.563C135.088 169.443 133.413 170.742 131.772 171.255C132.285 171.324 132.832 171.255 133.311 171.221C134.268 171.118 135.123 169.649 136.114 169.956C137.139 170.23 137.31 172.11 137.447 173.033C137.686 174.537 137.584 176.349 136.456 177.477C135.43 178.502 133.994 178.844 133.858 180.519C133.789 181.374 133.482 182.297 134.029 183.049C134.541 183.801 135.67 184.04 136.046 183.015C136.422 181.989 135.499 179.767 136.49 179.049C137.857 178.024 139.669 178.4 141.208 178.058C142.917 177.648 144.592 176.725 146.369 176.588C147.703 176.486 149.036 177.203 150.232 177.716C151.702 178.332 153.514 178.297 154.916 179.049C155.634 179.46 155.497 179.357 156.078 179.836C156.693 180.348 157.719 181.511 158.608 181.408C159.428 181.306 160.249 180.348 159.838 179.562C159.428 178.776 158.266 177.716 157.548 177.238C156.112 176.28 154.266 177.101 152.796 176.007C151.497 175.084 150.472 173.511 150.13 171.973C150.164 172.178 150.95 172.725 151.121 172.896C151.429 173.17 151.668 173.272 152.044 173.375C152.899 173.614 153.719 173.648 154.608 173.682C156.181 173.751 158.437 173.135 159.804 174.127C160.591 174.674 161.548 175.631 162.505 174.947C163.599 174.195 162.642 173.101 161.855 172.52C160.932 171.836 159.702 170.708 158.403 171.118C155.736 171.973 152.865 170.674 150.916 168.862C150.882 168.828 150.916 168.794 150.95 168.794C151.292 168.965 151.668 169.136 151.976 169.307C154.198 168.349 155.463 165.444 157.992 165.17C158.539 165.102 159.121 165.273 159.599 165.512C160.112 165.786 160.488 166.196 161.069 166.23C162.163 166.298 162.915 165.068 162.163 164.213C161.445 163.393 160.214 163.085 159.189 162.846C157.822 162.538 156.899 162.641 156.078 163.769C155.189 164.999 153.993 165.649 152.66 166.298C151.463 166.88 150.198 167.803 148.797 167.597C147.224 167.358 145.515 165.888 144.66 164.623C141.242 159.666 139.532 155.12 140.285 150.573C140.319 152.009 141.276 153.923 141.549 155.291C141.754 153.821 142.062 153.24 142.677 151.804C144.284 148.078 155.463 137.446 157.104 133.822C158.539 130.677 156.625 127.259 155.429 124.353C154.232 121.447 152.66 118.131 152.728 114.918C152.83 109.483 157.309 106.611 161.514 104.013C164.522 102.167 166.812 100.116 169 97.381C170.983 94.9197 172.829 92.8002 173.171 89.621C172.316 89.1424 172.248 86.7836 171.598 86.5785C171.154 86.4417 170.47 86.6127 170.094 86.8178C168.966 87.4673 167.872 88.6296 167.291 89.7919C166.641 91.0909 166.846 92.1849 167.257 93.4497C166.641 92.8344 165.992 92.4583 165.479 91.6721C165.035 90.9542 164.693 90.0654 164.624 89.2107C164.556 88.4587 164.59 87.4673 164.898 86.7494C165.24 85.9632 165.821 85.2794 166.231 84.4932C166.402 84.1513 166.505 83.6727 166.505 83.2967C165.547 83.2625 164.317 82.7156 163.599 82.066C162.949 81.4507 162.539 80.4935 162.231 79.6731C161.719 78.2031 161.855 76.4939 161.514 74.9213C161.24 73.759 160.761 71.7763 159.428 71.2977C159.873 72.4942 159.086 73.4172 158.334 74.2718C157.548 75.1264 156.933 75.9127 156.488 77.0066C155.873 78.5108 155.873 80.9379 156.967 82.2711C156.215 81.7926 155.36 81.4849 154.642 80.8354C153.719 80.0491 153.07 79.2287 152.523 78.1689C151.942 77.0408 151.942 75.9811 151.907 74.7162C151.907 73.7932 152.078 72.5967 151.805 71.7079C151.531 72.6993 150.643 73.2463 149.891 73.8616C149.173 74.4427 148.592 75.1264 148.215 75.9469C147.463 77.5878 147.703 79.7073 147.634 81.4507C147.532 83.4676 147.361 85.4504 147.087 87.4331C146.575 91.3986 145.686 95.3299 144.523 99.1586C143.874 101.278 143.122 103.363 142.301 105.415C138.575 114.542 131.909 126.438 121.551 129.002C117.586 129.994 113.552 129.823 110.236 127.225C107.398 125.003 106.304 121.276 106.304 117.824C106.304 112.935 116.457 90.92 117.312 88.3561C118.064 86.1341 120.184 85.1085 121.995 83.8779C123.055 83.16 123.602 82.2028 124.081 81.0405C124.149 80.9037 124.559 79.9466 124.081 80.2884C123.807 80.4935 123.363 80.6644 123.055 80.8354C122.064 81.314 121.038 81.5874 120.115 82.2028C119.397 82.6814 118.919 83.5702 118.44 84.2881C118.816 82.3053 120.047 80.9037 121.927 80.0833C123.226 79.5022 123.773 78.2715 124.696 77.3485C124.149 77.5536 123.602 77.6903 123.055 77.8613C121.893 78.2031 121.209 79.3654 120.457 80.22C120.423 80.2542 120.594 79.2629 120.628 79.1261C120.731 78.6133 120.867 78.1347 121.038 77.6561C121.414 76.7331 121.961 75.8785 122.816 75.3999C123.192 75.1606 123.602 75.0581 124.012 74.9555C123.568 74.8871 123.124 74.9555 122.713 75.0239C120.97 75.2974 119.979 76.699 119.124 78.0664C119.021 76.4255 119.705 74.5453 119.876 72.9044C120.047 71.2293 120.149 69.5543 120.115 67.9134C120.047 65.5888 119.739 63.2642 118.987 61.0421C118.645 60.085 118.269 59.162 117.859 58.2731C115.979 54.2051 112.697 50.6157 109.279 47.7441C103.091 42.5138 95.16 39.4371 88.2205 35.4032C83.3662 32.6001 78.3751 28.1218 81.0074 22.071C82.8192 17.9346 87.7077 16.2595 91.1262 19.3704C89.1776 15.8835 84.9729 15.4049 81.4518 16.5672C79.0588 17.3535 77.3837 18.926 76.9052 21.4899C76.7 22.5496 76.8368 23.6093 77.1444 24.6349C77.4179 25.5579 78.1358 26.4467 78.2042 27.4381C77.8282 27.4039 77.5889 26.7886 77.3837 26.5151C77.0419 26.0707 76.7 25.6263 76.324 25.2161C75.4694 24.3614 74.5122 23.6093 73.4524 23.0966C71.9483 22.3445 70.1707 22.2078 68.564 21.7292C69.9997 23.917 71.0253 26.3442 72.7346 28.3611C74.0336 29.7627 75.2984 30.8224 76.7684 31.5745Z" fill="url(#paint11_linear_11_19701)"/>
<path d="M103.022 123.943C103.433 124.49 103.809 125.105 104.185 125.755C103.501 124.353 103.262 122.712 103.262 121.037C103.193 120.456 103.091 119.909 102.92 119.328C102.476 118.097 101.484 117.106 100.869 115.943C100.869 115.943 100.527 115.191 100.527 115.26C100.288 116.114 100.117 116.935 100.014 117.824C99.8775 119.054 100.117 120.353 100.698 121.447C101.245 122.439 102.305 123.02 103.022 123.943Z" fill="url(#paint12_linear_11_19701)"/>
<path d="M163.394 164.281C163.428 164.589 163.428 164.863 163.394 165.102C163.906 164.999 164.624 165.273 165.069 165.409C165.582 165.58 166.129 165.786 166.607 166.093C165.787 165.068 164.624 164.589 163.394 164.281Z" fill="url(#paint13_linear_11_19701)"/>
<path d="M200.211 139.976C200.211 140.249 200.177 140.523 200.143 140.762C200.656 140.694 201.305 141.001 201.681 141.172C202.16 141.377 202.638 141.617 203.049 141.924C202.399 140.933 201.374 140.386 200.211 139.976Z" fill="url(#paint14_linear_11_19701)"/>
<path d="M204.997 74.0326C205.51 73.007 206.228 72.1866 207.288 71.7763C206.228 71.708 205.168 72.2549 204.689 73.2463C204.587 73.4514 204.519 73.6565 204.382 73.8275C204.621 73.8616 204.792 73.93 204.997 74.0326Z" fill="url(#paint15_linear_11_19701)"/>
<path d="M166.163 175.904C165.548 174.879 164.762 174.093 163.804 173.375C163.873 173.58 163.907 173.785 163.873 173.99C163.873 174.127 163.839 174.264 163.804 174.366C164.659 174.845 165.411 175.357 166.163 175.904Z" fill="url(#paint16_linear_11_19701)"/>
<path d="M199.903 149.24C199.903 149.377 199.869 149.479 199.835 149.616C200.553 150.094 201.271 150.641 201.92 151.223C201.442 150.197 200.724 149.411 199.903 148.659C199.903 148.83 199.903 149.035 199.903 149.24Z" fill="url(#paint17_linear_11_19701)"/>
<path d="M160.625 180.007C160.591 180.383 160.386 180.724 160.112 180.998C160.796 181.135 161.753 182.092 162.402 182.741C162.163 182.058 161.821 181.442 161.377 180.827C161.172 180.519 160.864 180.28 160.625 180.007Z" fill="url(#paint18_linear_11_19701)"/>
<path d="M188.281 45.4195C189.101 46.2742 189.887 47.1288 189.99 48.3253C189.99 48.3595 189.956 48.3937 189.921 48.3595C189.204 46.7528 187.528 46.2742 186.674 44.8042C186.264 44.0863 185.99 43.4026 185.751 42.6164C185.546 41.8985 185.648 39.7106 184.623 39.5397C184.383 38.6509 184.486 37.6253 184.828 36.9074C184.178 37.6595 184.11 38.6509 184.11 39.6081C184.076 39.6422 184.007 39.6422 183.973 39.6764C183.597 39.8474 183.324 40.3943 183.529 41.7275C183.7 42.7873 184.247 43.7787 184.828 44.6675C185.375 45.5563 186.093 46.4451 186.298 47.5048C186.811 50.1371 185.58 52.8377 184.349 55.1281C183.05 57.5895 181.238 59.7773 179.119 61.5891C177.307 63.1275 175.153 64.9051 172.76 65.3837C173.718 66.6144 174.572 67.9134 175.529 69.1441C176.247 70.0671 177.068 70.8875 177.991 71.5712C179.358 72.4942 181.751 73.1096 182.777 71.3319C183.29 70.4773 182.708 69.315 181.922 68.8706C182.059 68.9048 182.64 69.1099 183.255 69.5543C183.324 69.6227 183.426 69.691 183.495 69.7252H183.529C186.64 69.0757 187.46 72.3233 188.315 74.5111C188.486 74.9556 188.725 75.3658 188.998 75.776C188.93 75.6734 189.101 75.229 189.169 75.0923C189.58 74.2377 190.127 73.5198 190.503 72.6651C191.015 71.4003 190.605 69.862 190.092 68.6655C189.819 68.016 189.443 67.3664 188.964 66.8195C188.793 66.6144 187.665 65.5888 187.392 65.7255C188.52 65.1786 190.263 65.9648 191.152 66.6827C191.665 67.093 192.109 67.6057 192.485 68.1185C192.656 68.392 193.545 69.5201 193.408 69.8278C193.989 68.1869 193.272 65.7939 191.87 64.5632C190.605 64.153 189.477 63.2642 188.759 62.1019C188.759 62.0677 188.793 62.0677 188.793 62.0677C189.819 63.3326 191.084 63.9479 192.656 64.2898C193.306 64.4265 193.955 64.4607 194.605 64.4265C194.844 64.4265 195.459 64.0847 195.63 64.153C194.16 63.777 192.896 62.8198 191.973 61.6233C191.186 60.5636 190.195 59.0594 190.297 57.692C190.708 59.4355 193.032 60.4268 194.571 60.9054C195.459 61.1789 196.451 61.555 197.1 62.2728C197.852 63.0933 199.015 64.4949 197.75 65.6914C200.382 65.076 199.664 62.3412 198.536 60.7345C197.784 59.6748 196.724 58.8885 195.665 58.1706C194.536 57.3844 192.759 55.8118 192.861 54.2735C193.716 55.3674 194.776 55.3332 196.041 55.5384C196.724 55.6409 197.408 55.8118 198.058 56.017C198.297 56.0853 199.904 56.6665 199.869 56.94C200.177 54.923 196.758 54.0684 195.733 52.9403C194.981 52.1198 195.289 50.6157 195.596 49.6243C195.972 48.5304 196.724 47.6416 197.784 47.163C198.57 46.8553 199.254 46.7186 200.109 46.7186C200.929 46.7186 201.818 47.0262 202.604 47.163C203.151 47.2655 203.903 47.6758 204.313 47.1972C204.689 46.7528 204.689 45.9665 204.382 45.4879C203.903 44.8042 202.809 45.0435 202.091 44.8384C201.51 44.7016 200.895 44.3256 200.28 44.2914C199.357 44.2231 198.536 44.8726 197.579 44.8042C197.237 44.77 196.656 44.394 196.348 44.4965C195.938 44.5991 195.938 45.2144 195.87 45.5221C195.528 44.6675 195.835 43.1975 196.28 42.4112C196.69 41.6592 197.374 41.0438 198.16 40.7362C197.75 40.7704 197.408 40.8045 197.1 40.9071C197.066 40.9071 197.032 40.8729 197.066 40.8387C197.647 40.4627 198.194 40.1208 198.912 39.9499C199.698 39.7448 201.955 40.2918 201.408 38.6167C201.032 37.4202 199.801 37.7621 199.117 38.4458C198.228 39.3346 196.485 39.0269 195.357 39.5739C194.742 39.8815 194.366 40.4285 193.819 40.8045C193.511 41.0097 193.101 41.2831 192.725 41.2831C192.827 41.7617 192.896 42.2403 192.998 42.7531C192.896 42.2745 192.246 41.8643 192.109 41.3173C192.007 40.8387 192.075 40.155 192.178 39.6764C192.28 39.0611 192.622 38.5483 192.998 38.0697C193.443 37.4886 193.955 37.1467 194.639 36.8391C195.22 36.5998 195.87 36.2579 195.801 35.5742C195.801 35.3691 195.665 35.0956 195.459 34.8563C195.596 34.9589 195.767 35.0956 195.904 35.2665C196.212 34.4803 196.998 34.0017 197.75 33.5915C197.1 33.6256 196.485 33.7966 195.904 34.2068C195.665 34.3435 195.494 34.5486 195.323 34.6512C195.118 34.4461 194.878 34.2752 194.673 34.2752C193.716 34.1726 193.135 35.6768 192.793 36.3605C192.075 37.6253 190.776 38.4116 190.571 39.9499C190.229 41.9327 189.614 43.8812 188.281 45.4195Z" fill="url(#paint19_linear_11_19701)"/>
<path d="M134.165 183.767C134.029 184.28 133.892 184.758 133.926 185.374C133.96 186.126 134.234 186.844 134.61 187.493C134.576 186.502 134.473 184.895 135.02 184.143C134.678 184.075 134.405 183.938 134.165 183.767Z" fill="url(#paint20_linear_11_19701)"/>
<path d="M190.435 144.488C191.084 144.078 191.563 143.497 192.144 143.052C193.067 142.334 194.058 141.617 195.255 141.582C195.767 141.582 196.314 141.788 196.759 142.061C197.203 142.335 197.545 142.779 198.092 142.847C199.118 142.984 199.938 141.89 199.288 141.035C198.673 140.215 197.545 139.805 196.588 139.497C195.323 139.121 194.434 138.984 193.511 139.942C191.289 142.232 187.7 143.497 186.401 143.189C184.931 142.847 183.597 141.206 182.743 140.044C181.615 138.54 180.931 136.728 180.35 134.95C179.803 133.241 179.495 131.532 179.495 129.72C179.495 127.122 180.828 124.558 180.692 121.994C180.589 120.285 179.427 119.567 178.265 118.542C177.376 117.755 176.76 117.858 175.598 117.824C174.026 117.824 167.77 117.208 166.163 116.764C163.838 116.149 161.514 115.328 159.258 114.474C158.232 114.098 157.275 113.551 156.352 112.969C155.907 112.628 155.976 111.67 155.497 111.329C154.506 112.969 154.027 114.918 154.472 117.482C155.258 121.892 158.642 126.267 158.984 130.848C161.685 129.959 164.009 129.447 166.881 129.652C167.496 129.686 168.522 129.857 169.479 130.199C170.915 130.712 172.18 131.635 171.462 133.07C171.052 133.959 170.06 134.062 169.274 133.686C169.855 134.233 170.607 134.506 171.564 134.369C172.453 134.233 173.41 133.857 174.265 134.369C173.513 134.404 173.068 135.327 172.898 135.566C172.487 136.113 172.18 136.762 171.53 137.07C170.812 137.412 170.026 137.583 169.308 137.993C168.932 138.198 167.701 139.326 168.693 138.745C169.308 138.403 170.197 138.779 170.812 138.984C172.18 139.463 175.154 139.326 175.393 137.412C175.393 138.266 175.29 138.506 174.778 139.189C174.231 139.907 173.444 140.42 172.932 141.275C172.487 141.993 172.18 142.881 171.53 143.394C171.564 143.394 171.598 143.394 171.633 143.394C172.897 143.565 175.29 142.95 175.496 141.411C175.29 143.189 173.991 145.616 172.385 146.573C172.111 146.744 171.769 146.813 171.462 146.847C171.872 146.813 172.658 147.052 173.171 147.052C174.675 146.984 175.598 146.3 176.624 145.274C176.658 145.24 176.726 145.309 176.692 145.343C176.179 146.163 175.701 146.847 174.88 147.223C174.914 148.454 175.188 150.231 174.162 151.223C172.966 152.385 171.428 152.351 171.154 154.163C171.052 154.812 170.778 155.496 170.949 156.145C170.778 156.59 170.641 157.034 170.607 157.547C170.573 158.265 170.778 158.983 171.086 159.598C171.12 158.846 171.154 157.752 171.462 156.966C171.975 157.376 172.692 157.444 173.034 156.726C173.479 155.769 172.795 153.616 173.752 153C175.154 152.146 176.795 152.658 178.299 152.419C179.94 152.18 181.615 151.428 183.29 151.462C184.555 151.496 185.751 152.248 186.845 152.829C188.178 153.547 189.922 153.65 191.152 154.47C191.802 154.915 191.665 154.812 192.212 155.325C192.759 155.872 193.648 157.034 194.468 157C195.186 157 195.973 156.282 195.836 155.564C196.451 155.803 197.237 156.692 197.75 157.342C197.579 156.692 197.306 156.077 196.93 155.462C196.759 155.154 196.485 154.915 196.28 154.607C196.212 154.915 196.041 155.188 195.802 155.427C195.802 155.393 195.802 155.359 195.767 155.359C195.426 154.573 194.434 153.479 193.785 152.966C192.486 151.941 190.708 152.556 189.409 151.428C188.281 150.436 187.426 148.898 187.187 147.394C187.221 147.599 187.905 148.146 188.076 148.317C188.349 148.59 188.554 148.727 188.93 148.864C189.717 149.172 190.503 149.24 191.323 149.377C192.827 149.582 194.981 149.172 196.212 150.197C196.896 150.778 197.75 151.735 198.707 151.188C199.801 150.539 198.981 149.445 198.297 148.83C197.477 148.112 196.383 146.915 195.152 147.223C192.554 147.804 189.956 146.368 188.247 144.454C188.212 144.42 188.281 144.386 188.315 144.386C189.17 144.898 189.614 145.035 190.435 144.488Z" fill="url(#paint21_linear_11_19701)"/>
<path d="M168.214 69.144C169.273 69.6568 170.06 70.5456 170.777 71.4686C171.495 72.3574 172.145 73.3146 172.965 74.1009C173.581 74.682 174.264 75.1606 174.982 75.5366C175.427 75.7418 175.871 75.9127 176.281 76.1178C177.204 76.4255 178.196 76.5964 179.255 76.5622C182.332 76.4596 185.682 73.3146 183.187 70.8191C183.289 71.1609 183.46 71.8446 183.289 72.2207C182.469 74.1009 181.17 74.1692 179.324 73.6223C176.828 72.8702 175.153 70.4089 173.717 68.3919C172.726 67.0245 171.7 65.6229 170.47 64.4265C169.889 63.8795 169.171 63.606 168.521 63.1616C167.906 62.7514 167.256 62.3753 166.538 62.1019C164.385 61.3498 162.573 60.9737 161.445 58.8201C162.265 59.3329 162.846 60.0849 163.804 60.4268C164.829 60.8028 165.821 61.0421 166.915 60.8028C168.145 60.5293 169.273 60.0849 170.538 59.914C170.948 59.8798 171.393 59.8456 171.803 59.8798C173.273 59.7431 174.777 60.0166 176.145 60.461C176.384 60.5293 176.623 60.6319 176.862 60.7345C176.521 59.7089 174.914 58.5808 173.957 58.2047C172.247 57.521 170.333 57.2817 168.555 57.0424C166.026 56.7006 163.222 56.4955 161.035 55.1281C160.18 54.7178 159.394 54.1709 158.676 53.453C157.138 51.9147 157.855 49.8977 159.189 48.5987C159.394 48.2568 159.633 47.9492 159.941 47.7783C160.248 47.6073 160.624 47.5048 161 47.5048C161.069 47.5048 161.137 47.5048 161.206 47.5048H161.24C161.308 47.5048 161.376 47.539 161.479 47.5731C161.479 47.5731 161.513 47.5731 161.513 47.6073C161.582 47.6415 161.65 47.6757 161.684 47.7099C161.753 47.7783 161.821 47.8124 161.889 47.915C162.368 48.5987 162.402 49.6926 163.633 49.6243C164.795 49.5559 166.094 48.6329 167.291 48.3936C169 48.0517 170.572 48.7696 171.632 50.1028C171.871 50.4105 172.042 51.0942 171.871 51.4703C171.427 52.5642 170.606 54.2051 172.179 55.1623C171.803 54.1709 172.179 52.6667 173.683 51.9147C175.358 51.0942 176.145 49.385 174.845 47.7099C173.854 46.4108 172.35 46.8894 171.017 46.4109C169.889 46.0006 169.307 44.599 169.889 43.5393C170.401 42.5821 172.521 42.4112 172.418 41.1463C172.35 40.2575 170.88 39.8131 170.196 39.7447C168.897 39.608 167.393 39.9498 166.128 40.3259C165.992 40.3601 165.821 40.4284 165.684 40.4626C165.068 40.6677 164.453 40.9754 163.769 41.3173C163.086 41.6591 162.368 42.0351 161.65 42.3428C161.582 42.377 161.513 42.4112 161.479 42.4112C161.479 42.4112 161.479 42.4112 161.445 42.4112C159.975 43.0265 158.539 43.4026 157.377 42.7872C157.103 42.6847 156.796 42.5137 156.522 42.3086C156.556 42.3428 156.556 42.377 156.556 42.4112C155.77 41.83 155.292 41.1805 155.086 40.4968V40.4626C154.471 38.4799 155.975 36.2237 157.616 34.7195C160.248 32.3265 162.881 31.7796 166.333 31.677C168.282 31.6428 169.854 32.1898 171.222 30.4464C172.247 29.1131 172.213 27.3697 171.359 25.9681C169.752 23.37 167.359 24.5323 165.068 25.3186C163.633 25.7972 162.163 26.0707 160.659 25.763C159.36 25.4895 158.402 24.4639 157.103 24.2588C155.873 24.0879 150.574 24.9425 149.275 25.4553C147.258 26.2758 145.685 27.8825 143.532 28.3952C141.412 28.8738 139.464 28.3952 137.789 27.0278C136.148 25.6604 136.558 23.4042 137.96 22.618C136.968 23.1649 136.25 23.6093 135.84 24.7374C135.464 25.763 135.806 27.3013 136.319 28.2243C137.071 29.6601 138.678 29.9336 140.147 30.1045C141.72 30.3096 143.224 30.2413 144.557 29.3182C144.216 30.002 143.532 30.4805 142.814 30.7882C141.993 31.1301 141.344 30.925 140.489 30.9933C138.541 31.0959 136.729 31.7112 135.122 32.8393C134.849 33.0103 132.49 34.8221 132.798 35.1297C133.379 35.7792 133.994 36.4288 134.609 37.0441C135.498 37.9671 136.524 38.7534 137.72 39.3003C138.814 39.8131 140.284 39.8473 141.207 40.5994C140.524 40.5652 139.942 40.4284 139.224 40.5994C138.609 40.7361 137.925 41.1463 137.31 41.1121C138.233 41.6249 139.43 41.2831 140.421 41.3514C140.934 41.3514 141.447 41.4198 141.891 41.6933C142.267 41.9326 142.711 42.3428 142.916 42.753C141.925 42.5479 141.105 42.4796 140.182 43.0265C139.43 43.5051 139.054 44.4965 138.096 44.5307C138.883 44.7016 139.669 44.8041 140.489 44.6674C141.857 44.4623 144.797 43.2316 145.754 44.9409C144.968 44.8725 144.045 45.8639 143.566 46.6843C143.122 47.4022 143.122 48.9747 142.301 49.3166C143.395 48.9406 144.113 48.1201 145.139 47.7441C145.925 47.4706 146.779 47.2313 147.6 47.2997C148.215 47.3339 149.138 47.4706 149.651 47.915C148.489 47.9834 147.805 48.9406 147.497 49.9661C147.361 50.4789 147.258 51.06 147.258 51.607C147.292 51.983 147.292 52.6326 147.566 53.1795C147.976 52.154 148.386 51.1968 149.241 50.5131C150.198 49.7268 151.258 49.0431 152.317 48.4278C152.112 48.5645 153.275 51.1284 153.275 51.4361C153.377 52.6326 153.275 53.7265 152.693 54.8204C153.138 54.7178 153.924 54.5127 154.505 53.453C154.847 52.8719 154.881 52.0514 155.086 51.4019C155.565 49.8977 155.838 48.5303 157.719 48.3252C156.522 48.462 155.668 49.9319 155.599 51.0259C155.531 52.2907 156.112 53.6239 155.189 54.7179C154.437 55.6067 153.48 56.2562 152.352 56.5639C151.77 56.7348 151.223 56.8032 150.608 56.7348C150.984 56.2562 151.497 55.8802 151.839 55.3332C152.488 54.2734 152.112 52.6667 151.839 51.5386C151.497 49.9319 150.916 50.4789 149.822 51.2651C148.625 52.154 148.249 53.4872 148.318 54.923C148.352 55.6067 148.66 56.2562 148.66 56.9399C148.66 56.8373 147.942 56.3246 147.839 56.1878C147.566 55.8802 147.326 55.5383 147.121 55.1964C146.711 54.4786 146.335 53.7607 146.335 52.906C146.335 51.8121 146.062 50.7524 146.608 49.7268C146.779 49.385 147.908 48.1885 147.155 48.1543C146.472 48.0859 145.549 48.7696 144.968 49.1115C144.386 49.4533 143.839 49.761 143.327 50.1712C142.472 50.8207 141.617 51.3335 140.524 51.1626C140.216 51.1284 140.079 50.8891 139.84 50.8549C141.31 50.9575 140.968 48.0517 141.207 47.2313C141.31 46.8894 142.233 45.4878 143.293 44.9751C142.301 44.77 141.241 45.4195 140.284 45.6588C139.361 45.8981 138.37 46.0006 137.413 45.8639C136.968 45.7955 136.558 45.6588 136.148 45.4537C135.84 45.2827 135.293 44.7358 134.986 44.7016C135.806 44.8383 136.558 44.4281 137.208 44.0179C138.131 43.4367 138.472 42.5137 139.532 42.1377C138.848 42.377 137.994 42.2403 137.31 42.001C136.934 41.8642 136.592 41.6591 136.319 41.3514C136.25 41.2831 135.84 40.531 135.874 40.4968C136.25 40.2917 137.105 40.3601 137.344 40.3943C137.139 40.3943 136.797 39.984 136.592 39.9157C136.285 39.8131 135.977 39.7789 135.669 39.7789C134.986 39.7447 134.473 39.984 133.892 40.3601C132.661 41.1805 131.738 42.4796 131.123 43.8128C130.063 46.069 130.952 48.6329 131.567 50.8891C131.977 52.4958 131.977 55.6067 129.721 56.3587C126.439 57.4527 125.79 53.077 127.636 52.3591C125.482 52.5984 124.286 54.5469 124.969 56.769C125.619 58.8885 127.772 59.6747 129.789 59.6063C130.439 59.5722 131.054 59.4012 131.567 58.991C132.422 58.3415 132.763 57.2817 133.14 56.3246C133.345 55.8118 133.516 55.3332 133.789 54.8546C133.926 54.6153 134.063 54.376 134.199 54.1709C134.404 53.9316 134.746 53.5897 135.02 53.4872C134.507 54.5127 134.37 54.8888 134.199 55.6409C133.926 56.8031 134.028 58.0338 134.473 59.1619C134.951 60.3584 135.772 61.384 136.661 62.2728C137.857 63.4693 139.327 65.3153 138.883 67.1613C138.541 68.5629 137.72 70.1012 136.114 70.3405C135.738 70.4089 135.191 70.2379 134.746 69.9645C135.909 71.4686 138.814 70.6823 139.977 69.691C141.412 68.4945 141.515 66.6485 141.276 64.9392C141.207 64.4948 141.139 64.0162 141.07 63.5718C140.968 62.7856 140.9 61.9993 141.07 61.2472C141.139 60.8712 141.31 60.5293 141.481 60.1533C141.617 59.8798 141.857 59.4696 142.13 59.2645C141.959 59.7089 141.925 59.8114 141.925 60.1191C141.925 60.3584 141.993 60.5977 142.096 60.837C142.78 62.7514 144.899 63.6744 145.72 65.452C146.438 67.0245 146.677 68.3577 145.891 69.9303C144.66 72.4942 142.472 73.5197 143.805 76.7331C144.079 77.4168 144.455 78.1689 144.318 78.8868C145.275 77.5536 144.728 75.5708 145.993 74.4085C146.54 73.8958 147.326 73.7248 148.01 73.4172C148.796 73.0753 149.583 72.6651 150.3 72.1523C150.677 71.8788 150.984 71.537 151.155 71.0926C151.258 70.8875 151.292 70.6823 151.258 70.443C151.223 70.2038 151.018 69.691 150.813 69.52C152.317 69.1782 152.796 70.8533 152.967 71.9814C153.172 73.212 152.796 74.6136 152.899 75.8443C153.069 78.0322 154.471 79.3312 156.146 80.4935C155.394 79.9807 155.907 77.1092 156.283 76.3571C156.454 76.0152 156.727 75.7418 156.932 75.4683C157.616 74.5795 158.266 73.7248 158.778 72.7334C158.984 72.3232 159.154 71.8788 159.154 71.4344C159.154 71.1951 159.086 70.99 158.949 70.8191C158.813 70.614 158.334 70.3063 158.061 70.3405C158.197 70.2721 158.368 70.2379 158.505 70.2379C158.915 70.1354 159.394 70.0328 159.838 70.1696C160.146 70.2721 160.453 70.4772 160.693 70.6823C161.342 71.1609 161.684 71.9814 161.958 72.6651C162.299 73.5197 162.505 74.4769 162.676 75.3657C162.846 76.2545 162.983 77.1433 163.12 78.0663C163.222 78.7159 163.359 79.3312 163.564 79.9807C163.872 80.9037 164.453 81.5532 165.308 81.9293C165.239 81.5874 165.068 80.9721 165.103 80.596C165.171 79.6047 165.376 78.9893 165.923 78.1689C166.47 77.3485 167.256 76.6989 167.838 75.8785C168.179 75.4341 168.384 74.8871 168.487 74.3402C168.658 73.3146 168.453 72.289 168.111 71.2977C167.94 70.8191 167.154 69.2124 166.368 68.8363C166.983 68.768 167.564 68.8363 168.214 69.144ZM142.882 36.4971C142.643 35.6767 142.404 34.8904 141.754 34.2409C140.25 32.6684 138.37 32.9761 136.455 33.4205C136.421 33.4205 136.421 33.3863 136.455 33.3863C137.857 32.7368 140.011 31.9163 141.549 32.3607C143.224 32.8393 143.122 35.1297 142.882 36.4971ZM152.762 30.0703C152.386 30.002 152.044 29.8994 151.736 29.7285C151.292 29.4892 150.642 28.7713 150.813 28.2243C149.754 28.532 148.728 29.1131 147.771 30.1387C147.737 30.1729 147.634 30.1387 147.668 30.0703C147.942 29.4892 148.386 29.0106 148.728 28.4636C149.07 27.9167 149.446 27.4039 150.027 27.0962C151.463 26.31 153.309 26.3783 154.847 26.686C156.454 26.9937 158.3 27.8483 159.907 27.1988C158.949 27.8825 157.89 28.2243 156.659 28.1218C156.317 28.0876 155.702 27.9167 155.36 28.0192C155.018 28.1218 155.189 27.985 155.155 28.2927C155.155 28.532 155.326 28.7029 155.257 28.9764C155.189 29.2157 154.984 29.455 154.813 29.6259C154.3 30.0703 153.514 30.1729 152.762 30.0703Z" fill="url(#paint22_linear_11_19701)"/>
<path d="M151.839 28.2244C151.702 28.3953 151.77 28.6004 152.112 28.8397C152.625 29.1474 153.822 29.079 154.3 28.7713C154.574 28.6004 154.642 28.156 154.915 27.9851C154.129 27.9167 153.343 27.8825 152.522 27.9509C152.249 27.9167 151.941 28.0535 151.839 28.2244Z" fill="url(#paint23_linear_11_19701)"/>
<path d="M56.4091 329.507C55.828 330.738 54.8024 331.764 53.8111 332.584L53.6402 332.721C52.8881 333.336 52.136 334.02 51.2814 334.396C50.4267 334.772 49.6063 334.84 48.7858 334.84C46.1194 333.097 43.0085 331.969 39.5558 331.524C36.1031 331.08 32.6162 331.148 29.2319 331.764C31.0437 329.2 33.676 328.926 34.5648 328.824C34.7015 328.824 34.8041 328.79 34.8725 328.79C37.0261 328.277 39.4191 328.243 42.3932 328.721C43.0427 328.824 43.6581 328.926 44.3076 329.063C48.2731 329.747 52.3753 330.43 56.4091 329.507Z" fill="url(#paint24_linear_11_19701)"/>
<path d="M124.609 219.67C124.814 218.747 125.019 217.824 125.19 216.936C125.326 216.218 125.463 215.534 125.634 214.816C125.703 214.577 125.703 214.372 125.634 214.201C125.566 214.03 125.429 213.927 125.292 213.859C124.985 213.756 124.403 213.825 122.66 215.124L122.592 215.192C121.053 216.252 119.447 216.696 117.737 217.175C118.284 215.26 120.267 213.209 123.515 211.227C124.233 210.816 124.985 210.406 125.703 210.03C127.856 208.936 130.078 207.774 131.446 205.518C133.565 201.997 133.907 197.518 132.369 192.527C133.531 193.211 134.488 194.715 135.035 196.083C135.103 196.254 135.172 196.424 135.206 196.595C135.924 198.954 136.163 201.381 135.992 203.843C135.821 206.099 135.514 208.458 134.146 210.475C133.77 211.056 133.326 211.603 132.916 212.115L132.676 212.423C132.232 212.833 131.582 213.483 130.864 214.269C128.984 216.218 126.181 219.123 124.609 219.67Z" fill="url(#paint25_linear_11_19701)"/>
<path d="M99.9613 233.857C101.671 238.301 102.32 241.822 101.978 245.036C101.773 247.087 101.226 248.899 100.679 250.813C100.371 251.873 100.064 253.001 99.7903 254.129C99.7562 254.266 99.7562 254.402 99.7903 254.539C99.6536 254.984 99.4827 255.462 99.3459 255.941C99.0383 253.685 98.4913 251.497 97.6709 249.377C97.1581 248.078 96.5427 246.779 95.859 245.583C95.8249 245.514 93.1926 241.31 91.5175 239.669C92.2354 239.874 93.1584 240.352 93.8763 240.728C95.1411 241.378 95.6881 241.651 96.03 241.446C96.1667 241.378 96.2351 241.241 96.2351 241.07C96.3035 240.011 96.1325 238.985 95.7223 237.925C95.1412 236.455 94.1498 235.122 93.2268 233.857C92.2696 232.592 91.3124 231.293 90.7313 229.823C90.5603 229.413 90.4578 228.969 90.3552 228.558C89.5348 224.559 89.945 219.602 93.5003 217.209C93.637 219.089 94.0814 220.935 94.8677 222.986C95.5514 224.798 96.4402 226.542 97.329 228.251C97.5341 228.661 97.7392 229.071 97.9443 229.481C97.9443 229.481 97.9443 229.516 97.9443 229.55C97.9443 229.584 97.9785 229.652 97.9785 229.687C98.0127 229.823 98.0811 229.926 98.1836 229.994C98.6622 230.951 99.2776 232.25 99.7903 233.584L99.9613 233.857Z" fill="url(#paint26_linear_11_19701)"/>
<path d="M99.5852 229.037L99.551 228.969C98.4912 226.234 98.081 215.021 98.9356 212.287C100.269 207.945 101.67 203.809 103.995 200.424C106.251 197.108 110.49 193.656 115.003 194.818C116.541 195.228 117.772 196.322 118.387 197.826C118.695 198.612 118.797 199.501 118.695 200.356C118.524 201.894 118.114 202.92 117.43 203.398C117.02 203.706 116.507 203.774 115.892 203.603C115.208 203.433 114.798 203.125 114.627 202.68C114.319 201.86 114.866 200.629 115.174 199.911C115.379 199.433 115.481 199.228 115.413 199.023L115.379 198.92L115.242 198.852C113.635 197.963 111.892 197.86 110.08 198.51C105.67 200.082 102.115 205.552 100.918 208.629C98.4912 214.816 98.457 222.405 100.816 231.293C100.747 231.191 100.679 231.088 100.645 230.986C100.235 230.268 99.8244 229.653 99.5852 229.037Z" fill="url(#paint27_linear_11_19701)"/>
<path d="M121.771 226.063C122.045 225.755 122.284 225.414 122.523 225.072C122.865 224.593 123.002 224.046 123.139 223.533C123.276 223.123 123.378 222.747 123.549 222.405C124.164 221.38 125.224 220.799 126.318 220.217C127.07 219.807 127.822 219.397 128.472 218.816C129.258 218.098 130.01 217.346 130.762 216.628C132.676 214.714 134.488 212.902 137.018 211.671C138.385 210.987 139.958 210.269 141.633 209.962C142.248 209.859 143.205 209.757 144.06 209.996C144.573 210.167 145.53 210.714 145.906 211.192C145.564 211.5 144.983 212.15 144.128 213.073C143.171 214.132 142.077 215.295 141.462 215.842C140.881 216.354 140.3 216.901 139.719 217.414C138.761 218.269 137.804 219.158 136.813 220.012C135.104 221.448 132.745 222.781 130.625 223.841C130.454 223.909 130.283 224.012 130.078 224.08C129.019 224.491 127.685 224.73 126.25 224.969C124.677 225.243 123.105 225.516 121.771 226.063Z" fill="url(#paint28_linear_11_19701)"/>
<path d="M106.901 239.771C106.661 240.147 106.354 240.558 106.08 240.968C105.294 242.13 104.371 243.463 103.653 244.797C103.653 244.66 103.653 244.557 103.653 244.42C103.687 242.985 103.585 241.617 103.516 240.284C103.243 236.148 103.038 232.592 105.978 229.037C106.525 228.388 107.037 227.738 107.55 227.089C109.806 224.217 111.96 221.516 115.447 220.012C115.823 219.841 116.541 219.636 117.361 219.397L117.532 219.363C119.959 218.645 122.318 217.824 123.583 216.867C123.207 218.782 122.797 220.73 122.045 222.474C120.609 225.79 117.977 228.114 115.413 230.336C114.319 231.259 113.225 232.216 112.199 233.242C110.319 235.088 108.542 237.276 106.901 239.771Z" fill="url(#paint29_linear_11_19701)"/>
<path d="M48.8884 317.782C47.0766 319.936 45.0255 320.209 42.5983 320.551C41.8804 320.654 41.1283 320.756 40.3079 320.893L40.0686 320.927C38.0859 321.303 35.6587 321.782 33.9836 323.149C33.7785 322.226 33.4709 321.235 33.0948 320.209C32.9581 319.833 32.582 319.56 32.206 319.525C31.8642 319.491 31.5907 319.696 31.4539 320.004C30.7018 321.713 29.1635 322.944 27.6594 324.106C26.7364 324.824 25.7792 325.576 24.9929 326.431C23.7964 327.798 23.0102 329.063 22.6683 330.294C22.4632 331.046 22.3949 331.695 22.4974 332.482C22.5316 332.755 22.6 332.994 22.7025 333.2L22.8051 333.473C22.3265 333.644 21.2667 334.191 18.908 335.729C18.8738 335.695 18.8738 335.627 18.8396 335.592C18.2585 332.242 18.6687 329.097 20.1386 326.055C21.3351 323.559 23.1127 321.987 24.9587 320.312C25.4715 319.867 25.9843 319.423 26.4971 318.944C27.6594 317.816 28.7191 316.62 29.6421 315.321C32.5479 313.201 37.1287 313.133 40.8207 313.064C41.4702 313.064 42.0855 313.03 42.7009 313.03C45.8459 312.928 49.0935 312.483 51.6916 310.125C52.3753 312.517 50.7344 315.594 48.8884 317.782Z" fill="url(#paint30_linear_11_19701)"/>
<path d="M36.0006 311.834C43.4529 307.595 46.2561 300.655 48.5465 294.98C50.119 291.118 51.3155 288.075 53.5376 287.049L53.2983 286.468C49.2986 288.007 48.0679 291.323 46.6322 295.186C44.6494 300.484 42.1881 307.048 31.4539 311.868C31.5565 311.56 31.6932 311.253 31.8642 310.979C32.2402 310.466 32.6846 309.954 33.129 309.509C33.2658 309.338 33.4025 309.201 33.5734 309.031C34.6673 307.834 35.8296 306.364 36.0689 304.416C36.2057 303.356 36.0689 302.33 35.6245 301.202C35.351 300.518 35.0092 299.869 34.6673 299.185C34.3939 298.638 34.0862 298.057 33.8127 297.476C33.2316 296.04 32.1376 287.904 33.3341 286.844C33.4025 286.81 33.5051 286.708 33.8127 286.879C34.4622 287.255 34.9066 287.836 35.2485 288.69C35.5903 289.545 35.7271 290.571 35.898 291.596C36.0689 292.622 36.2399 293.681 36.5817 294.604C36.9919 295.63 37.5389 296.348 38.3594 296.792C39.6584 297.544 40.4105 297.237 40.8207 296.861C41.7779 296.006 41.7437 293.887 41.1625 292.417L41.1283 292.314C40.7865 291.494 40.3763 290.673 40.0002 289.887C39.5558 288.964 39.0772 288.007 38.7012 287.049C38.1884 285.716 37.9491 284.588 37.9491 283.528C37.9833 280.93 39.0431 278.708 40.2054 276.384L40.2395 276.315C40.4788 275.837 40.7181 275.597 40.9916 275.632C41.812 275.7 43.1111 277.785 44.4443 281.238C44.6152 281.648 44.7178 281.99 44.7862 282.195L44.8204 282.264C45.3673 283.802 46.051 285.34 47.6577 286.161C49.0935 286.879 50.4609 285.648 50.9053 284.588C51.4181 283.426 50.9737 281.717 50.666 280.452L50.5635 280.11C49.8456 277.204 50.2216 274.469 51.6574 272.179C53.0932 269.923 55.4861 268.35 58.3235 267.803C57.8791 270.059 58.1868 272.281 59.1781 273.957C59.4516 274.401 59.7935 274.64 60.2037 274.709C61.366 274.88 62.7676 273.581 63.5197 272.863C63.588 272.794 63.6906 272.726 63.7248 272.658C65.7759 270.777 68.9209 268.316 72.442 268.589C76.3733 268.897 79.7234 271.324 80.8174 272.863C80.6464 272.897 80.4755 272.965 80.3388 273.034C79.6209 273.375 79.0739 273.751 78.527 274.264C77.7407 274.982 77.1595 275.905 76.6126 276.828C76.2707 277.375 75.9289 277.956 75.5528 278.435C73.8094 280.691 70.6985 281.888 68.203 281.306C67.827 281.204 67.451 281.101 67.0407 280.965C65.8784 280.588 64.5794 280.178 63.4171 280.52C62.4941 280.759 61.6736 281.511 61.2292 282.469C60.5455 283.939 60.9558 285.511 62.289 286.4C64.511 287.836 67.1091 287.255 69.6388 286.673C70.3567 286.503 71.0404 286.366 71.7241 286.229C71.4506 286.981 70.9037 288.485 70.7669 288.69C70.1516 289.682 69.2628 290.605 68.6474 291.22C66.6989 293.134 63.7248 293.1 61.5711 292.417C60.1353 291.972 58.05 291.425 56.7168 292.246C56.1356 292.587 55.7596 293.169 55.5887 293.921C55.3836 294.844 55.4178 295.664 55.6912 296.348C56.1698 297.544 57.3321 298.262 59.0072 298.365C59.7251 298.399 60.443 298.262 61.0925 298.125C61.7079 297.989 62.2548 297.886 62.8701 297.886C65.3315 297.955 67.3826 299.083 69.0918 300.279C68.374 300.826 67.6903 301.407 67.0407 301.988C64.3401 304.347 61.7762 306.603 57.9133 305.988C57.0928 305.851 56.1356 305.475 55.1443 305.065C53.2641 304.279 51.2814 303.493 49.6063 304.142C47.7603 304.86 46.8031 306.33 46.974 308.313C47.0424 309.372 47.3501 310.159 47.8286 310.637C45.0938 311.765 42.0514 311.8 39.1114 311.834C38.0859 311.765 37.0261 311.765 36.0006 311.834Z" fill="url(#paint31_linear_11_19701)"/>
<path d="M80.9882 289.784C81.8428 289.272 82.6974 288.759 83.4837 288.178C89.4661 283.802 93.7734 278.332 96.3031 271.974C97.6022 268.692 98.5251 265.274 99.4481 261.958C99.6874 261.069 99.9267 260.146 100.166 259.257C100.85 256.83 101.704 253.958 102.867 251.189C106.935 241.549 116.404 225.448 134.249 225.892C138.522 225.995 146.384 227.02 151.102 232.695C152.333 234.199 153.358 235.908 154.076 237.823C155.888 242.472 155.717 247.463 153.7 251.223C151.752 254.813 147.444 257.479 143.718 257.411C141.12 257.343 139 256.009 137.633 253.548C136.231 251.052 136.163 248.42 137.428 245.788C138.146 244.352 139.308 242.677 140.573 242.369C141.086 242.233 141.599 242.369 142.077 242.711C142.419 242.951 142.658 243.224 142.761 243.566C143.068 244.352 142.624 245.207 142.043 245.48C141.53 245.72 141.017 245.48 140.676 244.762L140.505 244.421L140.231 244.626C138.488 245.993 137.838 249.241 138.864 251.839C139.616 253.787 141.086 254.881 142.932 254.847C148.162 254.744 151.205 249.48 151.546 244.318C151.683 242.335 151.41 240.455 150.726 238.746C147.683 230.849 136.984 227.636 129.292 229.687C113.874 233.823 106.593 248.489 103.619 256.864C102.969 258.71 102.32 260.624 101.739 262.436C99.9951 267.666 98.1833 273.068 95.6194 278.025C93.876 281.375 91.8932 284.827 88.6798 287.323C86.3211 289.135 83.0393 289.853 79.9968 290.4C80.3386 290.195 80.6805 289.989 80.9882 289.784Z" fill="url(#paint32_linear_11_19701)"/>
<path d="M42.0854 322.26L42.6666 322.158C44.2049 321.918 45.7774 321.645 47.3158 321.2C48.0336 320.995 48.7173 320.756 49.401 320.517C49.7771 320.38 50.1531 320.243 50.5634 320.107C50.4608 321.713 50.1531 323.183 49.6403 324.448C49.0592 325.952 48.102 326.978 46.8714 327.525C46.8372 327.525 46.8372 327.559 46.803 327.559L46.4611 327.491C44.2733 327.149 42.4273 326.841 40.2052 326.67C38.1883 326.499 36.2398 326.67 34.2912 327.149C34.3938 326.499 34.3937 325.815 34.3596 325.063C35.4193 324.14 36.4107 323.593 37.6072 323.217C38.8378 322.876 40.3078 322.534 42.0854 322.26Z" fill="url(#paint33_linear_11_19701)"/>
<path d="M182.347 265.684C182.416 265.855 182.45 266.06 182.518 266.231C182.484 266.299 182.484 266.402 182.518 266.504C182.621 266.675 182.689 266.846 182.758 267.051C183.886 269.957 185.219 281.99 171.34 288.075C166.485 290.195 159.477 290.434 154.726 286.195C153.222 284.862 151.923 282.947 151.102 280.794C149.461 276.52 149.906 272.384 152.367 269.718C153.358 268.658 155.102 268.487 156.401 268.795C157.529 269.068 158.384 269.649 158.691 270.401C158.93 271.017 158.794 271.7 158.315 272.452C157.358 273.991 155.854 273.375 154.384 272.794L154.179 272.726C154.042 272.692 153.837 272.623 153.632 272.794C152.709 273.41 152.23 277.102 152.162 277.785C152.093 278.879 152.299 280.144 152.777 281.375C153.222 282.503 153.837 283.563 154.589 284.451C157.358 287.767 161.665 288.759 167.75 287.46C172.399 286.468 176.365 283.46 178.929 279.05C181.595 274.401 182.518 268.521 181.424 263.086C181.8 263.769 182.108 264.795 182.347 265.684Z" fill="url(#paint34_linear_11_19701)"/>
<path d="M179.168 237.071C180.672 239.703 181.903 242.54 183.134 245.275C185.287 250.164 187.544 255.257 191.236 259.394C194.928 263.53 199.953 264.658 206.209 262.812C204.226 266.607 200.021 272.076 192.603 271.188C190.039 270.88 185.424 269.547 184.159 266.436C184.159 266.265 184.091 266.128 183.988 265.991C183.92 265.786 183.886 265.615 183.852 265.444C183.715 264.556 183.544 263.496 183.168 262.573C182.86 261.821 182.484 261.205 182.04 260.795C181.322 260.146 180.604 259.906 179.955 260.112C178.416 260.556 177.664 263.257 177.186 264.863L177.117 265.103C175.989 269.068 174.998 270.333 169.938 271.905C167.682 264.043 168.024 258.505 171.101 253.377C172.365 251.292 175.681 245.72 174.348 242.267C174.006 241.344 173.357 240.66 172.434 240.147C172.058 239.942 171.682 239.908 171.306 240.079C170.109 240.489 169.323 242.301 169.255 242.506C168.81 243.566 168.571 244.728 168.332 245.89C167.99 247.566 167.648 249.309 166.656 250.608C165.118 252.591 163.511 253.582 161.46 254.813L161.221 254.95C161.016 254.574 160.811 254.163 160.674 253.753C159.204 249.993 160.742 246.13 162.178 242.369C162.418 241.754 162.657 241.173 162.862 240.558C164.195 236.9 164.195 232.592 162.828 229.037C161.905 226.61 160.366 224.593 158.349 223.157C155.58 221.14 152.675 219.636 150.179 218.918C149.803 218.816 149.393 218.713 149.017 218.611C152.025 218.782 155.512 219.465 159.546 220.662C167.887 223.123 174.314 228.49 179.168 237.071Z" fill="url(#paint35_linear_11_19701)"/>
<path d="M6.15676 377.88C6.9772 379.144 8.20788 380.341 11.558 380.341H12.2076L11.7632 379.828C11.2162 379.213 11.182 378.392 11.558 377.709C11.8999 377.093 12.5494 376.717 13.2331 376.649C14.2245 376.581 14.9424 376.991 15.2842 377.948C15.7286 379.11 15.5235 380.683 15.1475 381.674C14.2929 383.794 11.729 384.409 9.60947 383.965C7.04558 383.383 5.1654 381.572 4.0031 378.529C3.45614 377.093 3.18267 375.658 3.21686 374.324C3.21686 373.812 3.45615 372.342 3.69545 371.248C3.83219 372.581 4.10567 373.777 4.55008 374.94C4.9603 375.863 5.47305 376.786 6.15676 377.88Z" fill="url(#paint36_linear_11_19701)"/>
<path d="M187.236 271.359C187.441 273.82 188.056 276.418 189.082 279.05C192.671 288.383 200.842 296.963 208.944 299.972C211.884 301.065 216.328 301.544 219.165 300.074C220.532 299.356 221.421 298.296 221.797 296.861C222.105 295.733 222.071 294.536 221.661 293.476C221.353 292.656 220.806 291.938 220.122 291.357C219.609 290.947 218.139 289.955 217.114 290.16C216.191 290.331 215.883 290.536 216.02 291.254C216.054 291.459 216.122 291.699 216.02 292.075C215.815 292.929 215.234 293.442 214.55 293.476C213.798 293.511 213.114 292.929 212.738 291.972L212.704 291.835C212.362 290.878 212.704 290.092 213.046 289.613C213.695 288.656 214.994 288.007 216.122 288.041C218.994 288.178 221.831 290.195 222.857 292.827C223.199 293.681 223.336 294.57 223.267 295.493C223.062 298.228 221.934 300.279 219.951 301.51C216.43 303.732 210.858 303.048 206.892 301.373C200.842 298.843 195.44 294.194 191.714 288.349C189.595 285.033 188.227 281.922 187.304 278.367C187.133 277.649 186.894 276.931 186.689 276.179C186.108 274.196 185.493 272.111 185.39 270.162C185.971 270.606 186.586 271.017 187.236 271.359Z" fill="url(#paint37_linear_11_19701)"/>
<path d="M28.8218 313.167C27.557 315.15 25.9844 316.654 24.3094 318.26C23.4547 319.047 22.6001 319.901 21.7797 320.79C17.7116 325.2 16.1049 331.046 17.4039 336.789C16.3784 337.473 15.3528 338.19 14.5666 338.737C14.7033 338.02 14.7375 337.302 14.7375 336.584C14.7375 334.191 14.2931 331.866 13.3701 329.268C12.4471 324.448 16.5835 321.166 20.5832 317.987C22.6001 316.38 24.5145 314.876 25.7109 313.201C26.8391 311.629 30.2918 306.056 28.3432 300.963C28.0697 300.245 27.6937 299.561 27.2151 298.946C25.6084 296.826 23.3522 295.562 21.1643 295.63C19.2158 295.664 17.4723 296.724 16.31 298.604C15.3186 300.211 15.0793 302.125 15.6947 303.698C16.4809 305.68 18.3269 306.706 20.5832 306.296L20.9934 306.227L20.7883 305.851C20.4806 305.27 20.5832 304.723 20.9592 304.347C21.3694 304.005 21.9506 304.005 22.4634 304.313C23.1812 304.792 23.3864 305.338 23.2838 306.467C23.1471 307.766 22.4975 308.586 21.3694 308.894C19.1816 309.509 15.7973 308.073 14.5666 306.501C14.0538 305.851 13.6436 305.168 13.3701 304.415C12.4129 301.92 12.8915 299.288 14.6349 297.271C17.3698 294.194 21.7797 292.382 25.54 295.288C28.7534 297.784 30.8729 301.27 31.1122 304.586C31.3173 307.561 30.5311 310.466 28.8218 313.167Z" fill="url(#paint38_linear_11_19701)"/>
<path d="M12.9598 336.789C12.9598 338.259 12.5837 339.66 12.2419 340.857C11.6949 342.84 10.4984 344.583 9.33611 346.224C8.72077 347.113 8.07127 348.036 7.55849 348.993L7.38755 349.301C6.02015 351.659 5.2339 353.266 5.50738 353.984C5.54157 354.087 5.60992 354.155 5.67829 354.223C5.84922 354.36 6.1227 354.394 6.66967 354.463C8.37893 354.634 12.3444 355.044 15.3185 359.488C13.7118 359.761 9.13101 361.026 6.32782 363.761C5.09715 364.958 3.79812 367.111 2.32816 370.29C1.95212 368.376 1.26842 364.889 0.653091 360.889C-0.0989831 355.933 -0.201552 350.531 0.345411 345.985C0.892374 341.575 2.22561 337.883 4.17416 333.336C5.54157 330.225 6.84061 326.362 8.07127 321.85C8.27638 322.294 8.48148 322.739 8.72077 323.183C9.60959 325.029 10.4984 326.944 11.2505 328.892C12.4128 331.9 12.9598 334.43 12.9598 336.789Z" fill="url(#paint39_linear_11_19701)"/>
<path d="M24.1384 333.097C23.865 331.764 24.617 330.26 24.9931 329.644C25.6426 328.516 26.5314 327.491 27.8305 326.328C28.2749 325.952 28.7535 325.576 29.1979 325.2C30.2234 324.414 31.249 323.559 32.0694 322.534C32.2745 323.252 32.4455 323.867 32.5138 324.448V324.517C32.7531 325.952 32.6506 327.08 32.2403 327.73C29.8474 328.106 27.7621 330.67 27.2493 331.901C26.3947 332.106 25.6768 332.413 24.9589 332.721C24.6854 332.892 24.4119 332.994 24.1384 333.097Z" fill="url(#paint40_linear_11_19701)"/>
<path d="M52.3411 314.534C52.512 314.09 52.6829 313.645 52.8197 313.201C52.9222 312.825 53.0932 312.312 53.1615 311.697C53.6059 311.868 54.0504 311.902 54.4948 311.97C54.7341 312.005 54.9392 312.005 55.1443 312.073C56.2724 312.312 57.9475 313.167 58.9046 314.158C58.3919 314.329 57.9133 314.568 57.6056 314.945C56.4433 314.603 55.3836 314.432 54.1871 314.432C53.5376 314.398 52.9222 314.432 52.3411 314.534Z" fill="url(#paint41_linear_11_19701)"/>
<path d="M71.0407 300.929C71.3484 300.724 71.4509 300.279 71.3142 299.903C71.2458 299.766 71.1774 299.63 71.0407 299.527C68.4426 297.579 65.6736 295.835 62.7337 296.074C62.2209 296.109 61.7081 296.211 61.2295 296.314C60.3749 296.485 59.5203 296.656 58.6998 296.519C57.9478 296.382 57.4692 296.074 57.2641 295.596C57.0931 295.151 57.1957 294.604 57.5717 294.16C58.0161 293.579 58.734 293.34 59.4861 293.511C60.2724 293.681 61.0244 293.921 61.7081 294.16C65.1266 295.288 68.5452 294.297 70.9723 291.528C78.6298 293.887 87.518 290.776 90.8681 289.579C95.1413 288.075 99.346 286.058 103.277 283.631C109.089 280.042 113.909 275.529 117.259 270.606L117.464 270.299C119.105 267.906 120.917 265.171 121.225 262.128C121.395 260.282 120.814 258.3 119.686 257.137C117.977 255.36 115.823 255.702 114.558 256.761L114.182 257.069L114.627 257.274C114.798 257.343 115.003 257.616 115.105 257.924C115.276 258.368 115.276 258.778 115.105 258.983C114.9 259.223 114.524 259.154 114.217 259.052C113.601 258.881 113.294 258.368 113.157 257.992C112.781 257.001 113.02 255.702 113.67 255.189C114.832 254.3 116.165 253.822 117.498 253.856C120.472 253.924 124.335 254.813 126.079 258.744C126.147 258.915 126.25 259.12 126.318 259.325C127.344 261.958 127.31 264.316 126.284 266.367C125.327 268.213 124.062 269.239 122.284 270.572L122.011 270.777C121.122 271.427 120.028 272.247 119.652 273.341C119.379 274.162 119.379 275.085 119.686 275.905C120.096 276.999 120.951 277.751 122.045 278.059C123.925 278.537 125.805 278.127 127.583 277.512C126.968 279.529 126.25 281.272 124.711 282.332C122.763 283.665 121.088 283.46 118.968 283.187C118.592 283.118 118.182 283.084 117.772 283.016C116.37 282.879 112.678 283.152 111.858 284.793C110.901 286.673 111.584 288.964 113.841 291.494C115.105 292.895 116.78 292.964 118.387 292.998C120.062 293.066 121.669 293.1 122.763 294.673C122.182 294.946 121.566 295.254 120.985 295.562C118.353 296.929 115.618 298.365 112.61 297.1C111.926 296.826 111.208 296.416 110.456 295.972C108.473 294.844 106.388 293.681 104.235 294.365C103.38 294.639 102.662 295.288 102.32 296.074C101.807 297.237 102.149 298.536 103.209 299.425C104.029 300.142 105.055 300.416 106.012 300.724C107.209 301.065 108.303 301.407 109.157 302.433L109.67 303.048C110.319 303.869 110.935 304.621 111.653 305.339C107.243 307.356 102.799 308.655 99.517 305.339C98.6623 304.45 98.0128 303.493 97.2949 302.399C97.2607 302.33 97.1924 302.194 97.124 302.057C96.8505 301.51 96.5087 300.758 95.9959 300.45C95.4489 300.108 94.9361 300.04 94.4575 300.211C93.5687 300.553 93.0901 301.715 92.8167 302.535C92.1671 304.484 92.2697 306.774 92.3722 308.757V309.031C92.5432 312.928 91.5176 316.073 89.364 318.363C87.518 320.312 84.8857 321.508 82.6295 321.406C81.3646 321.337 80.2707 320.893 79.3477 320.107C80.7151 320.278 81.9458 320.072 83.0055 319.491C85.7061 318.021 86.8684 314.329 85.6036 311.082C85.3643 310.501 85.0908 309.954 84.7148 309.475C82.1509 305.954 76.6812 304.792 72.9892 307.014C70.357 308.586 70.4253 311.184 70.5279 313.714C70.5279 314.329 70.5621 314.945 70.5279 315.56C70.2886 315.321 70.0151 315.047 69.7758 314.774C69.2289 314.193 68.6819 313.611 68.0324 313.167C67.4854 312.791 66.9043 312.552 66.3231 312.347C65.8787 312.176 65.4343 312.005 65.0241 311.765C63.9302 311.116 63.1097 309.954 62.3918 308.073C62.2893 307.8 62.1867 307.561 62.1183 307.287C62.1867 307.253 62.2893 307.15 62.426 307.082C63.6909 306.227 66.9726 303.903 69.1605 302.364C70.0835 301.612 70.8698 301.065 71.0407 300.929Z" fill="url(#paint42_linear_11_19701)"/>
<path d="M48.615 328.208C51.2814 326.157 52.4779 322.876 51.8626 319.047L51.8284 318.944C51.6916 318.637 51.3156 318.431 51.0079 318.534C50.6319 318.671 50.2217 318.808 49.8115 318.91C50.2217 318.363 50.6319 317.816 50.9737 317.269C51.1105 317.167 51.213 317.064 51.3498 316.962C51.6574 316.688 51.9309 316.415 52.4095 316.346C54.3923 315.936 56.4092 316.141 58.2552 316.893C58.5629 317.03 58.9047 317.167 59.2466 317.338C60.6482 317.953 62.1865 318.602 63.759 318.876C63.383 319.184 63.0411 319.525 62.6651 319.833C61.913 320.483 61.1609 321.166 60.3747 321.747C59.5884 322.329 58.8021 322.944 58.0501 323.559C56.6485 324.653 55.2127 325.781 53.7769 326.807C52.4779 327.661 50.1875 328.687 48.615 328.208Z" fill="url(#paint43_linear_11_19701)"/>
<path d="M55.9991 352.685C56.0675 358.257 54.2215 365.573 48.8544 369.436C44.3078 372.718 38.0519 372.649 33.9839 369.231C32.4797 367.966 31.3174 366.325 30.5995 364.479C29.0954 360.616 29.7449 356.343 32.2746 353.3C33.9155 351.352 36.7187 349.301 39.6928 349.472C42.0858 349.574 43.7608 350.6 44.4445 352.343C45.2308 354.394 44.3762 356.89 42.5985 357.676C41.9148 357.984 41.1286 358.018 40.5474 357.744C40.0005 357.505 39.6586 357.061 39.4535 356.411C39.1458 355.386 39.4535 354.531 40.3081 354.018L40.7183 353.779L40.3423 353.505C39.0433 352.514 37.7101 352.412 36.411 353.198C34.3941 354.428 32.9241 357.813 33.1976 359.625C33.4027 360.924 33.642 361.983 34.018 362.906C34.4966 364.171 35.1803 365.231 36.0692 366.188C37.8126 368 39.9663 368.957 42.325 368.957C45.1966 368.923 48.2049 367.385 50.3928 364.855C54.7685 359.761 56.3068 352.924 54.3241 347.455C50.4269 336.721 38.2228 333.507 28.7535 336.584C21.2328 339.011 14.9769 345.062 11.1482 353.574C9.9175 353.095 8.75518 352.651 7.62707 352.48C8.37914 351.01 9.30214 349.574 10.191 348.207C11.5584 346.087 12.96 343.899 13.8146 341.541C15.2162 340.105 16.7887 338.84 18.4638 337.746C18.6347 337.712 18.8056 337.609 18.9082 337.438C21.4037 335.866 24.1044 334.704 26.9075 334.02C30.7021 333.097 38.0177 331.969 44.5813 334.635C46.2905 335.319 47.9314 336.31 49.2988 337.473C51.5892 339.387 53.4011 341.951 54.5292 344.959C55.4522 347.318 55.9649 349.95 55.9991 352.685Z" fill="url(#paint44_linear_11_19701)"/>
<path d="M51.6576 335.866C51.7601 335.729 51.9994 335.627 52.3754 335.627C53.8454 335.592 56.546 336.823 57.1272 337.404C58.0844 338.43 58.8706 339.695 59.6227 340.891C60.2381 341.848 60.8534 342.874 61.6054 343.763C63.93 346.634 66.7674 349.608 70.0492 349.677C72.6814 349.745 75.177 348.754 76.5786 347.079C77.6383 345.848 78.0485 344.241 77.8092 342.498C77.6725 341.472 77.2965 340.344 76.7153 339.25L76.4418 339.387L76.4076 339.114C76.2367 339.114 75.177 338.84 75.0061 338.703C74.63 338.361 74.2882 337.712 74.3223 337.302C74.3565 336.857 74.5616 336.515 74.9377 336.276C75.6897 335.798 77.023 335.832 77.8434 336.139C78.9373 336.584 79.7578 337.438 80.2706 338.737C81.2961 341.404 80.7492 345.164 79.6211 347.147C77.6041 350.668 73.5703 352.617 69.5706 352.001C65.024 351.283 63.007 348.241 60.6825 344.72C60.2722 344.105 59.862 343.523 59.4518 342.908C58.2553 341.199 56.8537 339.695 55.247 338.43C55.0419 338.259 54.6659 338.054 54.1873 337.746C53.3668 337.268 51.8285 336.345 51.6576 335.866Z" fill="url(#paint45_linear_11_19701)"/>
<path d="M54.905 334.328C54.7683 334.328 54.6316 334.293 54.4948 334.259C56.2041 332.789 58.0501 331.012 58.3577 328.516C58.3919 328.345 58.3577 328.208 58.2894 328.037C58.1184 327.627 57.7424 327.388 57.3322 327.525C56.5459 327.798 55.7255 327.969 54.8367 328.072C56.2725 327.149 57.6057 326.089 59.0414 324.927C60.6481 324.927 61.9814 325.952 63.4171 327.012C64.4085 327.764 65.4341 328.55 66.5622 328.926L66.3229 329.131C62.9386 332.003 59.7252 334.738 55.3153 334.362C55.1785 334.328 55.0418 334.293 54.905 334.328Z" fill="url(#paint46_linear_11_19701)"/>
<defs>
<linearGradient id="paint0_linear_11_19701" x1="216.022" y1="70.8893" x2="216.103" y2="72.3819" gradientUnits="userSpaceOnUse">
<stop stop-color="#AE8625"/>
<stop offset="0.38" stop-color="#F7EF8A"/>
<stop offset="0.8" stop-color="#D2AC47"/>
<stop offset="1" stop-color="#EDC967"/>
</linearGradient>
<linearGradient id="paint1_linear_11_19701" x1="218.5" y1="90.6123" x2="218.798" y2="92.8381" gradientUnits="userSpaceOnUse">
<stop stop-color="#AE8625"/>
<stop offset="0.38" stop-color="#F7EF8A"/>
<stop offset="0.8" stop-color="#D2AC47"/>
<stop offset="1" stop-color="#EDC967"/>
</linearGradient>
<linearGradient id="paint2_linear_11_19701" x1="221.785" y1="81.2798" x2="221.889" y2="82.9161" gradientUnits="userSpaceOnUse">
<stop stop-color="#AE8625"/>
<stop offset="0.38" stop-color="#F7EF8A"/>
<stop offset="0.8" stop-color="#D2AC47"/>
<stop offset="1" stop-color="#EDC967"/>
</linearGradient>
<linearGradient id="paint3_linear_11_19701" x1="169.307" y1="32.3949" x2="169.716" y2="34.872" gradientUnits="userSpaceOnUse">
<stop stop-color="#AE8625"/>
<stop offset="0.38" stop-color="#F7EF8A"/>
<stop offset="0.8" stop-color="#D2AC47"/>
<stop offset="1" stop-color="#EDC967"/>
</linearGradient>
<linearGradient id="paint4_linear_11_19701" x1="163.77" y1="32.7711" x2="164.088" y2="35.5934" gradientUnits="userSpaceOnUse">
<stop stop-color="#AE8625"/>
<stop offset="0.38" stop-color="#F7EF8A"/>
<stop offset="0.8" stop-color="#D2AC47"/>
<stop offset="1" stop-color="#EDC967"/>
</linearGradient>
<linearGradient id="paint5_linear_11_19701" x1="158.828" y1="34.0359" x2="159.445" y2="37.2281" gradientUnits="userSpaceOnUse">
<stop stop-color="#AE8625"/>
<stop offset="0.38" stop-color="#F7EF8A"/>
<stop offset="0.8" stop-color="#D2AC47"/>
<stop offset="1" stop-color="#EDC967"/>
</linearGradient>
<linearGradient id="paint6_linear_11_19701" x1="143.272" y1="23.5164" x2="143.742" y2="28.0942" gradientUnits="userSpaceOnUse">
<stop stop-color="#AE8625"/>
<stop offset="0.38" stop-color="#F7EF8A"/>
<stop offset="0.8" stop-color="#D2AC47"/>
<stop offset="1" stop-color="#EDC967"/>
</linearGradient>
<linearGradient id="paint7_linear_11_19701" x1="133.244" y1="29.2695" x2="133.577" y2="33.9386" gradientUnits="userSpaceOnUse">
<stop stop-color="#AE8625"/>
<stop offset="0.38" stop-color="#F7EF8A"/>
<stop offset="0.8" stop-color="#D2AC47"/>
<stop offset="1" stop-color="#EDC967"/>
</linearGradient>
<linearGradient id="paint8_linear_11_19701" x1="206.279" y1="46.274" x2="206.351" y2="47.4196" gradientUnits="userSpaceOnUse">
<stop stop-color="#AE8625"/>
<stop offset="0.38" stop-color="#F7EF8A"/>
<stop offset="0.8" stop-color="#D2AC47"/>
<stop offset="1" stop-color="#EDC967"/>
</linearGradient>
<linearGradient id="paint9_linear_11_19701" x1="202.946" y1="37.5625" x2="203.035" y2="38.9451" gradientUnits="userSpaceOnUse">
<stop stop-color="#AE8625"/>
<stop offset="0.38" stop-color="#F7EF8A"/>
<stop offset="0.8" stop-color="#D2AC47"/>
<stop offset="1" stop-color="#EDC967"/>
</linearGradient>
<linearGradient id="paint10_linear_11_19701" x1="192.629" y1="70.1354" x2="194.625" y2="98.1563" gradientUnits="userSpaceOnUse">
<stop stop-color="#AE8625"/>
<stop offset="0.38" stop-color="#F7EF8A"/>
<stop offset="0.8" stop-color="#D2AC47"/>
<stop offset="1" stop-color="#EDC967"/>
</linearGradient>
<linearGradient id="paint11_linear_11_19701" x1="120.867" y1="16" x2="157.404" y2="178.787" gradientUnits="userSpaceOnUse">
<stop stop-color="#AE8625"/>
<stop offset="0.38" stop-color="#F7EF8A"/>
<stop offset="0.8" stop-color="#D2AC47"/>
<stop offset="1" stop-color="#EDC967"/>
</linearGradient>
<linearGradient id="paint12_linear_11_19701" x1="102.081" y1="115.255" x2="105.413" y2="124.796" gradientUnits="userSpaceOnUse">
<stop stop-color="#AE8625"/>
<stop offset="0.38" stop-color="#F7EF8A"/>
<stop offset="0.8" stop-color="#D2AC47"/>
<stop offset="1" stop-color="#EDC967"/>
</linearGradient>
<linearGradient id="paint13_linear_11_19701" x1="165" y1="164.281" x2="165.145" y2="166.117" gradientUnits="userSpaceOnUse">
<stop stop-color="#AE8625"/>
<stop offset="0.38" stop-color="#F7EF8A"/>
<stop offset="0.8" stop-color="#D2AC47"/>
<stop offset="1" stop-color="#EDC967"/>
</linearGradient>
<linearGradient id="paint14_linear_11_19701" x1="201.596" y1="139.976" x2="201.781" y2="141.945" gradientUnits="userSpaceOnUse">
<stop stop-color="#AE8625"/>
<stop offset="0.38" stop-color="#F7EF8A"/>
<stop offset="0.8" stop-color="#D2AC47"/>
<stop offset="1" stop-color="#EDC967"/>
</linearGradient>
<linearGradient id="paint15_linear_11_19701" x1="205.835" y1="71.7706" x2="206.083" y2="74.0498" gradientUnits="userSpaceOnUse">
<stop stop-color="#AE8625"/>
<stop offset="0.38" stop-color="#F7EF8A"/>
<stop offset="0.8" stop-color="#D2AC47"/>
<stop offset="1" stop-color="#EDC967"/>
</linearGradient>
<linearGradient id="paint16_linear_11_19701" x1="164.984" y1="173.375" x2="165.362" y2="175.897" gradientUnits="userSpaceOnUse">
<stop stop-color="#AE8625"/>
<stop offset="0.38" stop-color="#F7EF8A"/>
<stop offset="0.8" stop-color="#D2AC47"/>
<stop offset="1" stop-color="#EDC967"/>
</linearGradient>
<linearGradient id="paint17_linear_11_19701" x1="200.877" y1="148.659" x2="201.314" y2="151.198" gradientUnits="userSpaceOnUse">
<stop stop-color="#AE8625"/>
<stop offset="0.38" stop-color="#F7EF8A"/>
<stop offset="0.8" stop-color="#D2AC47"/>
<stop offset="1" stop-color="#EDC967"/>
</linearGradient>
<linearGradient id="paint18_linear_11_19701" x1="161.257" y1="180.007" x2="161.711" y2="182.719" gradientUnits="userSpaceOnUse">
<stop stop-color="#AE8625"/>
<stop offset="0.38" stop-color="#F7EF8A"/>
<stop offset="0.8" stop-color="#D2AC47"/>
<stop offset="1" stop-color="#EDC967"/>
</linearGradient>
<linearGradient id="paint19_linear_11_19701" x1="188.683" y1="33.5915" x2="196.394" y2="75.1726" gradientUnits="userSpaceOnUse">
<stop stop-color="#AE8625"/>
<stop offset="0.38" stop-color="#F7EF8A"/>
<stop offset="0.8" stop-color="#D2AC47"/>
<stop offset="1" stop-color="#EDC967"/>
</linearGradient>
<linearGradient id="paint20_linear_11_19701" x1="134.47" y1="183.767" x2="135.942" y2="186.868" gradientUnits="userSpaceOnUse">
<stop stop-color="#AE8625"/>
<stop offset="0.38" stop-color="#F7EF8A"/>
<stop offset="0.8" stop-color="#D2AC47"/>
<stop offset="1" stop-color="#EDC967"/>
</linearGradient>
<linearGradient id="paint21_linear_11_19701" x1="176.912" y1="111.329" x2="184.107" y2="159.469" gradientUnits="userSpaceOnUse">
<stop stop-color="#AE8625"/>
<stop offset="0.38" stop-color="#F7EF8A"/>
<stop offset="0.8" stop-color="#D2AC47"/>
<stop offset="1" stop-color="#EDC967"/>
</linearGradient>
<linearGradient id="paint22_linear_11_19701" x1="154.418" y1="22.618" x2="162.725" y2="81.9281" gradientUnits="userSpaceOnUse">
<stop stop-color="#AE8625"/>
<stop offset="0.38" stop-color="#F7EF8A"/>
<stop offset="0.8" stop-color="#D2AC47"/>
<stop offset="1" stop-color="#EDC967"/>
</linearGradient>
<linearGradient id="paint23_linear_11_19701" x1="153.344" y1="27.9136" x2="153.401" y2="29.0583" gradientUnits="userSpaceOnUse">
<stop stop-color="#AE8625"/>
<stop offset="0.38" stop-color="#F7EF8A"/>
<stop offset="0.8" stop-color="#D2AC47"/>
<stop offset="1" stop-color="#EDC967"/>
</linearGradient>
<linearGradient id="paint24_linear_11_19701" x1="42.8205" y1="328.383" x2="43.0393" y2="334.96" gradientUnits="userSpaceOnUse">
<stop stop-color="#AE8625"/>
<stop offset="0.38" stop-color="#F7EF8A"/>
<stop offset="0.8" stop-color="#D2AC47"/>
<stop offset="1" stop-color="#EDC967"/>
</linearGradient>
<linearGradient id="paint25_linear_11_19701" x1="126.891" y1="192.527" x2="132.398" y2="219.059" gradientUnits="userSpaceOnUse">
<stop stop-color="#AE8625"/>
<stop offset="0.38" stop-color="#F7EF8A"/>
<stop offset="0.8" stop-color="#D2AC47"/>
<stop offset="1" stop-color="#EDC967"/>
</linearGradient>
<linearGradient id="paint26_linear_11_19701" x1="96.0318" y1="217.209" x2="110.795" y2="250.067" gradientUnits="userSpaceOnUse">
<stop stop-color="#AE8625"/>
<stop offset="0.38" stop-color="#F7EF8A"/>
<stop offset="0.8" stop-color="#D2AC47"/>
<stop offset="1" stop-color="#EDC967"/>
</linearGradient>
<linearGradient id="paint27_linear_11_19701" x1="108.604" y1="194.588" x2="117.524" y2="229.75" gradientUnits="userSpaceOnUse">
<stop stop-color="#AE8625"/>
<stop offset="0.38" stop-color="#F7EF8A"/>
<stop offset="0.8" stop-color="#D2AC47"/>
<stop offset="1" stop-color="#EDC967"/>
</linearGradient>
<linearGradient id="paint28_linear_11_19701" x1="133.839" y1="209.849" x2="135.38" y2="226.236" gradientUnits="userSpaceOnUse">
<stop stop-color="#AE8625"/>
<stop offset="0.38" stop-color="#F7EF8A"/>
<stop offset="0.8" stop-color="#D2AC47"/>
<stop offset="1" stop-color="#EDC967"/>
</linearGradient>
<linearGradient id="paint29_linear_11_19701" x1="113.477" y1="216.867" x2="118.787" y2="244.317" gradientUnits="userSpaceOnUse">
<stop stop-color="#AE8625"/>
<stop offset="0.38" stop-color="#F7EF8A"/>
<stop offset="0.8" stop-color="#D2AC47"/>
<stop offset="1" stop-color="#EDC967"/>
</linearGradient>
<linearGradient id="paint30_linear_11_19701" x1="35.2179" y1="310.125" x2="37.9989" y2="335.931" gradientUnits="userSpaceOnUse">
<stop stop-color="#AE8625"/>
<stop offset="0.38" stop-color="#F7EF8A"/>
<stop offset="0.8" stop-color="#D2AC47"/>
<stop offset="1" stop-color="#EDC967"/>
</linearGradient>
<linearGradient id="paint31_linear_11_19701" x1="56.1356" y1="267.803" x2="61.6641" y2="312.041" gradientUnits="userSpaceOnUse">
<stop stop-color="#AE8625"/>
<stop offset="0.38" stop-color="#F7EF8A"/>
<stop offset="0.8" stop-color="#D2AC47"/>
<stop offset="1" stop-color="#EDC967"/>
</linearGradient>
<linearGradient id="paint32_linear_11_19701" x1="117.664" y1="225.883" x2="125.439" y2="290.732" gradientUnits="userSpaceOnUse">
<stop stop-color="#AE8625"/>
<stop offset="0.38" stop-color="#F7EF8A"/>
<stop offset="0.8" stop-color="#D2AC47"/>
<stop offset="1" stop-color="#EDC967"/>
</linearGradient>
<linearGradient id="paint33_linear_11_19701" x1="42.4273" y1="320.107" x2="42.9125" y2="327.674" gradientUnits="userSpaceOnUse">
<stop stop-color="#AE8625"/>
<stop offset="0.38" stop-color="#F7EF8A"/>
<stop offset="0.8" stop-color="#D2AC47"/>
<stop offset="1" stop-color="#EDC967"/>
</linearGradient>
<linearGradient id="paint34_linear_11_19701" x1="166.772" y1="263.086" x2="169.741" y2="289.748" gradientUnits="userSpaceOnUse">
<stop stop-color="#AE8625"/>
<stop offset="0.38" stop-color="#F7EF8A"/>
<stop offset="0.8" stop-color="#D2AC47"/>
<stop offset="1" stop-color="#EDC967"/>
</linearGradient>
<linearGradient id="paint35_linear_11_19701" x1="177.613" y1="218.611" x2="184.583" y2="272.041" gradientUnits="userSpaceOnUse">
<stop stop-color="#AE8625"/>
<stop offset="0.38" stop-color="#F7EF8A"/>
<stop offset="0.8" stop-color="#D2AC47"/>
<stop offset="1" stop-color="#EDC967"/>
</linearGradient>
<linearGradient id="paint36_linear_11_19701" x1="9.37519" y1="371.248" x2="11.2489" y2="384.079" gradientUnits="userSpaceOnUse">
<stop stop-color="#AE8625"/>
<stop offset="0.38" stop-color="#F7EF8A"/>
<stop offset="0.8" stop-color="#D2AC47"/>
<stop offset="1" stop-color="#EDC967"/>
</linearGradient>
<linearGradient id="paint37_linear_11_19701" x1="204.337" y1="270.162" x2="208.321" y2="303.079" gradientUnits="userSpaceOnUse">
<stop stop-color="#AE8625"/>
<stop offset="0.38" stop-color="#F7EF8A"/>
<stop offset="0.8" stop-color="#D2AC47"/>
<stop offset="1" stop-color="#EDC967"/>
</linearGradient>
<linearGradient id="paint38_linear_11_19701" x1="22.0145" y1="293.823" x2="36.1134" y2="334.762" gradientUnits="userSpaceOnUse">
<stop stop-color="#AE8625"/>
<stop offset="0.38" stop-color="#F7EF8A"/>
<stop offset="0.8" stop-color="#D2AC47"/>
<stop offset="1" stop-color="#EDC967"/>
</linearGradient>
<linearGradient id="paint39_linear_11_19701" x1="7.65924" y1="321.85" x2="25.9414" y2="363.146" gradientUnits="userSpaceOnUse">
<stop stop-color="#AE8625"/>
<stop offset="0.38" stop-color="#F7EF8A"/>
<stop offset="0.8" stop-color="#D2AC47"/>
<stop offset="1" stop-color="#EDC967"/>
</linearGradient>
<linearGradient id="paint40_linear_11_19701" x1="28.3604" y1="322.534" x2="30.167" y2="332.992" gradientUnits="userSpaceOnUse">
<stop stop-color="#AE8625"/>
<stop offset="0.38" stop-color="#F7EF8A"/>
<stop offset="0.8" stop-color="#D2AC47"/>
<stop offset="1" stop-color="#EDC967"/>
</linearGradient>
<linearGradient id="paint41_linear_11_19701" x1="55.6229" y1="311.697" x2="55.8511" y2="314.992" gradientUnits="userSpaceOnUse">
<stop stop-color="#AE8625"/>
<stop offset="0.38" stop-color="#F7EF8A"/>
<stop offset="0.8" stop-color="#D2AC47"/>
<stop offset="1" stop-color="#EDC967"/>
</linearGradient>
<linearGradient id="paint42_linear_11_19701" x1="92.3835" y1="253.854" x2="101.474" y2="321.515" gradientUnits="userSpaceOnUse">
<stop stop-color="#AE8625"/>
<stop offset="0.38" stop-color="#F7EF8A"/>
<stop offset="0.8" stop-color="#D2AC47"/>
<stop offset="1" stop-color="#EDC967"/>
</linearGradient>
<linearGradient id="paint43_linear_11_19701" x1="56.187" y1="316.138" x2="57.5705" y2="328.414" gradientUnits="userSpaceOnUse">
<stop stop-color="#AE8625"/>
<stop offset="0.38" stop-color="#F7EF8A"/>
<stop offset="0.8" stop-color="#D2AC47"/>
<stop offset="1" stop-color="#EDC967"/>
</linearGradient>
<linearGradient id="paint44_linear_11_19701" x1="31.814" y1="332.975" x2="36.2171" y2="372.113" gradientUnits="userSpaceOnUse">
<stop stop-color="#AE8625"/>
<stop offset="0.38" stop-color="#F7EF8A"/>
<stop offset="0.8" stop-color="#D2AC47"/>
<stop offset="1" stop-color="#EDC967"/>
</linearGradient>
<linearGradient id="paint45_linear_11_19701" x1="66.2354" y1="335.626" x2="67.5581" y2="352.332" gradientUnits="userSpaceOnUse">
<stop stop-color="#AE8625"/>
<stop offset="0.38" stop-color="#F7EF8A"/>
<stop offset="0.8" stop-color="#D2AC47"/>
<stop offset="1" stop-color="#EDC967"/>
</linearGradient>
<linearGradient id="paint46_linear_11_19701" x1="60.5285" y1="324.927" x2="61.5767" y2="334.467" gradientUnits="userSpaceOnUse">
<stop stop-color="#AE8625"/>
<stop offset="0.38" stop-color="#F7EF8A"/>
<stop offset="0.8" stop-color="#D2AC47"/>
<stop offset="1" stop-color="#EDC967"/>
</linearGradient>
</defs>
</svg>
