<svg width="15" height="595" viewBox="0 0 15 595" fill="none" xmlns="http://www.w3.org/2000/svg">
<rect x="7" y="19" width="1.5" height="557" fill="url(#paint0_linear_11_19661)"/>
<path d="M7.34348 573C-6.88053 590.77 7.26006 593.37 7.26006 593.37C21.7065 589.755 7.34348 573 7.34348 573ZM6.67608 588.6C6.67608 588.225 6.98197 587.919 7.35739 587.919C7.7328 587.919 8.03869 588.225 8.03869 588.6C8.03869 588.976 7.7328 589.282 7.35739 589.282C6.96807 589.282 6.66218 588.976 6.67608 588.6ZM7.34348 586.71C3.13051 578.562 7.3852 577.408 7.3852 577.408C11.7094 579.104 7.34348 586.71 7.34348 586.71Z" fill="url(#paint1_linear_11_19661)"/>
<path d="M7.65652 21.3697C21.8805 3.60008 7.73994 1 7.73994 1C-6.70654 4.6151 7.65652 21.3697 7.65652 21.3697ZM8.32392 5.76914C8.32392 6.14455 8.01803 6.45043 7.64261 6.45043C7.2672 6.45043 6.96131 6.14455 6.96131 5.76914C6.96131 5.39372 7.2672 5.08784 7.64261 5.08784C8.03193 5.08784 8.33782 5.39372 8.32392 5.76914ZM7.65652 7.66009C11.8695 15.808 7.6148 16.962 7.6148 16.962C3.29059 15.2657 7.65652 7.66009 7.65652 7.66009Z" fill="url(#paint2_linear_11_19661)"/>
<defs>
<linearGradient id="paint0_linear_11_19661" x1="7.75" y1="19" x2="18.6702" y2="19.2101" gradientUnits="userSpaceOnUse">
<stop stop-color="#AE8625"/>
<stop offset="0.38" stop-color="#F7EF8A"/>
<stop offset="0.8" stop-color="#D2AC47"/>
<stop offset="1" stop-color="#EDC967"/>
</linearGradient>
<linearGradient id="paint1_linear_11_19661" x1="1" y1="583.185" x2="13.8534" y2="582.063" gradientUnits="userSpaceOnUse">
<stop stop-color="#AE8625"/>
<stop offset="0.38" stop-color="#F7EF8A"/>
<stop offset="0.8" stop-color="#D2AC47"/>
<stop offset="1" stop-color="#EDC967"/>
</linearGradient>
<linearGradient id="paint2_linear_11_19661" x1="14" y1="11.1848" x2="1.14658" y2="12.307" gradientUnits="userSpaceOnUse">
<stop stop-color="#AE8625"/>
<stop offset="0.38" stop-color="#F7EF8A"/>
<stop offset="0.8" stop-color="#D2AC47"/>
<stop offset="1" stop-color="#EDC967"/>
</linearGradient>
</defs>
</svg>
