<svg width="30" height="31" viewBox="0 0 30 31" fill="none" xmlns="http://www.w3.org/2000/svg">
<path d="M15 30.4111C23.2843 30.4111 30 23.6954 30 15.4111C30 7.12686 23.2843 0.411133 15 0.411133C6.71573 0.411133 0 7.12686 0 15.4111C0 23.6954 6.71573 30.4111 15 30.4111Z" fill="url(#paint0_linear_11_29474)"/>
<path fill-rule="evenodd" clip-rule="evenodd" d="M6.78987 15.2528C11.1627 13.3476 14.0786 12.0916 15.5375 11.4848C19.7032 9.75215 20.5688 9.45118 21.133 9.44124C21.257 9.43905 21.5345 9.4698 21.7142 9.61563C21.866 9.73877 21.9077 9.90511 21.9277 10.0219C21.9477 10.1386 21.9725 10.4045 21.9528 10.6123C21.727 12.9842 20.7503 18.7401 20.2533 21.3966C20.0431 22.5206 19.6291 22.8975 19.2282 22.9344C18.3572 23.0146 17.6957 22.3588 16.852 21.8057C15.5318 20.9403 14.786 20.4016 13.5045 19.5571C12.0235 18.5812 12.9836 18.0448 13.8276 17.1682C14.0485 16.9388 17.8865 13.4478 17.9608 13.1311C17.97 13.0915 17.9787 12.9439 17.891 12.8659C17.8032 12.788 17.6738 12.8146 17.5804 12.8358C17.448 12.8659 15.3389 14.2599 11.2533 17.0178C10.6547 17.4289 10.1124 17.6292 9.62661 17.6187C9.09103 17.6071 8.0608 17.3158 7.29492 17.0669C6.35555 16.7615 5.60895 16.6001 5.67396 16.0815C5.70782 15.8114 6.07979 15.5352 6.78987 15.2528Z" fill="url(#paint1_linear_11_29474)"/>
<defs>
<linearGradient id="paint0_linear_11_29474" x1="15" y1="0.411133" x2="15" y2="30.1886" gradientUnits="userSpaceOnUse">
<stop stop-color="white"/>
<stop offset="1" stop-color="white"/>
</linearGradient>
<linearGradient id="paint1_linear_11_29474" x1="15" y1="0.411133" x2="19.2" y2="30.4111" gradientUnits="userSpaceOnUse">
<stop stop-color="#F5CB86"/>
<stop offset="1" stop-color="#7E5936"/>
</linearGradient>
</defs>
</svg>
