<svg width="30" height="31" viewBox="0 0 30 31" fill="none" xmlns="http://www.w3.org/2000/svg">
<circle cx="15" cy="15.4111" r="15" fill="white"/>
<path d="M11.0404 21.3998L11.315 21.5355C12.4595 22.2142 13.7412 22.5309 15.023 22.5309C19.0514 22.5309 22.3474 19.2732 22.3474 15.2914C22.3474 13.3911 21.5691 11.5359 20.1958 10.1785C18.8225 8.82109 16.9914 8.05193 15.023 8.05193C10.9946 8.05193 7.69861 11.3097 7.74442 15.3367C7.74442 16.6941 8.15641 18.0063 8.84304 19.1374L9.02614 19.4089L8.29376 22.0785L11.0404 21.3998Z" fill="white"/>
<path d="M20.974 9.45456C19.4176 7.87095 17.2661 7.01123 15.0688 7.01123C10.3995 7.01123 6.64578 10.7667 6.69152 15.3366C6.69152 16.7846 7.10352 18.1873 7.79022 19.4541L6.59998 23.7526L11.0404 22.6214C12.2763 23.3002 13.6496 23.6169 15.023 23.6169C19.6465 23.6169 23.4002 19.8614 23.4002 15.2915C23.4002 13.0743 22.5304 10.993 20.974 9.45456ZM15.0688 22.2143C13.8328 22.2143 12.5968 21.8976 11.5439 21.2641L11.2693 21.1284L8.6142 21.807L9.30084 19.228L9.11774 18.9565C7.10352 15.744 8.06486 11.4907 11.3608 9.49977C14.6568 7.50894 18.914 8.45914 20.9283 11.7169C22.9424 14.9747 21.9811 19.1827 18.6852 21.1736C17.6323 21.8522 16.3505 22.2143 15.0688 22.2143ZM19.0971 17.1919L18.5936 16.9657C18.5936 16.9657 17.8612 16.6489 17.4034 16.4227C17.3576 16.4227 17.3119 16.3774 17.2661 16.3774C17.1287 16.3774 17.0372 16.4227 16.9456 16.4679C16.9456 16.4679 16.8999 16.5132 16.259 17.2371C16.2132 17.3276 16.1216 17.3729 16.0301 17.3729H15.9843C15.9385 17.3729 15.847 17.3276 15.8012 17.2824L15.5723 17.1919C15.0687 16.9657 14.611 16.6941 14.2448 16.3322C14.1532 16.2417 14.0159 16.1512 13.9243 16.0607C13.6039 15.744 13.2834 15.382 13.0546 14.9748L13.0088 14.8843C12.963 14.839 12.963 14.7938 12.9172 14.7033C12.9172 14.6128 12.9172 14.5223 12.963 14.477C12.963 14.477 13.1461 14.2508 13.2834 14.1151C13.375 14.0246 13.4208 13.8889 13.5123 13.7984C13.6039 13.6626 13.6497 13.4816 13.6039 13.3459C13.5581 13.1196 13.0088 11.898 12.8715 11.6265C12.7799 11.4907 12.6884 11.4455 12.551 11.4002H12.0475C11.9559 11.4002 11.8644 11.4455 11.7728 11.4455L11.727 11.4907C11.6354 11.536 11.5439 11.6265 11.4524 11.6717C11.3608 11.7623 11.315 11.8527 11.2235 11.9432C10.903 12.3505 10.7199 12.8482 10.7199 13.3459C10.7199 13.7078 10.8115 14.0698 10.9488 14.3866L10.9946 14.5223C11.4066 15.382 11.9559 16.1512 12.6884 16.8299L12.8715 17.0109C13.0088 17.1466 13.1461 17.2371 13.2377 17.3728C14.199 18.1873 15.2976 18.7755 16.5336 19.0922C16.671 19.1375 16.8541 19.1375 16.9914 19.1827H17.4492C17.6781 19.1827 17.9527 19.0922 18.1359 19.0018C18.2732 18.9113 18.3647 18.9113 18.4562 18.8208L18.5479 18.7302C18.6394 18.6397 18.731 18.5945 18.8225 18.5041C18.914 18.4136 19.0056 18.3231 19.0514 18.2325C19.1429 18.0516 19.1887 17.8253 19.2345 17.5991V17.2824C19.2345 17.2824 19.1887 17.2371 19.0971 17.1919Z" fill="url(#paint0_linear_11_29475)"/>
<defs>
<linearGradient id="paint0_linear_11_29475" x1="15.0001" y1="7.01123" x2="17.336" y2="23.7548" gradientUnits="userSpaceOnUse">
<stop stop-color="#F5CB86"/>
<stop offset="1" stop-color="#7E5936"/>
</linearGradient>
</defs>
</svg>
